SplineFontDB: 3.0
FontName: GentiumBasic-Bold
FullName: Gentium Basic Bold
FamilyName: Gentium Basic
Weight: Bold
Copyright: Copyright (c) SIL International, 2003-2008.
Version: 1.100
ItalicAngle: 0
UnderlinePosition: -200
UnderlineWidth: 100
Ascent: 1638
Descent: 410
sfntRevision: 0x00011999
LayerCount: 2
Layer: 0 1 "Back"  1
Layer: 1 1 "Fore"  0
XUID: [1021 288 713564382 5943250]
FSType: 0
OS2Version: 3
OS2_WeightWidthSlopeOnly: 0
OS2_UseTypoMetrics: 1
CreationTime: 1207154042
ModificationTime: 1309535625
PfmFamily: 17
TTFWeight: 700
TTFWidth: 5
LineGap: 0
VLineGap: 0
Panose: 2 0 5 3 6 0 0 2 0 4
OS2TypoAscent: 2219
OS2TypoAOffset: 0
OS2TypoDescent: -735
OS2TypoDOffset: 0
OS2TypoLinegap: 0
OS2WinAscent: 2219
OS2WinAOffset: 0
OS2WinDescent: 735
OS2WinDOffset: 0
HheadAscent: 2219
HheadAOffset: 0
HheadDescent: -735
HheadDOffset: 0
OS2SubXSize: 856
OS2SubYSize: 856
OS2SubXOff: 0
OS2SubYOff: 1200
OS2SupXSize: 856
OS2SupYSize: 856
OS2SupXOff: 0
OS2SupYOff: 1200
OS2StrikeYSize: 100
OS2StrikeYPos: 500
OS2Vendor: 'SIL '
OS2CodePages: 20000013.00000000
OS2UnicodeRanges: a000007f.4000204a.00000000.00000000
Lookup: 5 0 0 "'ccmp' Glyph Composition/Decomposition lookup 0"  {"'ccmp' Glyph Composition/Decomposition lookup 0 subtable"  } ['ccmp' ('cyrl' <'dflt' > 'latn' <'IPA ' 'VIT ' 'dflt' > ) ]
Lookup: 1 0 0 "Single Substitution lookup 1"  {"Single Substitution lookup 1 subtable"  } []
Lookup: 2 0 0 "Multiple Substitution lookup 2"  {"Multiple Substitution lookup 2 subtable"  } []
Lookup: 4 0 0 "'ccmp' Glyph Composition/Decomposition lookup 3"  {"'ccmp' Glyph Composition/Decomposition lookup 3 subtable"  } ['ccmp' ('cyrl' <'dflt' > 'latn' <'IPA ' 'VIT ' 'dflt' > ) ]
Lookup: 4 256 0 "'ccmp' Glyph Composition/Decomposition in Latin lookup 4"  {"'ccmp' Glyph Composition/Decomposition in Latin lookup 4 subtable"  } ['ccmp' ('latn' <'VIT ' > ) ]

StartChar: .notdef
Encoding: 65536 -1 0
Width: 1400
Flags: W
LayerCount: 2
Fore
SplineSet
150 50 m 1,0,-1
 1250 50 l 1,1,-1
 1250 1750 l 1,2,-1
 150 1750 l 1,3,-1
 150 50 l 1,0,-1
100 1800 m 1,4,-1
 1300 1800 l 1,5,-1
 1300 0 l 1,6,-1
 100 0 l 1,7,-1
 100 1800 l 1,4,-1
EndSplineSet
EndChar

StartChar: exclam
Encoding: 33 33 4
Width: 633
Flags: W
LayerCount: 2
Fore
SplineSet
476 131 m 0,0,1
 476 91 476 91 461.5 59 c 128,-1,2
 447 27 447 27 422 5 c 128,-1,3
 397 -17 397 -17 363.5 -28.5 c 128,-1,4
 330 -40 330 -40 293 -40 c 0,5,6
 263 -40 263 -40 237 -32.5 c 128,-1,7
 211 -25 211 -25 191 -8.5 c 128,-1,8
 171 8 171 8 159.5 33.5 c 128,-1,9
 148 59 148 59 148 95 c 0,10,11
 148 134 148 134 163 166 c 128,-1,12
 178 198 178 198 203.5 220 c 128,-1,13
 229 242 229 242 262 254 c 128,-1,14
 295 266 295 266 332 266 c 0,15,16
 359 266 359 266 385 258 c 128,-1,17
 411 250 411 250 431.5 233.5 c 128,-1,18
 452 217 452 217 464 191.5 c 128,-1,19
 476 166 476 166 476 131 c 0,0,1
377 412 m 1,20,21
 358 398 358 398 328 389.5 c 128,-1,22
 298 381 298 381 273 373 c 1,23,-1
 244 394 l 1,24,-1
 167 1368 l 1,25,26
 189 1380 189 1380 221.5 1396.5 c 128,-1,27
 254 1413 254 1413 288.5 1429 c 128,-1,28
 323 1445 323 1445 354.5 1459 c 128,-1,29
 386 1473 386 1473 406 1480 c 1,30,-1
 456 1448 l 1,31,-1
 377 412 l 1,20,21
EndSplineSet
EndChar

StartChar: quotedbl
Encoding: 34 34 5
Width: 960
Flags: W
LayerCount: 2
Fore
SplineSet
347 834 m 1,0,1
 339 830 339 830 323 826 c 128,-1,2
 307 822 307 822 288 819 c 128,-1,3
 269 816 269 816 251 814.5 c 128,-1,4
 233 813 233 813 221 813 c 1,5,-1
 138 1396 l 1,6,7
 145 1400 145 1400 163.5 1407.5 c 128,-1,8
 182 1415 182 1415 205 1424 c 128,-1,9
 228 1433 228 1433 254 1442 c 128,-1,10
 280 1451 280 1451 303.5 1459 c 128,-1,11
 327 1467 327 1467 344.5 1472.5 c 128,-1,12
 362 1478 362 1478 369 1480 c 1,13,-1
 420 1452 l 1,14,-1
 347 834 l 1,0,1
750 834 m 1,15,16
 742 830 742 830 726 826 c 128,-1,17
 710 822 710 822 691 819 c 128,-1,18
 672 816 672 816 654 814.5 c 128,-1,19
 636 813 636 813 624 813 c 1,20,-1
 541 1396 l 1,21,22
 552 1402 552 1402 585.5 1415.5 c 128,-1,23
 619 1429 619 1429 657 1442.5 c 128,-1,24
 695 1456 695 1456 728 1467 c 128,-1,25
 761 1478 761 1478 772 1480 c 1,26,-1
 823 1452 l 1,27,-1
 750 834 l 1,15,16
EndSplineSet
EndChar

StartChar: numbersign
Encoding: 35 35 6
Width: 1036
Flags: W
LayerCount: 2
Fore
SplineSet
863 976 m 1,0,-1
 1017 976 l 1,1,-1
 1042 951 l 1,2,3
 1040 940 1040 940 1034 923 c 128,-1,4
 1028 906 1028 906 1020.5 888.5 c 128,-1,5
 1013 871 1013 871 1006.5 855 c 128,-1,6
 1000 839 1000 839 996 831 c 1,7,-1
 822 831 l 1,8,-1
 757 605 l 1,9,-1
 911 605 l 1,10,-1
 933 578 l 1,11,12
 931 568 931 568 925.5 551.5 c 128,-1,13
 920 535 920 535 913 517.5 c 128,-1,14
 906 500 906 500 900 484.5 c 128,-1,15
 894 469 894 469 890 460 c 1,16,-1
 716 460 l 1,17,-1
 633 170 l 1,18,19
 624 163 624 163 608.5 157 c 128,-1,20
 593 151 593 151 576 146 c 128,-1,21
 559 141 559 141 541.5 136 c 128,-1,22
 524 131 524 131 511 127 c 1,23,-1
 485 147 l 1,24,-1
 574 460 l 1,25,-1
 400 460 l 1,26,-1
 317 170 l 1,27,28
 308 163 308 163 293 157 c 128,-1,29
 278 151 278 151 261 146 c 2,30,-1
 227 136 l 2,31,32
 210 131 210 131 197 127 c 1,33,-1
 171 147 l 1,34,-1
 260 460 l 1,35,-1
 94 460 l 1,36,-1
 72 485 l 1,37,38
 74 495 74 495 79.5 511 c 128,-1,39
 85 527 85 527 92 544.5 c 128,-1,40
 99 562 99 562 105.5 578.5 c 128,-1,41
 112 595 112 595 117 605 c 1,42,-1
 302 605 l 1,43,-1
 366 831 l 1,44,-1
 203 831 l 1,45,-1
 178 855 l 1,46,47
 180 866 180 866 186 882.5 c 128,-1,48
 192 899 192 899 199.5 916.5 c 128,-1,49
 207 934 207 934 213.5 950 c 128,-1,50
 220 966 220 966 224 976 c 1,51,-1
 408 976 l 1,52,-1
 486 1251 l 1,53,54
 497 1259 497 1259 512.5 1264.5 c 128,-1,55
 528 1270 528 1270 545 1274.5 c 128,-1,56
 562 1279 562 1279 577.5 1283 c 128,-1,57
 593 1287 593 1287 604 1292 c 1,58,-1
 633 1270 l 1,59,-1
 548 976 l 1,60,-1
 722 976 l 1,61,-1
 800 1251 l 1,62,63
 811 1259 811 1259 826.5 1264.5 c 128,-1,64
 842 1270 842 1270 859 1274.5 c 128,-1,65
 876 1279 876 1279 892 1283 c 128,-1,66
 908 1287 908 1287 920 1292 c 1,67,-1
 947 1270 l 1,68,-1
 863 976 l 1,0,-1
442 605 m 1,69,-1
 616 605 l 1,70,-1
 680 831 l 1,71,-1
 507 831 l 1,72,-1
 442 605 l 1,69,-1
EndSplineSet
EndChar

StartChar: dollar
Encoding: 36 36 7
Width: 1036
Flags: W
LayerCount: 2
Fore
SplineSet
285 951 m 0,0,1
 285 919 285 919 298 894 c 128,-1,2
 311 869 311 869 333.5 849 c 128,-1,3
 356 829 356 829 387 812.5 c 128,-1,4
 418 796 418 796 455 781 c 1,5,-1
 455 1092 l 1,6,7
 414 1088 414 1088 382.5 1075.5 c 128,-1,8
 351 1063 351 1063 329.5 1044 c 128,-1,9
 308 1025 308 1025 296.5 1001 c 128,-1,10
 285 977 285 977 285 951 c 0,0,1
742 317 m 0,11,12
 742 356 742 356 729.5 387 c 128,-1,13
 717 418 717 418 694.5 442.5 c 128,-1,14
 672 467 672 467 641.5 486.5 c 128,-1,15
 611 506 611 506 575 522 c 1,16,-1
 575 138 l 1,17,18
 608 143 608 143 638 156.5 c 128,-1,19
 668 170 668 170 691.5 192 c 128,-1,20
 715 214 715 214 728.5 245 c 128,-1,21
 742 276 742 276 742 317 c 0,11,12
575 -128 m 1,22,23
 557 -144 557 -144 535.5 -156 c 128,-1,24
 514 -168 514 -168 489 -174 c 1,25,-1
 455 -145 l 1,26,-1
 455 -9 l 1,27,28
 370 -6 370 -6 272 25 c 128,-1,29
 174 56 174 56 87 111 c 0,30,31
 82 114 82 114 79.5 132.5 c 128,-1,32
 77 151 77 151 76.5 177.5 c 128,-1,33
 76 204 76 204 77 236.5 c 128,-1,34
 78 269 78 269 80 301 c 128,-1,35
 82 333 82 333 86 361.5 c 128,-1,36
 90 390 90 390 95 408 c 1,37,-1
 168 404 l 1,38,39
 192 353 192 353 220.5 309 c 128,-1,40
 249 265 249 265 284.5 231 c 128,-1,41
 320 197 320 197 362 174 c 128,-1,42
 404 151 404 151 455 141 c 1,43,-1
 455 569 l 1,44,45
 388 593 388 593 321.5 618.5 c 128,-1,46
 255 644 255 644 202 681 c 128,-1,47
 149 718 149 718 116 771.5 c 128,-1,48
 83 825 83 825 83 904 c 0,49,50
 83 947 83 947 101 996.5 c 128,-1,51
 119 1046 119 1046 162.5 1090.5 c 128,-1,52
 206 1135 206 1135 277 1167.5 c 128,-1,53
 348 1200 348 1200 455 1210 c 1,54,-1
 455 1341 l 1,55,56
 469 1349 469 1349 478.5 1355.5 c 128,-1,57
 488 1362 488 1362 497 1367 c 128,-1,58
 506 1372 506 1372 516 1376 c 128,-1,59
 526 1380 526 1380 541 1384 c 1,60,-1
 575 1355 l 1,61,-1
 575 1212 l 1,62,63
 627 1209 627 1209 679 1199.5 c 128,-1,64
 731 1190 731 1190 776 1176 c 128,-1,65
 821 1162 821 1162 856 1144.5 c 128,-1,66
 891 1127 891 1127 909 1109 c 0,67,68
 915 1102 915 1102 907.5 1072 c 128,-1,69
 900 1042 900 1042 886 1006 c 128,-1,70
 872 970 872 970 855 937.5 c 128,-1,71
 838 905 838 905 825 893 c 1,72,-1
 756 901 l 1,73,74
 722 970 722 970 678.5 1015.5 c 128,-1,75
 635 1061 635 1061 575 1081 c 1,76,-1
 575 737 l 1,77,78
 642 713 642 713 709.5 684.5 c 128,-1,79
 777 656 777 656 831 614 c 128,-1,80
 885 572 885 572 918.5 513 c 128,-1,81
 952 454 952 454 952 370 c 0,82,83
 952 310 952 310 931 249.5 c 128,-1,84
 910 189 910 189 864.5 137 c 128,-1,85
 819 85 819 85 747.5 47.5 c 128,-1,86
 676 10 676 10 575 -3 c 1,87,-1
 575 -128 l 1,22,23
EndSplineSet
EndChar

StartChar: percent
Encoding: 37 37 8
Width: 1491
Flags: W
LayerCount: 2
Fore
SplineSet
1233 290 m 0,0,1
 1233 436 1233 436 1198 506 c 128,-1,2
 1163 576 1163 576 1110 576 c 0,3,4
 1060 576 1060 576 1032 520 c 128,-1,5
 1004 464 1004 464 1004 333 c 0,6,7
 1004 185 1004 185 1035.5 114.5 c 128,-1,8
 1067 44 1067 44 1127 44 c 0,9,10
 1179 44 1179 44 1206 101 c 128,-1,11
 1233 158 1233 158 1233 290 c 0,0,1
1438 310 m 256,12,13
 1438 240 1438 240 1413.5 178 c 128,-1,14
 1389 116 1389 116 1345.5 69.5 c 128,-1,15
 1302 23 1302 23 1242 -4 c 128,-1,16
 1182 -31 1182 -31 1110 -31 c 256,17,18
 1038 -31 1038 -31 980.5 -4 c 128,-1,19
 923 23 923 23 882.5 69.5 c 128,-1,20
 842 116 842 116 820.5 178 c 128,-1,21
 799 240 799 240 799 310 c 256,22,23
 799 380 799 380 822 442 c 128,-1,24
 845 504 845 504 888 550.5 c 128,-1,25
 931 597 931 597 991.5 624 c 128,-1,26
 1052 651 1052 651 1127 651 c 0,27,28
 1201 651 1201 651 1259 624 c 128,-1,29
 1317 597 1317 597 1356.5 551 c 128,-1,30
 1396 505 1396 505 1417 442.5 c 128,-1,31
 1438 380 1438 380 1438 310 c 256,12,13
374 7 m 1,32,33
 363 1 363 1 343.5 -4.5 c 128,-1,34
 324 -10 324 -10 302 -14.5 c 128,-1,35
 280 -19 280 -19 259 -23.5 c 128,-1,36
 238 -28 238 -28 225 -31 c 1,37,-1
 201 0 l 1,38,-1
 1114 1199 l 1,39,40
 1124 1204 1124 1204 1143.5 1209.5 c 128,-1,41
 1163 1215 1163 1215 1185 1220 c 128,-1,42
 1207 1225 1207 1225 1227 1229 c 128,-1,43
 1247 1233 1247 1233 1259 1236 c 1,44,-1
 1285 1206 l 1,45,-1
 374 7 l 1,32,33
488 877 m 0,46,47
 488 950 488 950 478.5 1004 c 128,-1,48
 469 1058 469 1058 452.5 1093 c 128,-1,49
 436 1128 436 1128 413.5 1145.5 c 128,-1,50
 391 1163 391 1163 365 1163 c 0,51,52
 315 1163 315 1163 287 1107 c 128,-1,53
 259 1051 259 1051 259 920 c 0,54,55
 259 772 259 772 290 702 c 128,-1,56
 321 632 321 632 381 632 c 0,57,58
 433 632 433 632 460.5 689 c 128,-1,59
 488 746 488 746 488 877 c 0,46,47
693 897 m 0,60,61
 693 828 693 828 668.5 766 c 128,-1,62
 644 704 644 704 600.5 657.5 c 128,-1,63
 557 611 557 611 497 584 c 128,-1,64
 437 557 437 557 365 557 c 256,65,66
 293 557 293 557 235.5 584 c 128,-1,67
 178 611 178 611 137.5 657.5 c 128,-1,68
 97 704 97 704 75.5 766 c 128,-1,69
 54 828 54 828 54 897 c 0,70,71
 54 967 54 967 77 1029 c 128,-1,72
 100 1091 100 1091 142.5 1137.5 c 128,-1,73
 185 1184 185 1184 245.5 1211 c 128,-1,74
 306 1238 306 1238 381 1238 c 0,75,76
 455 1238 455 1238 513 1211 c 128,-1,77
 571 1184 571 1184 611 1138 c 128,-1,78
 651 1092 651 1092 672 1029.5 c 128,-1,79
 693 967 693 967 693 897 c 0,60,61
EndSplineSet
EndChar

StartChar: ampersand
Encoding: 38 38 9
Width: 1419
Flags: W
LayerCount: 2
Fore
SplineSet
497 1130 m 0,0,1
 497 1078 497 1078 511 1022.5 c 128,-1,2
 525 967 525 967 551 908 c 1,3,4
 598 936 598 936 629.5 969 c 128,-1,5
 661 1002 661 1002 679.5 1036 c 128,-1,6
 698 1070 698 1070 706 1104.5 c 128,-1,7
 714 1139 714 1139 714 1171 c 0,8,9
 714 1241 714 1241 681.5 1281 c 128,-1,10
 649 1321 649 1321 603 1321 c 0,11,12
 576 1321 576 1321 556 1306 c 128,-1,13
 536 1291 536 1291 523 1265 c 128,-1,14
 510 1239 510 1239 503.5 1204 c 128,-1,15
 497 1169 497 1169 497 1130 c 0,0,1
573 114 m 0,16,17
 630 114 630 114 682.5 131 c 128,-1,18
 735 148 735 148 782 177 c 1,19,20
 735 222 735 222 686.5 274.5 c 128,-1,21
 638 327 638 327 591 385 c 128,-1,22
 544 443 544 443 500 505 c 128,-1,23
 456 567 456 567 418 631 c 1,24,25
 365 567 365 567 345 504.5 c 128,-1,26
 325 442 325 442 325 373 c 0,27,28
 325 303 325 303 347 253.5 c 128,-1,29
 369 204 369 204 404.5 173 c 128,-1,30
 440 142 440 142 484.5 128 c 128,-1,31
 529 114 529 114 573 114 c 0,16,17
1414 748 m 1,32,33
 1402 733 1402 733 1387 714.5 c 128,-1,34
 1372 696 1372 696 1357 678.5 c 128,-1,35
 1342 661 1342 661 1327 646 c 128,-1,36
 1312 631 1312 631 1300 622 c 1,37,38
 1263 639 1263 639 1220 653.5 c 128,-1,39
 1177 668 1177 668 1143 670 c 1,40,41
 1164 641 1164 641 1170 611 c 128,-1,42
 1176 581 1176 581 1176 543 c 0,43,44
 1176 477 1176 477 1145.5 402 c 128,-1,45
 1115 327 1115 327 1060 255 c 1,46,47
 1081 236 1081 236 1101 219 c 128,-1,48
 1121 202 1121 202 1140 186 c 0,49,50
 1191 143 1191 143 1246.5 132 c 128,-1,51
 1302 121 1302 121 1353 133 c 1,52,-1
 1369 60 l 1,53,54
 1326 41 1326 41 1278.5 24.5 c 128,-1,55
 1231 8 1231 8 1189 -4 c 128,-1,56
 1147 -16 1147 -16 1116 -23 c 128,-1,57
 1085 -30 1085 -30 1074 -30 c 0,58,59
 1049 -30 1049 -30 998 1 c 128,-1,60
 947 32 947 32 881 87 c 1,61,62
 802 33 802 33 709 1.5 c 128,-1,63
 616 -30 616 -30 513 -30 c 0,64,65
 408 -30 408 -30 325 -5.5 c 128,-1,66
 242 19 242 19 184 67 c 128,-1,67
 126 115 126 115 95.5 186.5 c 128,-1,68
 65 258 65 258 65 352 c 0,69,70
 65 458 65 458 132 564 c 128,-1,71
 199 670 199 670 343 776 c 1,72,73
 310 852 310 852 291 926.5 c 128,-1,74
 272 1001 272 1001 272 1073 c 0,75,76
 272 1154 272 1154 303 1223 c 128,-1,77
 334 1292 334 1292 387.5 1342.5 c 128,-1,78
 441 1393 441 1393 512.5 1421.5 c 128,-1,79
 584 1450 584 1450 664 1450 c 0,80,81
 740 1450 740 1450 794 1429.5 c 128,-1,82
 848 1409 848 1409 883 1375 c 128,-1,83
 918 1341 918 1341 934.5 1296.5 c 128,-1,84
 951 1252 951 1252 951 1204 c 0,85,86
 951 1152 951 1152 924.5 1098 c 128,-1,87
 898 1044 898 1044 854.5 993 c 128,-1,88
 811 942 811 942 755.5 895.5 c 128,-1,89
 700 849 700 849 641 812 c 2,90,-1
 610 792 l 1,91,92
 644 735 644 735 684.5 677.5 c 128,-1,93
 725 620 725 620 769.5 565 c 128,-1,94
 814 510 814 510 860.5 457.5 c 128,-1,95
 907 405 907 405 954 358 c 1,96,97
 974 394 974 394 984.5 430.5 c 128,-1,98
 995 467 995 467 995 502 c 0,99,100
 995 544 995 544 982 577.5 c 128,-1,101
 969 611 969 611 947.5 634.5 c 128,-1,102
 926 658 926 658 898.5 670.5 c 128,-1,103
 871 683 871 683 842 683 c 1,104,-1
 813 718 l 1,105,106
 818 724 818 724 829 735 c 128,-1,107
 840 746 840 746 852.5 757.5 c 128,-1,108
 865 769 865 769 878.5 778.5 c 128,-1,109
 892 788 892 788 902 792 c 1,110,-1
 1383 792 l 1,111,-1
 1414 748 l 1,32,33
EndSplineSet
EndChar

StartChar: quotesingle
Encoding: 39 39 10
Width: 557
Flags: W
LayerCount: 2
Fore
SplineSet
347 834 m 1,0,1
 339 830 339 830 323 826 c 128,-1,2
 307 822 307 822 288 819 c 128,-1,3
 269 816 269 816 251 814.5 c 128,-1,4
 233 813 233 813 221 813 c 1,5,-1
 138 1396 l 1,6,7
 145 1400 145 1400 163.5 1407.5 c 128,-1,8
 182 1415 182 1415 205 1424 c 128,-1,9
 228 1433 228 1433 254 1442 c 128,-1,10
 280 1451 280 1451 303.5 1459 c 128,-1,11
 327 1467 327 1467 344.5 1472.5 c 128,-1,12
 362 1478 362 1478 369 1480 c 1,13,-1
 420 1452 l 1,14,-1
 347 834 l 1,0,1
EndSplineSet
EndChar

StartChar: parenleft
Encoding: 40 40 11
Width: 679
Flags: W
LayerCount: 2
Fore
SplineSet
601 -315 m 1,0,1
 476 -249 476 -249 383.5 -154 c 128,-1,2
 291 -59 291 -59 229 61 c 128,-1,3
 167 181 167 181 136.5 322.5 c 128,-1,4
 106 464 106 464 106 623 c 0,5,6
 106 787 106 787 140.5 935 c 128,-1,7
 175 1083 175 1083 239 1208 c 128,-1,8
 303 1333 303 1333 395 1432.5 c 128,-1,9
 487 1532 487 1532 601 1600 c 1,10,-1
 655 1525 l 1,11,12
 595 1465 595 1465 542.5 1381 c 128,-1,13
 490 1297 490 1297 451 1188.5 c 128,-1,14
 412 1080 412 1080 389 945.5 c 128,-1,15
 366 811 366 811 366 651 c 0,16,17
 366 505 366 505 384.5 373.5 c 128,-1,18
 403 242 403 242 439.5 128.5 c 128,-1,19
 476 15 476 15 530 -78 c 128,-1,20
 584 -171 584 -171 655 -240 c 1,21,-1
 601 -315 l 1,0,1
EndSplineSet
EndChar

StartChar: parenright
Encoding: 41 41 12
Width: 679
Flags: W
LayerCount: 2
Fore
SplineSet
575 662 m 0,0,1
 575 498 575 498 540.5 350 c 128,-1,2
 506 202 506 202 442 76.5 c 128,-1,3
 378 -49 378 -49 286 -148.5 c 128,-1,4
 194 -248 194 -248 80 -316 c 1,5,-1
 26 -241 l 1,6,7
 86 -181 86 -181 138.5 -97 c 128,-1,8
 191 -13 191 -13 230 96 c 128,-1,9
 269 205 269 205 292 339 c 128,-1,10
 315 473 315 473 315 634 c 0,11,12
 315 779 315 779 296.5 911 c 128,-1,13
 278 1043 278 1043 241.5 1156.5 c 128,-1,14
 205 1270 205 1270 151 1363 c 128,-1,15
 97 1456 97 1456 26 1524 c 1,16,-1
 80 1599 l 1,17,18
 204 1533 204 1533 297 1438 c 128,-1,19
 390 1343 390 1343 452 1223.5 c 128,-1,20
 514 1104 514 1104 544.5 962.5 c 128,-1,21
 575 821 575 821 575 662 c 0,0,1
EndSplineSet
EndChar

StartChar: asterisk
Encoding: 42 42 13
Width: 907
Flags: W
LayerCount: 2
Fore
SplineSet
501 1220 m 1,0,-1
 718 1404 l 1,1,2
 728 1397 728 1397 747.5 1383 c 128,-1,3
 767 1369 767 1369 787.5 1352.5 c 128,-1,4
 808 1336 808 1336 826 1321 c 128,-1,5
 844 1306 844 1306 852 1298 c 1,6,-1
 843 1242 l 1,7,-1
 552 1136 l 1,8,-1
 820 1040 l 1,9,10
 819 1028 819 1028 816 1004 c 128,-1,11
 813 980 813 980 809.5 954 c 128,-1,12
 806 928 806 928 801.5 905 c 128,-1,13
 797 882 797 882 794 871 c 1,14,-1
 741 851 l 1,15,-1
 505 1048 l 1,16,-1
 555 770 l 1,17,18
 544 764 544 764 522 754.5 c 128,-1,19
 500 745 500 745 475.5 735.5 c 128,-1,20
 451 726 451 726 429 718 c 128,-1,21
 407 710 407 710 396 708 c 1,22,-1
 352 743 l 1,23,-1
 405 1048 l 1,24,-1
 189 864 l 1,25,26
 179 871 179 871 159.5 885.5 c 128,-1,27
 140 900 140 900 119.5 916 c 128,-1,28
 99 932 99 932 81 947 c 128,-1,29
 63 962 63 962 56 970 c 1,30,-1
 64 1026 l 1,31,-1
 356 1132 l 1,32,-1
 87 1228 l 1,33,34
 88 1240 88 1240 91 1264 c 128,-1,35
 94 1288 94 1288 97.5 1314 c 128,-1,36
 101 1340 101 1340 105.5 1363 c 128,-1,37
 110 1386 110 1386 113 1397 c 1,38,-1
 165 1417 l 1,39,-1
 402 1219 l 1,40,-1
 352 1498 l 1,41,42
 363 1504 363 1504 385 1513.5 c 128,-1,43
 407 1523 407 1523 431.5 1532.5 c 128,-1,44
 456 1542 456 1542 478 1550 c 128,-1,45
 500 1558 500 1558 511 1561 c 1,46,-1
 555 1525 l 1,47,-1
 501 1220 l 1,0,-1
EndSplineSet
EndChar

StartChar: plus
Encoding: 43 43 14
Width: 863
Flags: W
LayerCount: 2
Fore
SplineSet
506 225 m 1,0,1
 496 220 496 220 481.5 214 c 128,-1,2
 467 208 467 208 451 202.5 c 128,-1,3
 435 197 435 197 419.5 192.5 c 128,-1,4
 404 188 404 188 393 186 c 1,5,-1
 361 216 l 1,6,-1
 361 491 l 1,7,-1
 85 491 l 1,8,-1
 53 522 l 1,9,10
 56 533 56 533 61.5 548 c 128,-1,11
 67 563 67 563 74 579 c 128,-1,12
 81 595 81 595 87.5 609.5 c 128,-1,13
 94 624 94 624 99 634 c 1,14,-1
 361 634 l 1,15,-1
 361 902 l 1,16,-1
 385 910 l 2,17,18
 400 915 400 915 416 920.5 c 128,-1,19
 432 926 432 926 447.5 931 c 128,-1,20
 463 936 463 936 474 939 c 1,21,-1
 506 908 l 1,22,-1
 506 634 l 1,23,-1
 777 634 l 1,24,-1
 810 603 l 1,25,26
 807 592 807 592 801 576.5 c 128,-1,27
 795 561 795 561 788 544.5 c 128,-1,28
 781 528 781 528 774.5 513.5 c 128,-1,29
 768 499 768 499 764 491 c 1,30,-1
 506 491 l 1,31,-1
 506 225 l 1,0,1
EndSplineSet
EndChar

StartChar: comma
Encoding: 44 44 15
Width: 552
Flags: W
LayerCount: 2
Fore
SplineSet
480 70 m 0,0,1
 480 16 480 16 457 -46 c 128,-1,2
 434 -108 434 -108 394.5 -169.5 c 128,-1,3
 355 -231 355 -231 302 -286 c 128,-1,4
 249 -341 249 -341 189 -380 c 1,5,-1
 121 -330 l 1,6,7
 177 -265 177 -265 209 -195 c 128,-1,8
 241 -125 241 -125 241 -38 c 0,9,10
 241 -16 241 -16 231.5 6 c 128,-1,11
 222 28 222 28 204.5 44.5 c 128,-1,12
 187 61 187 61 161.5 70 c 128,-1,13
 136 79 136 79 104 77 c 1,14,-1
 88 154 l 1,15,16
 94 162 94 162 113 173 c 128,-1,17
 132 184 132 184 159.5 195.5 c 128,-1,18
 187 207 187 207 219 218.5 c 128,-1,19
 251 230 251 230 282 239.5 c 128,-1,20
 313 249 313 249 340 254 c 128,-1,21
 367 259 367 259 384 259 c 1,22,23
 432 236 432 236 456 192.5 c 128,-1,24
 480 149 480 149 480 70 c 0,0,1
EndSplineSet
EndChar

StartChar: period
Encoding: 46 46 17
Width: 552
Flags: W
LayerCount: 2
Fore
SplineSet
459 131 m 0,0,1
 459 91 459 91 444.5 59 c 128,-1,2
 430 27 430 27 405.5 5 c 128,-1,3
 381 -17 381 -17 347.5 -28.5 c 128,-1,4
 314 -40 314 -40 276 -40 c 0,5,6
 247 -40 247 -40 220.5 -32.5 c 128,-1,7
 194 -25 194 -25 174 -8.5 c 128,-1,8
 154 8 154 8 142.5 33.5 c 128,-1,9
 131 59 131 59 131 95 c 0,10,11
 131 134 131 134 146 166 c 128,-1,12
 161 198 161 198 186.5 220 c 128,-1,13
 212 242 212 242 245.5 254 c 128,-1,14
 279 266 279 266 315 266 c 0,15,16
 343 266 343 266 369 258 c 128,-1,17
 395 250 395 250 415 233.5 c 128,-1,18
 435 217 435 217 447 191.5 c 128,-1,19
 459 166 459 166 459 131 c 0,0,1
EndSplineSet
EndChar

StartChar: slash
Encoding: 47 47 18
Width: 975
Flags: W
LayerCount: 2
Fore
SplineSet
242 -277 m 1,0,1
 232 -284 232 -284 210 -292.5 c 128,-1,2
 188 -301 188 -301 163 -309 c 128,-1,3
 138 -317 138 -317 114.5 -324 c 128,-1,4
 91 -331 91 -331 79 -335 c 1,5,-1
 35 -303 l 1,6,-1
 736 1544 l 1,7,8
 749 1553 749 1553 770.5 1561 c 128,-1,9
 792 1569 792 1569 815 1576.5 c 128,-1,10
 838 1584 838 1584 859.5 1590 c 128,-1,11
 881 1596 881 1596 895 1600 c 1,12,-1
 940 1571 l 1,13,-1
 242 -277 l 1,0,1
EndSplineSet
EndChar

StartChar: zero
Encoding: 48 48 19
Width: 1036
GlyphClass: 2
Flags: W
AnchorPoint: "Anchor-4" 1036 900 basechar 0
AnchorPoint: "Anchor-3" 518 -100 basechar 0
AnchorPoint: "Anchor-2" 518 -100 basechar 0
AnchorPoint: "Anchor-1" 518 -100 basechar 0
AnchorPoint: "Anchor-0" 518 1370 basechar 0
LayerCount: 2
Fore
SplineSet
714 565 m 0,0,1
 714 702 714 702 698.5 803.5 c 128,-1,2
 683 905 683 905 655 972 c 128,-1,3
 627 1039 627 1039 589 1072 c 128,-1,4
 551 1105 551 1105 506 1105 c 0,5,6
 460 1105 460 1105 426 1080 c 128,-1,7
 392 1055 392 1055 369 1000 c 128,-1,8
 346 945 346 945 334.5 857.5 c 128,-1,9
 323 770 323 770 323 645 c 0,10,11
 323 370 323 370 376.5 235 c 128,-1,12
 430 100 430 100 530 100 c 0,13,14
 576 100 576 100 611 125 c 128,-1,15
 646 150 646 150 668.5 205.5 c 128,-1,16
 691 261 691 261 702.5 349.5 c 128,-1,17
 714 438 714 438 714 565 c 0,0,1
975 602 m 0,18,19
 975 473 975 473 940.5 358 c 128,-1,20
 906 243 906 243 844 157 c 128,-1,21
 782 71 782 71 696 20.5 c 128,-1,22
 610 -30 610 -30 506 -30 c 256,23,24
 402 -30 402 -30 320 20.5 c 128,-1,25
 238 71 238 71 180 157 c 128,-1,26
 122 243 122 243 91.5 358 c 128,-1,27
 61 473 61 473 61 602 c 256,28,29
 61 731 61 731 93.5 846 c 128,-1,30
 126 961 126 961 187 1047.5 c 128,-1,31
 248 1134 248 1134 335 1184.5 c 128,-1,32
 422 1235 422 1235 530 1235 c 0,33,34
 636 1235 636 1235 719 1185 c 128,-1,35
 802 1135 802 1135 859 1049 c 128,-1,36
 916 963 916 963 945.5 847.5 c 128,-1,37
 975 732 975 732 975 602 c 0,18,19
EndSplineSet
EndChar

StartChar: one
Encoding: 49 49 20
Width: 1036
GlyphClass: 2
Flags: W
AnchorPoint: "Anchor-4" 1036 900 basechar 0
AnchorPoint: "Anchor-3" 518 -100 basechar 0
AnchorPoint: "Anchor-2" 518 -100 basechar 0
AnchorPoint: "Anchor-1" 518 -100 basechar 0
AnchorPoint: "Anchor-0" 518 1370 basechar 0
LayerCount: 2
Fore
SplineSet
155 0 m 1,0,-1
 155 83 l 1,1,2
 233 92 233 92 285 103.5 c 128,-1,3
 337 115 337 115 368 127 c 128,-1,4
 399 139 399 139 412 150.5 c 128,-1,5
 425 162 425 162 425 173 c 2,6,-1
 425 910 l 2,7,8
 425 950 425 950 422 972 c 128,-1,9
 419 994 419 994 407 1008 c 0,10,11
 401 1014 401 1014 385.5 1018 c 128,-1,12
 370 1022 370 1022 340 1021 c 128,-1,13
 310 1020 310 1020 264.5 1014 c 128,-1,14
 219 1008 219 1008 153 994 c 1,15,-1
 124 1075 l 1,16,17
 152 1081 152 1081 193.5 1093 c 128,-1,18
 235 1105 235 1105 282 1120 c 128,-1,19
 329 1135 329 1135 379 1152.5 c 128,-1,20
 429 1170 429 1170 474.5 1187 c 128,-1,21
 520 1204 520 1204 558.5 1219 c 128,-1,22
 597 1234 597 1234 621 1245 c 1,23,-1
 665 1203 l 1,24,-1
 665 173 l 2,25,26
 665 163 665 163 676 151.5 c 128,-1,27
 687 140 687 140 715 128 c 128,-1,28
 743 116 743 116 791.5 104 c 128,-1,29
 840 92 840 92 915 83 c 1,30,-1
 915 0 l 1,31,-1
 155 0 l 1,0,-1
EndSplineSet
EndChar

StartChar: two
Encoding: 50 50 21
Width: 1036
GlyphClass: 2
Flags: W
AnchorPoint: "Anchor-4" 1036 900 basechar 0
AnchorPoint: "Anchor-3" 518 -100 basechar 0
AnchorPoint: "Anchor-2" 518 -100 basechar 0
AnchorPoint: "Anchor-1" 518 -100 basechar 0
AnchorPoint: "Anchor-0" 518 1370 basechar 0
LayerCount: 2
Fore
SplineSet
911 0 m 1,0,-1
 112 0 l 1,1,-1
 83 74 l 1,2,3
 200 211 200 211 288.5 317.5 c 128,-1,4
 377 424 377 424 441 506.5 c 128,-1,5
 505 589 505 589 547.5 651 c 128,-1,6
 590 713 590 713 615 761.5 c 128,-1,7
 640 810 640 810 650.5 849 c 128,-1,8
 661 888 661 888 661 924 c 0,9,10
 661 966 661 966 652 1002.5 c 128,-1,11
 643 1039 643 1039 624.5 1066 c 128,-1,12
 606 1093 606 1093 576.5 1108 c 128,-1,13
 547 1123 547 1123 505 1123 c 0,14,15
 464 1123 464 1123 434.5 1105 c 128,-1,16
 405 1087 405 1087 387 1058 c 128,-1,17
 369 1029 369 1029 363 992.5 c 128,-1,18
 357 956 357 956 363 919 c 1,19,20
 346 910 346 910 318.5 899.5 c 128,-1,21
 291 889 291 889 260 880 c 128,-1,22
 229 871 229 871 198.5 864 c 128,-1,23
 168 857 168 857 145 855 c 1,24,-1
 110 923 l 1,25,26
 110 975 110 975 147 1030 c 128,-1,27
 184 1085 184 1085 247.5 1130.5 c 128,-1,28
 311 1176 311 1176 395 1205.5 c 128,-1,29
 479 1235 479 1235 573 1235 c 0,30,31
 650 1235 650 1235 713 1219 c 128,-1,32
 776 1203 776 1203 820.5 1171 c 128,-1,33
 865 1139 865 1139 889 1092 c 128,-1,34
 913 1045 913 1045 913 982 c 0,35,36
 913 937 913 937 900.5 892.5 c 128,-1,37
 888 848 888 848 860.5 797.5 c 128,-1,38
 833 747 833 747 789 687.5 c 128,-1,39
 745 628 745 628 682 553 c 128,-1,40
 619 478 619 478 535.5 385 c 128,-1,41
 452 292 452 292 345 174 c 1,42,-1
 744 174 l 2,43,44
 761 174 761 174 774.5 182.5 c 128,-1,45
 788 191 788 191 798.5 205 c 128,-1,46
 809 219 809 219 816.5 237 c 128,-1,47
 824 255 824 255 829 274 c 0,48,49
 841 318 841 318 846 374 c 1,50,-1
 926 355 l 1,51,-1
 911 0 l 1,0,-1
EndSplineSet
EndChar

StartChar: three
Encoding: 51 51 22
Width: 1036
GlyphClass: 2
Flags: W
AnchorPoint: "Anchor-4" 1036 900 basechar 0
AnchorPoint: "Anchor-3" 518 -100 basechar 0
AnchorPoint: "Anchor-2" 518 -100 basechar 0
AnchorPoint: "Anchor-1" 518 -100 basechar 0
AnchorPoint: "Anchor-0" 518 1370 basechar 0
LayerCount: 2
Fore
SplineSet
915 381 m 0,0,1
 915 297 915 297 882.5 222 c 128,-1,2
 850 147 850 147 790 91 c 128,-1,3
 730 35 730 35 646 2.5 c 128,-1,4
 562 -30 562 -30 459 -30 c 0,5,6
 420 -30 420 -30 372 -20.5 c 128,-1,7
 324 -11 324 -11 273 9 c 128,-1,8
 222 29 222 29 171.5 60 c 128,-1,9
 121 91 121 91 76 134 c 1,10,-1
 117 231 l 1,11,12
 162 197 162 197 203 173.5 c 128,-1,13
 244 150 244 150 282 135.5 c 128,-1,14
 320 121 320 121 356.5 114.5 c 128,-1,15
 393 108 393 108 431 108 c 0,16,17
 478 108 478 108 519.5 123 c 128,-1,18
 561 138 561 138 591.5 168.5 c 128,-1,19
 622 199 622 199 640 245.5 c 128,-1,20
 658 292 658 292 658 356 c 0,21,22
 658 425 658 425 636.5 472 c 128,-1,23
 615 519 615 519 582 547.5 c 128,-1,24
 549 576 549 576 511 588.5 c 128,-1,25
 473 601 473 601 440 601 c 2,26,-1
 417 601 l 2,27,28
 408 601 408 601 400 600 c 128,-1,29
 392 599 392 599 382 598 c 128,-1,30
 372 597 372 597 357 594 c 1,31,-1
 339 684 l 1,32,33
 425 707 425 707 476.5 738.5 c 128,-1,34
 528 770 528 770 556 804.5 c 128,-1,35
 584 839 584 839 592.5 874 c 128,-1,36
 601 909 601 909 601 940 c 0,37,38
 601 974 601 974 594 1007 c 128,-1,39
 587 1040 587 1040 570.5 1066 c 128,-1,40
 554 1092 554 1092 528 1107.5 c 128,-1,41
 502 1123 502 1123 464 1123 c 0,42,43
 437 1123 437 1123 414 1110 c 128,-1,44
 391 1097 391 1097 376 1075 c 128,-1,45
 361 1053 361 1053 356 1022.5 c 128,-1,46
 351 992 351 992 360 958 c 1,47,48
 339 946 339 946 312.5 935 c 128,-1,49
 286 924 286 924 256.5 914.5 c 128,-1,50
 227 905 227 905 197 898 c 128,-1,51
 167 891 167 891 139 889 c 1,52,-1
 105 950 l 1,53,54
 105 992 105 992 135.5 1042 c 128,-1,55
 166 1092 166 1092 221 1134.5 c 128,-1,56
 276 1177 276 1177 352.5 1206 c 128,-1,57
 429 1235 429 1235 521 1235 c 0,58,59
 612 1235 612 1235 676.5 1211 c 128,-1,60
 741 1187 741 1187 781 1147.5 c 128,-1,61
 821 1108 821 1108 839.5 1058.5 c 128,-1,62
 858 1009 858 1009 858 958 c 0,63,64
 858 920 858 920 842.5 881 c 128,-1,65
 827 842 827 842 799 806.5 c 128,-1,66
 771 771 771 771 732 742.5 c 128,-1,67
 693 714 693 714 645 698 c 1,68,69
 706 692 706 692 756 664.5 c 128,-1,70
 806 637 806 637 841 594 c 128,-1,71
 876 551 876 551 895.5 496.5 c 128,-1,72
 915 442 915 442 915 381 c 0,0,1
EndSplineSet
EndChar

StartChar: four
Encoding: 52 52 23
Width: 1036
GlyphClass: 2
Flags: W
AnchorPoint: "Anchor-4" 1036 900 basechar 0
AnchorPoint: "Anchor-3" 518 -100 basechar 0
AnchorPoint: "Anchor-2" 518 -100 basechar 0
AnchorPoint: "Anchor-1" 518 -100 basechar 0
AnchorPoint: "Anchor-0" 518 1370 basechar 0
LayerCount: 2
Fore
SplineSet
570 980 m 1,0,-1
 251 475 l 1,1,-1
 570 475 l 1,2,-1
 570 980 l 1,0,-1
957 445 m 1,3,4
 936 413 936 413 907 382.5 c 128,-1,5
 878 352 878 352 855 335 c 1,6,-1
 800 335 l 1,7,-1
 800 134 l 2,8,9
 800 126 800 126 806 119.5 c 128,-1,10
 812 113 812 113 828 105.5 c 128,-1,11
 844 98 844 98 871 90 c 128,-1,12
 898 82 898 82 939 73 c 1,13,-1
 939 0 l 1,14,-1
 360 0 l 1,15,-1
 360 73 l 1,16,17
 425 84 425 84 466 93.5 c 128,-1,18
 507 103 507 103 530 111.5 c 128,-1,19
 553 120 553 120 561.5 128 c 128,-1,20
 570 136 570 136 570 145 c 2,21,-1
 570 335 l 1,22,-1
 96 335 l 1,23,-1
 55 376 l 1,24,-1
 536 1167 l 1,25,26
 560 1175 560 1175 589 1185 c 128,-1,27
 618 1195 618 1195 648 1205.5 c 128,-1,28
 678 1216 678 1216 706 1226.5 c 128,-1,29
 734 1237 734 1237 756 1245 c 1,30,-1
 800 1203 l 1,31,-1
 800 475 l 1,32,-1
 931 475 l 1,33,-1
 957 445 l 1,3,4
EndSplineSet
EndChar

StartChar: five
Encoding: 53 53 24
Width: 1036
GlyphClass: 2
Flags: W
AnchorPoint: "Anchor-4" 1036 900 basechar 0
AnchorPoint: "Anchor-3" 518 -100 basechar 0
AnchorPoint: "Anchor-2" 518 -100 basechar 0
AnchorPoint: "Anchor-1" 518 -100 basechar 0
AnchorPoint: "Anchor-0" 518 1370 basechar 0
LayerCount: 2
Fore
SplineSet
919 410 m 0,0,1
 919 323 919 323 892.5 243.5 c 128,-1,2
 866 164 866 164 810.5 103 c 128,-1,3
 755 42 755 42 670.5 6 c 128,-1,4
 586 -30 586 -30 470 -30 c 0,5,6
 424 -30 424 -30 373 -20 c 128,-1,7
 322 -10 322 -10 271 10 c 128,-1,8
 220 30 220 30 170.5 60 c 128,-1,9
 121 90 121 90 78 130 c 1,10,-1
 128 220 l 1,11,12
 181 183 181 183 227 160 c 128,-1,13
 273 137 273 137 312.5 123.5 c 128,-1,14
 352 110 352 110 385.5 105 c 128,-1,15
 419 100 419 100 448 100 c 0,16,17
 498 100 498 100 540 120.5 c 128,-1,18
 582 141 582 141 612 176.5 c 128,-1,19
 642 212 642 212 659 261 c 128,-1,20
 676 310 676 310 676 367 c 0,21,22
 676 435 676 435 658.5 487.5 c 128,-1,23
 641 540 641 540 609 575.5 c 128,-1,24
 577 611 577 611 532.5 629.5 c 128,-1,25
 488 648 488 648 433 648 c 0,26,27
 353 648 353 648 295 624 c 128,-1,28
 237 600 237 600 184 560 c 1,29,-1
 137 593 l 1,30,31
 143 629 143 629 151 679 c 128,-1,32
 159 729 159 729 167.5 785 c 128,-1,33
 176 841 176 841 184.5 900.5 c 128,-1,34
 193 960 193 960 200 1016 c 128,-1,35
 207 1072 207 1072 212 1121 c 128,-1,36
 217 1170 217 1170 219 1205 c 1,37,-1
 745 1205 l 2,38,39
 774 1205 774 1205 796 1207.5 c 128,-1,40
 818 1210 818 1210 834 1214 c 0,41,42
 852 1218 852 1218 866 1223 c 1,43,-1
 903 1187 l 1,44,45
 892 1171 892 1171 874 1146.5 c 128,-1,46
 856 1122 856 1122 836 1097.5 c 128,-1,47
 816 1073 816 1073 797.5 1052.5 c 128,-1,48
 779 1032 779 1032 767 1023 c 1,49,-1
 335 1023 l 1,50,51
 333 994 333 994 329 956.5 c 128,-1,52
 325 919 325 919 319 881.5 c 128,-1,53
 313 844 313 844 307 810 c 128,-1,54
 301 776 301 776 297 754 c 1,55,56
 342 774 342 774 397 784.5 c 128,-1,57
 452 795 452 795 516 795 c 0,58,59
 616 795 616 795 692 762.5 c 128,-1,60
 768 730 768 730 818 676 c 128,-1,61
 868 622 868 622 893.5 552.5 c 128,-1,62
 919 483 919 483 919 410 c 0,0,1
EndSplineSet
EndChar

StartChar: six
Encoding: 54 54 25
Width: 1036
GlyphClass: 2
Flags: W
AnchorPoint: "Anchor-4" 1036 900 basechar 0
AnchorPoint: "Anchor-3" 518 -100 basechar 0
AnchorPoint: "Anchor-2" 518 -100 basechar 0
AnchorPoint: "Anchor-1" 518 -100 basechar 0
AnchorPoint: "Anchor-0" 518 1370 basechar 0
LayerCount: 2
Fore
SplineSet
545 645 m 0,0,1
 502 645 502 645 451.5 616.5 c 128,-1,2
 401 588 401 588 353 536 c 1,3,4
 353 418 353 418 370 334.5 c 128,-1,5
 387 251 387 251 417 198.5 c 128,-1,6
 447 146 447 146 487.5 122 c 128,-1,7
 528 98 528 98 575 98 c 0,8,9
 618 98 618 98 647 120 c 128,-1,10
 676 142 676 142 693 177 c 128,-1,11
 710 212 710 212 717 257 c 128,-1,12
 724 302 724 302 724 348 c 0,13,14
 724 442 724 442 708 500 c 128,-1,15
 692 558 692 558 666.5 590 c 128,-1,16
 641 622 641 622 609 633.5 c 128,-1,17
 577 645 577 645 545 645 c 0,0,1
971 412 m 0,18,19
 971 365 971 365 959 314 c 128,-1,20
 947 263 947 263 923.5 214 c 128,-1,21
 900 165 900 165 865 121 c 128,-1,22
 830 77 830 77 783 43.5 c 128,-1,23
 736 10 736 10 678 -10 c 128,-1,24
 620 -30 620 -30 551 -30 c 0,25,26
 456 -30 456 -30 373 6.5 c 128,-1,27
 290 43 290 43 228 109 c 128,-1,28
 166 175 166 175 130.5 267.5 c 128,-1,29
 95 360 95 360 95 473 c 0,30,31
 95 614 95 614 143 743.5 c 128,-1,32
 191 873 191 873 285.5 976.5 c 128,-1,33
 380 1080 380 1080 521 1151.5 c 128,-1,34
 662 1223 662 1223 848 1249 c 1,35,-1
 875 1160 l 1,36,37
 754 1134 754 1134 665.5 1086.5 c 128,-1,38
 577 1039 577 1039 515.5 976 c 128,-1,39
 454 913 454 913 417.5 838 c 128,-1,40
 381 763 381 763 366 681 c 1,41,42
 429 733 429 733 493 759 c 128,-1,43
 557 785 557 785 609 785 c 0,44,45
 694 785 694 785 761.5 757.5 c 128,-1,46
 829 730 829 730 875.5 680.5 c 128,-1,47
 922 631 922 631 946.5 562.5 c 128,-1,48
 971 494 971 494 971 412 c 0,18,19
EndSplineSet
EndChar

StartChar: seven
Encoding: 55 55 26
Width: 1036
GlyphClass: 2
Flags: W
AnchorPoint: "Anchor-4" 1036 900 basechar 0
AnchorPoint: "Anchor-3" 518 -100 basechar 0
AnchorPoint: "Anchor-2" 518 -100 basechar 0
AnchorPoint: "Anchor-1" 518 -100 basechar 0
AnchorPoint: "Anchor-0" 518 1370 basechar 0
LayerCount: 2
Fore
SplineSet
960 1167 m 1,0,1
 914 1059 914 1059 869 949.5 c 128,-1,2
 824 840 824 840 782 734 c 128,-1,3
 740 628 740 628 702 528 c 128,-1,4
 664 428 664 428 631.5 340 c 128,-1,5
 599 252 599 252 573 178.5 c 128,-1,6
 547 105 547 105 530 52 c 1,7,8
 512 40 512 40 484.5 28 c 128,-1,9
 457 16 457 16 426 5 c 128,-1,10
 395 -6 395 -6 364 -15 c 128,-1,11
 333 -24 333 -24 308 -30 c 1,12,-1
 259 11 l 1,13,14
 346 164 346 164 414 293.5 c 128,-1,15
 482 423 482 423 539.5 542.5 c 128,-1,16
 597 662 597 662 649 778.5 c 128,-1,17
 701 895 701 895 756 1023 c 1,18,-1
 309 1023 l 2,19,20
 294 1023 294 1023 278 1020 c 128,-1,21
 262 1017 262 1017 244 1001.5 c 128,-1,22
 226 986 226 986 206 953.5 c 128,-1,23
 186 921 186 921 165 863 c 1,24,-1
 97 888 l 1,25,26
 100 911 100 911 106 955.5 c 128,-1,27
 112 1000 112 1000 119 1048 c 128,-1,28
 126 1096 126 1096 133.5 1139.5 c 128,-1,29
 141 1183 141 1183 147 1205 c 1,30,-1
 927 1205 l 1,31,-1
 960 1167 l 1,0,1
EndSplineSet
EndChar

StartChar: eight
Encoding: 56 56 27
Width: 1036
GlyphClass: 2
Flags: W
AnchorPoint: "Anchor-4" 1036 900 basechar 0
AnchorPoint: "Anchor-3" 518 -100 basechar 0
AnchorPoint: "Anchor-2" 518 -100 basechar 0
AnchorPoint: "Anchor-1" 518 -100 basechar 0
AnchorPoint: "Anchor-0" 518 1370 basechar 0
LayerCount: 2
Fore
SplineSet
358 950 m 0,0,1
 358 912 358 912 375 883.5 c 128,-1,2
 392 855 392 855 421.5 832 c 128,-1,3
 451 809 451 809 490 790 c 128,-1,4
 529 771 529 771 573 752 c 1,5,6
 660 843 660 843 660 938 c 0,7,8
 660 990 660 990 646 1025 c 128,-1,9
 632 1060 632 1060 609.5 1081 c 128,-1,10
 587 1102 587 1102 557.5 1110.5 c 128,-1,11
 528 1119 528 1119 496 1119 c 0,12,13
 463 1119 463 1119 437 1105 c 128,-1,14
 411 1091 411 1091 393.5 1068 c 128,-1,15
 376 1045 376 1045 367 1014.5 c 128,-1,16
 358 984 358 984 358 950 c 0,0,1
700 309 m 0,17,18
 700 367 700 367 681 409.5 c 128,-1,19
 662 452 662 452 629.5 484 c 128,-1,20
 597 516 597 516 554.5 539.5 c 128,-1,21
 512 563 512 563 466 583 c 1,22,23
 434 552 434 552 409.5 521.5 c 128,-1,24
 385 491 385 491 369 459 c 128,-1,25
 353 427 353 427 345 391.5 c 128,-1,26
 337 356 337 356 337 315 c 0,27,28
 337 263 337 263 353 221.5 c 128,-1,29
 369 180 369 180 396 151.5 c 128,-1,30
 423 123 423 123 458 108 c 128,-1,31
 493 93 493 93 530 93 c 0,32,33
 571 93 571 93 603 110.5 c 128,-1,34
 635 128 635 128 656.5 157.5 c 128,-1,35
 678 187 678 187 689 226 c 128,-1,36
 700 265 700 265 700 309 c 0,17,18
957 352 m 0,37,38
 957 274 957 274 921.5 205 c 128,-1,39
 886 136 886 136 823.5 83.5 c 128,-1,40
 761 31 761 31 677 0.5 c 128,-1,41
 593 -30 593 -30 496 -30 c 0,42,43
 394 -30 394 -30 316 -4 c 128,-1,44
 238 22 238 22 185.5 66 c 128,-1,45
 133 110 133 110 106 166.5 c 128,-1,46
 79 223 79 223 79 285 c 0,47,48
 79 337 79 337 99 386 c 128,-1,49
 119 435 119 435 155.5 479 c 128,-1,50
 192 523 192 523 242.5 562 c 128,-1,51
 293 601 293 601 353 632 c 1,52,53
 308 653 308 653 268 677 c 128,-1,54
 228 701 228 701 197 734 c 128,-1,55
 166 767 166 767 148 811 c 128,-1,56
 130 855 130 855 130 915 c 0,57,58
 130 984 130 984 161.5 1043 c 128,-1,59
 193 1102 193 1102 247.5 1144.5 c 128,-1,60
 302 1187 302 1187 375 1211 c 128,-1,61
 448 1235 448 1235 532 1235 c 0,62,63
 627 1235 627 1235 697.5 1215 c 128,-1,64
 768 1195 768 1195 814.5 1160 c 128,-1,65
 861 1125 861 1125 884 1076 c 128,-1,66
 907 1027 907 1027 907 969 c 0,67,68
 907 930 907 930 890.5 894 c 128,-1,69
 874 858 874 858 845 825 c 128,-1,70
 816 792 816 792 776.5 761.5 c 128,-1,71
 737 731 737 731 691 701 c 1,72,73
 743 677 743 677 791 647 c 128,-1,74
 839 617 839 617 876 576 c 128,-1,75
 913 535 913 535 935 480 c 128,-1,76
 957 425 957 425 957 352 c 0,37,38
EndSplineSet
EndChar

StartChar: nine
Encoding: 57 57 28
Width: 1036
GlyphClass: 2
Flags: W
AnchorPoint: "Anchor-4" 1036 900 basechar 0
AnchorPoint: "Anchor-3" 518 -100 basechar 0
AnchorPoint: "Anchor-2" 518 -100 basechar 0
AnchorPoint: "Anchor-1" 518 -100 basechar 0
AnchorPoint: "Anchor-0" 518 1370 basechar 0
LayerCount: 2
Fore
SplineSet
511 570 m 0,0,1
 568 570 568 570 616.5 599.5 c 128,-1,2
 665 629 665 629 703 674 c 1,3,4
 701 810 701 810 683 894.5 c 128,-1,5
 665 979 665 979 638 1026.5 c 128,-1,6
 611 1074 611 1074 577.5 1091 c 128,-1,7
 544 1108 544 1108 510 1108 c 0,8,9
 426 1108 426 1108 379.5 1041.5 c 128,-1,10
 333 975 333 975 333 856 c 0,11,12
 333 772 333 772 351.5 717 c 128,-1,13
 370 662 370 662 397 629 c 128,-1,14
 424 596 424 596 455 583 c 128,-1,15
 486 570 486 570 511 570 c 0,0,1
960 731 m 0,16,17
 960 579 960 579 913 447.5 c 128,-1,18
 866 316 866 316 771.5 214.5 c 128,-1,19
 677 113 677 113 535.5 46 c 128,-1,20
 394 -21 394 -21 205 -43 c 1,21,-1
 180 46 l 1,22,23
 319 80 319 80 414 129 c 128,-1,24
 509 178 509 178 568.5 239.5 c 128,-1,25
 628 301 628 301 658 374.5 c 128,-1,26
 688 448 688 448 697 532 c 1,27,28
 645 481 645 481 581 452 c 128,-1,29
 517 423 517 423 446 423 c 0,30,31
 358 423 358 423 290.5 453 c 128,-1,32
 223 483 223 483 177.5 534 c 128,-1,33
 132 585 132 585 108.5 652.5 c 128,-1,34
 85 720 85 720 85 795 c 0,35,36
 85 845 85 845 100 897.5 c 128,-1,37
 115 950 115 950 143 999 c 128,-1,38
 171 1048 171 1048 211 1091 c 128,-1,39
 251 1134 251 1134 301 1166 c 128,-1,40
 351 1198 351 1198 410.5 1216.5 c 128,-1,41
 470 1235 470 1235 536 1235 c 0,42,43
 628 1235 628 1235 706 1206 c 128,-1,44
 784 1177 784 1177 840.5 1115.5 c 128,-1,45
 897 1054 897 1054 928.5 959 c 128,-1,46
 960 864 960 864 960 731 c 0,16,17
EndSplineSet
EndChar

StartChar: colon
Encoding: 58 58 29
Width: 552
Flags: W
LayerCount: 2
Fore
SplineSet
459 825 m 0,0,1
 459 785 459 785 444.5 753 c 128,-1,2
 430 721 430 721 405.5 699 c 128,-1,3
 381 677 381 677 347.5 665.5 c 128,-1,4
 314 654 314 654 276 654 c 0,5,6
 247 654 247 654 220.5 661.5 c 128,-1,7
 194 669 194 669 174 685.5 c 128,-1,8
 154 702 154 702 142.5 727.5 c 128,-1,9
 131 753 131 753 131 789 c 0,10,11
 131 828 131 828 146 860 c 128,-1,12
 161 892 161 892 186.5 914 c 128,-1,13
 212 936 212 936 245.5 948 c 128,-1,14
 279 960 279 960 315 960 c 0,15,16
 343 960 343 960 369 952 c 128,-1,17
 395 944 395 944 415 927.5 c 128,-1,18
 435 911 435 911 447 885.5 c 128,-1,19
 459 860 459 860 459 825 c 0,0,1
459 131 m 0,20,21
 459 91 459 91 444.5 59 c 128,-1,22
 430 27 430 27 405.5 5 c 128,-1,23
 381 -17 381 -17 347.5 -28.5 c 128,-1,24
 314 -40 314 -40 276 -40 c 0,25,26
 247 -40 247 -40 220.5 -32.5 c 128,-1,27
 194 -25 194 -25 174 -8.5 c 128,-1,28
 154 8 154 8 142.5 33.5 c 128,-1,29
 131 59 131 59 131 95 c 0,30,31
 131 134 131 134 146 166 c 128,-1,32
 161 198 161 198 186.5 220 c 128,-1,33
 212 242 212 242 245.5 254 c 128,-1,34
 279 266 279 266 315 266 c 0,35,36
 343 266 343 266 369 258 c 128,-1,37
 395 250 395 250 415 233.5 c 128,-1,38
 435 217 435 217 447 191.5 c 128,-1,39
 459 166 459 166 459 131 c 0,20,21
EndSplineSet
EndChar

StartChar: less
Encoding: 60 60 31
Width: 930
Flags: W
LayerCount: 2
Fore
SplineSet
877 333 m 1,0,1
 855 313 855 313 828.5 286.5 c 128,-1,2
 802 260 802 260 771 241 c 1,3,-1
 85 487 l 1,4,-1
 53 526 l 1,5,-1
 56 538 l 1,6,-1
 61 556 l 1,7,-1
 71 590 l 2,8,9
 73 598 73 598 76 606 c 128,-1,10
 79 614 79 614 81 621 c 0,11,12
 82 624 82 624 82.5 627.5 c 128,-1,13
 83 631 83 631 85 633 c 1,14,-1
 91 648 l 1,15,-1
 845 920 l 1,16,-1
 877 888 l 1,17,18
 874 877 874 877 869.5 859.5 c 128,-1,19
 865 842 865 842 859.5 822.5 c 128,-1,20
 854 803 854 803 849 785.5 c 128,-1,21
 844 768 844 768 841 759 c 1,22,-1
 312 569 l 1,23,-1
 853 376 l 1,24,-1
 877 333 l 1,0,1
EndSplineSet
EndChar

StartChar: equal
Encoding: 61 61 32
Width: 930
Flags: W
LayerCount: 2
Fore
SplineSet
877 452 m 1,0,1
 874 441 874 441 868 425.5 c 128,-1,2
 862 410 862 410 855 394 c 128,-1,3
 848 378 848 378 841.5 363.5 c 128,-1,4
 835 349 835 349 832 340 c 1,5,-1
 85 340 l 1,6,-1
 53 372 l 1,7,8
 56 383 56 383 61.5 398 c 128,-1,9
 67 413 67 413 74 429 c 128,-1,10
 81 445 81 445 87.5 459.5 c 128,-1,11
 94 474 94 474 99 484 c 1,12,-1
 845 484 l 1,13,-1
 877 452 l 1,0,1
877 752 m 1,14,15
 874 741 874 741 868 725.5 c 128,-1,16
 862 710 862 710 855 693.5 c 128,-1,17
 848 677 848 677 841.5 662.5 c 128,-1,18
 835 648 835 648 832 640 c 1,19,-1
 85 640 l 1,20,-1
 53 672 l 1,21,22
 56 682 56 682 61.5 697.5 c 128,-1,23
 67 713 67 713 74 729 c 128,-1,24
 81 745 81 745 87.5 759.5 c 128,-1,25
 94 774 94 774 99 784 c 1,26,-1
 845 784 l 1,27,-1
 877 752 l 1,14,15
EndSplineSet
EndChar

StartChar: greater
Encoding: 62 62 33
Width: 930
Flags: W
LayerCount: 2
Fore
SplineSet
877 635 m 1,0,1
 874 622 874 622 869.5 606 c 128,-1,2
 865 590 865 590 859.5 573.5 c 128,-1,3
 854 557 854 557 848.5 541 c 128,-1,4
 843 525 843 525 839 513 c 1,5,-1
 85 241 l 1,6,-1
 53 274 l 1,7,8
 56 284 56 284 60.5 302 c 128,-1,9
 65 320 65 320 70.5 339 c 128,-1,10
 76 358 76 358 81.5 375.5 c 128,-1,11
 87 393 87 393 90 402 c 1,12,-1
 616 592 l 1,13,-1
 77 785 l 1,14,-1
 53 829 l 1,15,16
 75 849 75 849 103.5 875.5 c 128,-1,17
 132 902 132 902 159 920 c 1,18,-1
 845 675 l 1,19,-1
 877 635 l 1,0,1
EndSplineSet
EndChar

StartChar: question
Encoding: 63 63 34
Width: 932
Flags: W
LayerCount: 2
Fore
SplineSet
866 1165 m 0,0,1
 866 1090 866 1090 840.5 1028.5 c 128,-1,2
 815 967 815 967 776.5 913.5 c 128,-1,3
 738 860 738 860 692.5 812 c 128,-1,4
 647 764 647 764 607 716 c 128,-1,5
 567 668 567 668 539 617.5 c 128,-1,6
 511 567 511 567 507 508 c 2,7,-1
 501 412 l 1,8,9
 482 398 482 398 456 388.5 c 128,-1,10
 430 379 430 379 402 371 c 1,11,-1
 370 399 l 1,12,-1
 362 508 l 1,13,14
 359 565 359 565 376 620 c 128,-1,15
 393 675 393 675 420 727 c 128,-1,16
 447 779 447 779 479 829 c 128,-1,17
 511 879 511 879 539 928 c 128,-1,18
 567 977 567 977 586 1024.5 c 128,-1,19
 605 1072 605 1072 605 1120 c 0,20,21
 605 1244 605 1244 564.5 1303 c 128,-1,22
 524 1362 524 1362 454 1362 c 0,23,24
 429 1362 429 1362 406 1349 c 128,-1,25
 383 1336 383 1336 365.5 1313 c 128,-1,26
 348 1290 348 1290 337.5 1257.5 c 128,-1,27
 327 1225 327 1225 327 1186 c 0,28,29
 327 1172 327 1172 330.5 1153.5 c 128,-1,30
 334 1135 334 1135 339 1121 c 1,31,32
 323 1113 323 1113 292 1103 c 128,-1,33
 261 1093 261 1093 226.5 1084.5 c 128,-1,34
 192 1076 192 1076 158 1069 c 128,-1,35
 124 1062 124 1062 102 1060 c 1,36,-1
 67 1098 l 1,37,38
 65 1106 65 1106 65 1122 c 2,39,-1
 65 1146 l 2,40,41
 65 1216 65 1216 102.5 1277 c 128,-1,42
 140 1338 140 1338 203.5 1383 c 128,-1,43
 267 1428 267 1428 350 1454 c 128,-1,44
 433 1480 433 1480 525 1480 c 0,45,46
 607 1480 607 1480 671 1457 c 128,-1,47
 735 1434 735 1434 778 1392.5 c 128,-1,48
 821 1351 821 1351 843.5 1293 c 128,-1,49
 866 1235 866 1235 866 1165 c 0,0,1
608 131 m 0,50,51
 608 91 608 91 593.5 59 c 128,-1,52
 579 27 579 27 554.5 5 c 128,-1,53
 530 -17 530 -17 496.5 -28.5 c 128,-1,54
 463 -40 463 -40 425 -40 c 0,55,56
 396 -40 396 -40 369.5 -32.5 c 128,-1,57
 343 -25 343 -25 323 -8.5 c 128,-1,58
 303 8 303 8 291.5 33.5 c 128,-1,59
 280 59 280 59 280 95 c 0,60,61
 280 134 280 134 295 166 c 128,-1,62
 310 198 310 198 335.5 220 c 128,-1,63
 361 242 361 242 394.5 254 c 128,-1,64
 428 266 428 266 464 266 c 0,65,66
 492 266 492 266 518 258 c 128,-1,67
 544 250 544 250 564 233.5 c 128,-1,68
 584 217 584 217 596 191.5 c 128,-1,69
 608 166 608 166 608 131 c 0,50,51
EndSplineSet
EndChar

StartChar: at
Encoding: 64 64 35
Width: 1796
Flags: W
LayerCount: 2
Fore
SplineSet
1044 731 m 1,0,1
 1022 776 1022 776 994.5 802 c 128,-1,2
 967 828 967 828 918 828 c 0,3,4
 830 828 830 828 784 741.5 c 128,-1,5
 738 655 738 655 738 468 c 0,6,7
 738 383 738 383 752 324 c 128,-1,8
 766 265 766 265 788.5 228.5 c 128,-1,9
 811 192 811 192 838.5 176 c 128,-1,10
 866 160 866 160 893 160 c 0,11,12
 912 160 912 160 928.5 165 c 128,-1,13
 945 170 945 170 961.5 183.5 c 128,-1,14
 978 197 978 197 997.5 220.5 c 128,-1,15
 1017 244 1017 244 1044 280 c 1,16,-1
 1044 731 l 1,0,1
1711 572 m 0,17,18
 1711 487 1711 487 1691 409.5 c 128,-1,19
 1671 332 1671 332 1636 265 c 128,-1,20
 1601 198 1601 198 1553.5 143.5 c 128,-1,21
 1506 89 1506 89 1451 50.5 c 128,-1,22
 1396 12 1396 12 1336.5 -9 c 128,-1,23
 1277 -30 1277 -30 1217 -30 c 0,24,25
 1187 -30 1187 -30 1161 -22 c 128,-1,26
 1135 -14 1135 -14 1113.5 4.5 c 128,-1,27
 1092 23 1092 23 1076 54 c 128,-1,28
 1060 85 1060 85 1050 132 c 1,29,30
 1009 84 1009 84 978.5 52.5 c 128,-1,31
 948 21 948 21 920 2.5 c 128,-1,32
 892 -16 892 -16 862 -23 c 128,-1,33
 832 -30 832 -30 792 -30 c 0,34,35
 741 -30 741 -30 688.5 -2 c 128,-1,36
 636 26 636 26 594 83.5 c 128,-1,37
 552 141 552 141 525 229 c 128,-1,38
 498 317 498 317 498 437 c 0,39,40
 498 500 498 500 511 563 c 128,-1,41
 524 626 524 626 549.5 684.5 c 128,-1,42
 575 743 575 743 612.5 793 c 128,-1,43
 650 843 650 843 698.5 880.5 c 128,-1,44
 747 918 747 918 806 939 c 128,-1,45
 865 960 865 960 934 960 c 0,46,47
 957 960 957 960 977 956.5 c 128,-1,48
 997 953 997 953 1017 943.5 c 128,-1,49
 1037 934 1037 934 1058 916 c 128,-1,50
 1079 898 1079 898 1103 869 c 1,51,52
 1158 888 1158 888 1198.5 908.5 c 128,-1,53
 1239 929 1239 929 1283 960 c 1,54,-1
 1314 930 l 1,55,56
 1305 895 1305 895 1299 857 c 0,57,58
 1293 825 1293 825 1288.5 784 c 128,-1,59
 1284 743 1284 743 1284 701 c 2,60,-1
 1284 285 l 2,61,62
 1284 224 1284 224 1298 193 c 128,-1,63
 1312 162 1312 162 1355 162 c 0,64,65
 1380 162 1380 162 1408.5 185 c 128,-1,66
 1437 208 1437 208 1461 252.5 c 128,-1,67
 1485 297 1485 297 1500.5 362.5 c 128,-1,68
 1516 428 1516 428 1516 512 c 0,69,70
 1516 683 1516 683 1474 810.5 c 128,-1,71
 1432 938 1432 938 1356 1022.5 c 128,-1,72
 1280 1107 1280 1107 1173.5 1149 c 128,-1,73
 1067 1191 1067 1191 938 1191 c 0,74,75
 785 1191 785 1191 667.5 1137.5 c 128,-1,76
 550 1084 550 1084 470.5 993 c 128,-1,77
 391 902 391 902 350.5 780.5 c 128,-1,78
 310 659 310 659 310 524 c 0,79,80
 310 335 310 335 362.5 192 c 128,-1,81
 415 49 415 49 505.5 -47 c 128,-1,82
 596 -143 596 -143 718 -191.5 c 128,-1,83
 840 -240 840 -240 978 -240 c 0,84,85
 1074 -240 1074 -240 1158 -222.5 c 128,-1,86
 1242 -205 1242 -205 1311 -179 c 128,-1,87
 1380 -153 1380 -153 1431.5 -123 c 128,-1,88
 1483 -93 1483 -93 1513 -67 c 1,89,-1
 1560 -154 l 1,90,91
 1524 -195 1524 -195 1466.5 -240.5 c 128,-1,92
 1409 -286 1409 -286 1330.5 -324 c 128,-1,93
 1252 -362 1252 -362 1151.5 -387.5 c 128,-1,94
 1051 -413 1051 -413 929 -413 c 0,95,96
 743 -413 743 -413 588 -353 c 128,-1,97
 433 -293 433 -293 321 -180 c 128,-1,98
 209 -67 209 -67 147 96 c 128,-1,99
 85 259 85 259 85 465 c 0,100,101
 85 586 85 586 116.5 699.5 c 128,-1,102
 148 813 148 813 205.5 912.5 c 128,-1,103
 263 1012 263 1012 344 1095 c 128,-1,104
 425 1178 425 1178 524 1237.5 c 128,-1,105
 623 1297 623 1297 737.5 1330 c 128,-1,106
 852 1363 852 1363 977 1363 c 0,107,108
 1140 1363 1140 1363 1275 1314.5 c 128,-1,109
 1410 1266 1410 1266 1507 1167.5 c 128,-1,110
 1604 1069 1604 1069 1657.5 920.5 c 128,-1,111
 1711 772 1711 772 1711 572 c 0,17,18
EndSplineSet
EndChar

StartChar: A
Encoding: 65 65 36
Width: 1287
GlyphClass: 2
Flags: W
AnchorPoint: "Anchor-4" 1287 900 basechar 0
AnchorPoint: "Anchor-3" 1014 0 basechar 0
AnchorPoint: "Anchor-2" 1056 0 basechar 0
AnchorPoint: "Anchor-1" 633 -100 basechar 0
AnchorPoint: "Anchor-0" 633 1370 basechar 0
LayerCount: 2
Fore
SplineSet
747 550 m 1,0,-1
 582 1015 l 1,1,-1
 432 550 l 1,2,-1
 747 550 l 1,0,-1
392 430 m 1,3,-1
 296 141 l 2,4,5
 286 110 286 110 320.5 96 c 128,-1,6
 355 82 355 82 437 73 c 1,7,-1
 437 0 l 1,8,-1
 0 0 l 1,9,-1
 0 73 l 1,10,11
 68 85 68 85 104.5 98 c 128,-1,12
 141 111 141 111 151 141 c 2,13,-1
 500 1207 l 1,14,15
 524 1227 524 1227 551.5 1244 c 128,-1,16
 579 1261 579 1261 608.5 1274.5 c 128,-1,17
 638 1288 638 1288 667 1298.5 c 128,-1,18
 696 1309 696 1309 722 1317 c 1,19,-1
 1142 141 l 2,20,21
 1147 127 1147 127 1155 116 c 128,-1,22
 1163 105 1163 105 1177 97 c 128,-1,23
 1191 89 1191 89 1212.5 83 c 128,-1,24
 1234 77 1234 77 1266 73 c 1,25,-1
 1266 0 l 1,26,-1
 769 0 l 1,27,-1
 769 73 l 1,28,29
 847 78 847 78 874.5 93 c 128,-1,30
 902 108 902 108 891 141 c 2,31,-1
 789 430 l 1,32,-1
 392 430 l 1,3,-1
EndSplineSet
EndChar

StartChar: B
Encoding: 66 66 37
Width: 1231
GlyphClass: 2
Flags: W
AnchorPoint: "Anchor-4" 1231 900 basechar 0
AnchorPoint: "Anchor-3" 579 -100 basechar 0
AnchorPoint: "Anchor-2" 579 -100 basechar 0
AnchorPoint: "Anchor-1" 579 -100 basechar 0
AnchorPoint: "Anchor-0" 579 1370 basechar 0
LayerCount: 2
Fore
SplineSet
1129 356 m 0,0,1
 1129 271 1129 271 1093.5 202.5 c 128,-1,2
 1058 134 1058 134 991 86 c 128,-1,3
 924 38 924 38 828.5 12 c 128,-1,4
 733 -14 733 -14 612 -14 c 0,5,6
 590 -14 590 -14 557.5 -13.5 c 128,-1,7
 525 -13 525 -13 486.5 -12 c 128,-1,8
 448 -11 448 -11 406 -10 c 128,-1,9
 364 -9 364 -9 324 -7 c 0,10,11
 229 -4 229 -4 123 0 c 1,12,-1
 43 0 l 1,13,-1
 43 73 l 1,14,15
 111 87 111 87 145.5 103.5 c 128,-1,16
 180 120 180 120 180 134 c 2,17,-1
 180 1165 l 1,18,19
 142 1161 142 1161 107 1156 c 128,-1,20
 72 1151 72 1151 43 1146 c 1,21,-1
 30 1230 l 1,22,23
 75 1241 75 1241 136 1251.5 c 128,-1,24
 197 1262 197 1262 264.5 1270.5 c 128,-1,25
 332 1279 332 1279 400.5 1284.5 c 128,-1,26
 469 1290 469 1290 529 1290 c 0,27,28
 644 1290 644 1290 734.5 1271.5 c 128,-1,29
 825 1253 825 1253 888 1218 c 128,-1,30
 951 1183 951 1183 984.5 1133 c 128,-1,31
 1018 1083 1018 1083 1018 1020 c 0,32,33
 1018 912 1018 912 960 835 c 128,-1,34
 902 758 902 758 790 723 c 1,35,36
 865 711 865 711 927.5 678 c 128,-1,37
 990 645 990 645 1034.5 596.5 c 128,-1,38
 1079 548 1079 548 1104 486.5 c 128,-1,39
 1129 425 1129 425 1129 356 c 0,0,1
565 639 m 0,40,41
 519 639 519 639 489 635 c 128,-1,42
 459 631 459 631 430 626 c 1,43,-1
 430 127 l 2,44,45
 430 120 430 120 435 114 c 1,46,47
 464 102 464 102 499.5 97.5 c 128,-1,48
 535 93 535 93 575 93 c 0,49,50
 720 93 720 93 793.5 158.5 c 128,-1,51
 867 224 867 224 867 337 c 0,52,53
 867 392 867 392 852.5 446 c 128,-1,54
 838 500 838 500 803 543 c 128,-1,55
 768 586 768 586 710 612.5 c 128,-1,56
 652 639 652 639 565 639 c 0,40,41
466 1184 m 2,57,-1
 449 1184 l 2,58,59
 440 1184 440 1184 430 1183 c 1,60,-1
 430 740 l 1,61,-1
 449 740 l 2,62,63
 549 740 549 740 610.5 760 c 128,-1,64
 672 780 672 780 706.5 812.5 c 128,-1,65
 741 845 741 845 753 886.5 c 128,-1,66
 765 928 765 928 765 971 c 0,67,68
 765 1021 765 1021 750.5 1060.5 c 128,-1,69
 736 1100 736 1100 701 1127.5 c 128,-1,70
 666 1155 666 1155 608.5 1169.5 c 128,-1,71
 551 1184 551 1184 466 1184 c 2,57,-1
EndSplineSet
EndChar

StartChar: C
Encoding: 67 67 38
Width: 1143
GlyphClass: 2
Flags: W
AnchorPoint: "Anchor-4" 1143 900 basechar 0
AnchorPoint: "Anchor-3" 637 -100 basechar 0
AnchorPoint: "Anchor-2" 605 0 basechar 0
AnchorPoint: "Anchor-1" 637 -100 basechar 0
AnchorPoint: "Anchor-0" 637 1370 basechar 0
LayerCount: 2
Fore
SplineSet
1071 211 m 1,0,1
 1007 146 1007 146 945 100 c 128,-1,2
 883 54 883 54 822 25 c 128,-1,3
 761 -4 761 -4 702 -17 c 128,-1,4
 643 -30 643 -30 586 -30 c 0,5,6
 485 -30 485 -30 389.5 12 c 128,-1,7
 294 54 294 54 219.5 133 c 128,-1,8
 145 212 145 212 100 326.5 c 128,-1,9
 55 441 55 441 55 586 c 0,10,11
 55 746 55 746 104 876 c 128,-1,12
 153 1006 153 1006 239 1098.5 c 128,-1,13
 325 1191 325 1191 441 1241 c 128,-1,14
 557 1291 557 1291 691 1290 c 0,15,16
 745 1290 745 1290 798 1282 c 128,-1,17
 851 1274 851 1274 899 1260.5 c 128,-1,18
 947 1247 947 1247 986.5 1229 c 128,-1,19
 1026 1211 1026 1211 1052 1190 c 0,20,21
 1056 1187 1056 1187 1051.5 1172 c 128,-1,22
 1047 1157 1047 1157 1038 1136 c 128,-1,23
 1029 1115 1029 1115 1016.5 1090.5 c 128,-1,24
 1004 1066 1004 1066 991 1043.5 c 128,-1,25
 978 1021 978 1021 966.5 1003 c 128,-1,26
 955 985 955 985 947 977 c 1,27,-1
 882 991 l 1,28,29
 831 1079 831 1079 765.5 1118.5 c 128,-1,30
 700 1158 700 1158 622 1158 c 0,31,32
 588 1158 588 1158 551.5 1147 c 128,-1,33
 515 1136 515 1136 480 1111 c 128,-1,34
 445 1086 445 1086 413.5 1045.5 c 128,-1,35
 382 1005 382 1005 358.5 946 c 128,-1,36
 335 887 335 887 321.5 807 c 128,-1,37
 308 727 308 727 308 623 c 0,38,39
 308 495 308 495 341.5 403 c 128,-1,40
 375 311 375 311 428.5 251.5 c 128,-1,41
 482 192 482 192 548.5 163.5 c 128,-1,42
 615 135 615 135 681 135 c 0,43,44
 708 135 708 135 744.5 141 c 128,-1,45
 781 147 781 147 824.5 163.5 c 128,-1,46
 868 180 868 180 917 207.5 c 128,-1,47
 966 235 966 235 1019 279 c 1,48,49
 1024 275 1024 275 1032 265 c 128,-1,50
 1040 255 1040 255 1047.5 244 c 128,-1,51
 1055 233 1055 233 1061.5 223.5 c 128,-1,52
 1068 214 1068 214 1071 211 c 1,0,1
EndSplineSet
EndChar

StartChar: D
Encoding: 68 68 39
Width: 1304
GlyphClass: 2
Flags: W
AnchorPoint: "Anchor-4" 1304 900 basechar 0
AnchorPoint: "Anchor-3" 590 -100 basechar 0
AnchorPoint: "Anchor-2" 590 -100 basechar 0
AnchorPoint: "Anchor-1" 590 -100 basechar 0
AnchorPoint: "Anchor-0" 590 1370 basechar 0
LayerCount: 2
Fore
SplineSet
1221 676 m 0,0,1
 1221 551 1221 551 1195.5 452.5 c 128,-1,2
 1170 354 1170 354 1126 278.5 c 128,-1,3
 1082 203 1082 203 1023 150.5 c 128,-1,4
 964 98 964 98 897 64.5 c 128,-1,5
 830 31 830 31 758.5 15.5 c 128,-1,6
 687 0 687 0 619 0 c 2,7,-1
 43 0 l 1,8,-1
 43 73 l 1,9,10
 111 87 111 87 145.5 103.5 c 128,-1,11
 180 120 180 120 180 134 c 2,12,-1
 180 1157 l 1,13,-1
 43 1138 l 1,14,-1
 30 1230 l 1,15,16
 79 1242 79 1242 146.5 1253 c 128,-1,17
 214 1264 214 1264 288.5 1272.5 c 128,-1,18
 363 1281 363 1281 438 1285.5 c 128,-1,19
 513 1290 513 1290 578 1290 c 0,20,21
 731 1290 731 1290 851 1248.5 c 128,-1,22
 971 1207 971 1207 1053 1128 c 128,-1,23
 1135 1049 1135 1049 1178 935 c 128,-1,24
 1221 821 1221 821 1221 676 c 0,0,1
506 1184 m 0,25,26
 488 1184 488 1184 469 1183.5 c 128,-1,27
 450 1183 450 1183 430 1182 c 1,28,-1
 430 167 l 2,29,30
 430 160 430 160 432 153 c 0,31,32
 435 142 435 142 443 133.5 c 128,-1,33
 451 125 451 125 468 119 c 128,-1,34
 485 113 485 113 512.5 110 c 128,-1,35
 540 107 540 107 582 107 c 0,36,37
 620 107 620 107 662.5 120 c 128,-1,38
 705 133 705 133 746.5 161 c 128,-1,39
 788 189 788 189 825.5 231.5 c 128,-1,40
 863 274 863 274 891 333 c 128,-1,41
 919 392 919 392 936 467.5 c 128,-1,42
 953 543 953 543 953 637 c 0,43,44
 953 770 953 770 924 872 c 128,-1,45
 895 974 895 974 838.5 1043.5 c 128,-1,46
 782 1113 782 1113 698.5 1148.5 c 128,-1,47
 615 1184 615 1184 506 1184 c 0,25,26
EndSplineSet
EndChar

StartChar: E
Encoding: 69 69 40
Width: 1076
GlyphClass: 2
Flags: W
AnchorPoint: "Anchor-4" 1076 900 basechar 0
AnchorPoint: "Anchor-3" 806 0 basechar 0
AnchorPoint: "Anchor-2" 536 0 basechar 0
AnchorPoint: "Anchor-1" 536 -100 basechar 0
AnchorPoint: "Anchor-0" 536 1370 basechar 0
LayerCount: 2
Fore
SplineSet
1029 304 m 1,0,1
 1025 261 1025 261 1020 213.5 c 128,-1,2
 1015 166 1015 166 1009 123.5 c 128,-1,3
 1003 81 1003 81 997.5 48 c 128,-1,4
 992 15 992 15 988 0 c 1,5,-1
 43 0 l 1,6,-1
 43 73 l 1,7,8
 111 87 111 87 145.5 103.5 c 128,-1,9
 180 120 180 120 180 134 c 2,10,-1
 180 1125 l 2,11,12
 180 1137 180 1137 147.5 1155 c 128,-1,13
 115 1173 115 1173 43 1187 c 1,14,-1
 43 1260 l 1,15,-1
 924 1260 l 1,16,-1
 964 1228 l 1,17,18
 962 1202 962 1202 958 1163 c 128,-1,19
 954 1124 954 1124 948 1083 c 128,-1,20
 942 1042 942 1042 935.5 1005.5 c 128,-1,21
 929 969 929 969 923 950 c 1,22,-1
 848 950 l 1,23,24
 843 1043 843 1043 823 1091.5 c 128,-1,25
 803 1140 803 1140 766 1140 c 2,26,-1
 430 1140 l 1,27,-1
 430 735 l 1,28,-1
 828 735 l 1,29,-1
 861 700 l 1,30,31
 853 686 853 686 841.5 667.5 c 128,-1,32
 830 649 830 649 817.5 631 c 128,-1,33
 805 613 805 613 792.5 597.5 c 128,-1,34
 780 582 780 582 769 574 c 1,35,36
 754 589 754 589 736.5 599 c 128,-1,37
 719 609 719 609 696.5 616 c 128,-1,38
 674 623 674 623 643.5 626 c 128,-1,39
 613 629 613 629 571 629 c 2,40,-1
 430 629 l 1,41,-1
 430 184 l 2,42,43
 430 169 430 169 437 157.5 c 128,-1,44
 444 146 444 146 466 137.5 c 128,-1,45
 488 129 488 129 528 124.5 c 128,-1,46
 568 120 568 120 634 120 c 2,47,-1
 733 120 l 2,48,49
 779 120 779 120 811.5 131 c 128,-1,50
 844 142 844 142 869 166.5 c 128,-1,51
 894 191 894 191 914.5 231 c 128,-1,52
 935 271 935 271 956 330 c 1,53,-1
 1029 304 l 1,0,1
EndSplineSet
EndChar

StartChar: F
Encoding: 70 70 41
Width: 1039
GlyphClass: 2
Flags: W
AnchorPoint: "Anchor-4" 1039 900 basechar 0
AnchorPoint: "Anchor-3" 507 -100 basechar 0
AnchorPoint: "Anchor-2" 507 -100 basechar 0
AnchorPoint: "Anchor-1" 507 -100 basechar 0
AnchorPoint: "Anchor-0" 507 1370 basechar 0
LayerCount: 2
Fore
SplineSet
43 0 m 1,0,-1
 43 73 l 1,1,2
 111 87 111 87 145.5 103.5 c 128,-1,3
 180 120 180 120 180 134 c 2,4,-1
 180 1125 l 2,5,6
 180 1137 180 1137 147.5 1155 c 128,-1,7
 115 1173 115 1173 43 1187 c 1,8,-1
 43 1260 l 1,9,-1
 934 1260 l 1,10,-1
 972 1228 l 1,11,12
 971 1202 971 1202 967 1163 c 128,-1,13
 963 1124 963 1124 957.5 1083 c 128,-1,14
 952 1042 952 1042 945.5 1005.5 c 128,-1,15
 939 969 939 969 933 950 c 1,16,-1
 856 950 l 1,17,18
 853 1043 853 1043 832.5 1091.5 c 128,-1,19
 812 1140 812 1140 774 1140 c 2,20,-1
 430 1140 l 1,21,-1
 430 735 l 1,22,-1
 797 735 l 1,23,-1
 833 700 l 1,24,25
 824 683 824 683 812 664 c 128,-1,26
 800 645 800 645 787 628 c 128,-1,27
 774 611 774 611 761.5 596.5 c 128,-1,28
 749 582 749 582 739 574 c 1,29,30
 724 589 724 589 707 599 c 128,-1,31
 690 609 690 609 667.5 616 c 128,-1,32
 645 623 645 623 614.5 626 c 128,-1,33
 584 629 584 629 542 629 c 2,34,-1
 430 629 l 1,35,-1
 430 134 l 2,36,37
 430 128 430 128 438 121 c 128,-1,38
 446 114 446 114 465 106.5 c 128,-1,39
 484 99 484 99 516.5 90.5 c 128,-1,40
 549 82 549 82 598 73 c 1,41,-1
 598 0 l 1,42,-1
 43 0 l 1,0,-1
EndSplineSet
EndChar

StartChar: G
Encoding: 71 71 42
Width: 1232
GlyphClass: 2
Flags: W
AnchorPoint: "Anchor-4" 1232 900 basechar 0
AnchorPoint: "Anchor-3" 657 -100 basechar 0
AnchorPoint: "Anchor-2" 635 0 basechar 0
AnchorPoint: "Anchor-1" 657 -100 basechar 0
AnchorPoint: "Anchor-0" 657 1370 basechar 0
LayerCount: 2
Fore
SplineSet
1095 1188 m 0,0,1
 1100 1184 1100 1184 1096 1169.5 c 128,-1,2
 1092 1155 1092 1155 1082.5 1135 c 128,-1,3
 1073 1115 1073 1115 1059.5 1091 c 128,-1,4
 1046 1067 1046 1067 1032.5 1045 c 128,-1,5
 1019 1023 1019 1023 1006 1006 c 128,-1,6
 993 989 993 989 984 981 c 1,7,-1
 921 995 l 1,8,9
 888 1043 888 1043 854.5 1076 c 128,-1,10
 821 1109 821 1109 785 1128.5 c 128,-1,11
 749 1148 749 1148 710 1156.5 c 128,-1,12
 671 1165 671 1165 628 1165 c 0,13,14
 603 1165 603 1165 569.5 1155 c 128,-1,15
 536 1145 536 1145 500.5 1121 c 128,-1,16
 465 1097 465 1097 430.5 1057 c 128,-1,17
 396 1017 396 1017 369 958.5 c 128,-1,18
 342 900 342 900 325 820.5 c 128,-1,19
 308 741 308 741 308 637 c 0,20,21
 308 503 308 503 339 407 c 128,-1,22
 370 311 370 311 421.5 249 c 128,-1,23
 473 187 473 187 539 157.5 c 128,-1,24
 605 128 605 128 676 128 c 0,25,26
 731 128 731 128 774.5 138 c 128,-1,27
 818 148 818 148 853 165 c 1,28,-1
 853 470 l 2,29,30
 853 481 853 481 849 491.5 c 128,-1,31
 845 502 845 502 829 512 c 128,-1,32
 813 522 813 522 780.5 532 c 128,-1,33
 748 542 748 542 692 552 c 1,34,-1
 692 625 l 1,35,-1
 1190 625 l 1,36,-1
 1190 552 l 1,37,38
 1133 538 1133 538 1113 515.5 c 128,-1,39
 1093 493 1093 493 1093 470 c 2,40,-1
 1093 169 l 1,41,42
 1019 108 1019 108 954.5 69.5 c 128,-1,43
 890 31 890 31 834 9 c 128,-1,44
 778 -13 778 -13 728 -21.5 c 128,-1,45
 678 -30 678 -30 633 -30 c 0,46,47
 560 -30 560 -30 489 -13.5 c 128,-1,48
 418 3 418 3 354 36.5 c 128,-1,49
 290 70 290 70 235 121 c 128,-1,50
 180 172 180 172 140 240 c 128,-1,51
 100 308 100 308 77.5 393.5 c 128,-1,52
 55 479 55 479 55 582 c 0,53,54
 55 748 55 748 108 879.5 c 128,-1,55
 161 1011 161 1011 255 1102.5 c 128,-1,56
 349 1194 349 1194 476 1242 c 128,-1,57
 603 1290 603 1290 752 1290 c 0,58,59
 785 1290 785 1290 830.5 1283 c 128,-1,60
 876 1276 876 1276 924 1263 c 128,-1,61
 972 1250 972 1250 1017.5 1231 c 128,-1,62
 1063 1212 1063 1212 1095 1188 c 0,0,1
EndSplineSet
EndChar

StartChar: H
Encoding: 72 72 43
Width: 1399
GlyphClass: 2
Flags: W
AnchorPoint: "Anchor-4" 1399 900 basechar 0
AnchorPoint: "Anchor-3" 690 -100 basechar 0
AnchorPoint: "Anchor-2" 276 0 basechar 0
AnchorPoint: "Anchor-1" 690 -100 basechar 0
AnchorPoint: "Anchor-0" 690 1370 basechar 0
LayerCount: 2
Fore
SplineSet
43 0 m 1,0,-1
 43 73 l 1,1,2
 111 87 111 87 145.5 103.5 c 128,-1,3
 180 120 180 120 180 134 c 2,4,-1
 180 1125 l 2,5,6
 180 1137 180 1137 147.5 1155 c 128,-1,7
 115 1173 115 1173 43 1187 c 1,8,-1
 43 1260 l 1,9,-1
 568 1260 l 1,10,-1
 568 1187 l 1,11,12
 500 1173 500 1173 465 1156 c 128,-1,13
 430 1139 430 1139 430 1125 c 2,14,-1
 430 720 l 1,15,-1
 950 720 l 1,16,-1
 950 1125 l 2,17,18
 950 1137 950 1137 917.5 1155 c 128,-1,19
 885 1173 885 1173 813 1187 c 1,20,-1
 813 1260 l 1,21,-1
 1338 1260 l 1,22,-1
 1338 1187 l 1,23,24
 1270 1173 1270 1173 1235 1156 c 128,-1,25
 1200 1139 1200 1139 1200 1125 c 2,26,-1
 1200 134 l 2,27,28
 1200 122 1200 122 1233 104.5 c 128,-1,29
 1266 87 1266 87 1338 73 c 1,30,-1
 1338 0 l 1,31,-1
 813 0 l 1,32,-1
 813 73 l 1,33,34
 881 87 881 87 915.5 103.5 c 128,-1,35
 950 120 950 120 950 134 c 2,36,-1
 950 600 l 1,37,-1
 430 600 l 1,38,-1
 430 134 l 2,39,40
 430 122 430 122 462.5 104.5 c 128,-1,41
 495 87 495 87 568 73 c 1,42,-1
 568 0 l 1,43,-1
 43 0 l 1,0,-1
EndSplineSet
EndChar

StartChar: I
Encoding: 73 73 44
Width: 670
GlyphClass: 2
Flags: W
AnchorPoint: "Anchor-4" 670 900 basechar 0
AnchorPoint: "Anchor-3" 383 0 basechar 0
AnchorPoint: "Anchor-2" 325 0 basechar 0
AnchorPoint: "Anchor-1" 325 -100 basechar 0
AnchorPoint: "Anchor-0" 325 1370 basechar 0
LayerCount: 2
Fore
SplineSet
63 0 m 1,0,-1
 63 73 l 1,1,2
 131 87 131 87 165.5 103.5 c 128,-1,3
 200 120 200 120 200 134 c 2,4,-1
 200 1125 l 2,5,6
 200 1137 200 1137 167.5 1155 c 128,-1,7
 135 1173 135 1173 63 1187 c 1,8,-1
 63 1260 l 1,9,-1
 588 1260 l 1,10,-1
 588 1187 l 1,11,12
 520 1173 520 1173 485 1156 c 128,-1,13
 450 1139 450 1139 450 1125 c 2,14,-1
 450 134 l 2,15,16
 450 122 450 122 483 104.5 c 128,-1,17
 516 87 516 87 588 73 c 1,18,-1
 588 0 l 1,19,-1
 63 0 l 1,0,-1
EndSplineSet
EndChar

StartChar: J
Encoding: 74 74 45
Width: 685
GlyphClass: 2
Flags: W
AnchorPoint: "Anchor-4" 685 900 basechar 0
AnchorPoint: "Anchor-3" 354 -600 basechar 0
AnchorPoint: "Anchor-2" 354 -600 basechar 0
AnchorPoint: "Anchor-1" 354 -600 basechar 0
AnchorPoint: "Anchor-0" 354 1370 basechar 0
LayerCount: 2
Fore
SplineSet
623 1187 m 1,0,1
 555 1173 555 1173 520 1156 c 128,-1,2
 485 1139 485 1139 485 1125 c 2,3,-1
 485 183 l 2,4,5
 485 73 485 73 463 -6 c 128,-1,6
 441 -85 441 -85 406.5 -142 c 128,-1,7
 372 -199 372 -199 330 -239 c 128,-1,8
 288 -279 288 -279 249 -311 c 0,9,10
 222 -333 222 -333 188.5 -352.5 c 128,-1,11
 155 -372 155 -372 119 -386.5 c 128,-1,12
 83 -401 83 -401 46 -409.5 c 128,-1,13
 9 -418 9 -418 -25 -418 c 0,14,15
 -70 -418 -70 -418 -113 -407.5 c 128,-1,16
 -156 -397 -156 -397 -189.5 -382 c 128,-1,17
 -223 -367 -223 -367 -244 -350.5 c 128,-1,18
 -265 -334 -265 -334 -265 -323 c 256,19,20
 -265 -312 -265 -312 -244 -287.5 c 128,-1,21
 -223 -263 -223 -263 -195 -237 c 128,-1,22
 -167 -211 -167 -211 -139 -189.5 c 128,-1,23
 -111 -168 -111 -168 -97 -163 c 1,24,25
 -41 -211 -41 -211 6.5 -230.5 c 128,-1,26
 54 -250 54 -250 92 -250 c 0,27,28
 118 -250 118 -250 143.5 -238 c 128,-1,29
 169 -226 169 -226 189.5 -187.5 c 128,-1,30
 210 -149 210 -149 222.5 -78 c 128,-1,31
 235 -7 235 -7 235 111 c 2,32,-1
 235 1125 l 2,33,34
 235 1131 235 1131 228.5 1138 c 128,-1,35
 222 1145 222 1145 201.5 1153 c 128,-1,36
 181 1161 181 1161 144.5 1169.5 c 128,-1,37
 108 1178 108 1178 48 1187 c 1,38,-1
 48 1260 l 1,39,-1
 623 1260 l 1,40,-1
 623 1187 l 1,0,1
EndSplineSet
EndChar

StartChar: K
Encoding: 75 75 46
Width: 1267
GlyphClass: 2
Flags: W
AnchorPoint: "Anchor-4" 1267 900 basechar 0
AnchorPoint: "Anchor-3" 653 -100 basechar 0
AnchorPoint: "Anchor-2" 287 0 basechar 0
AnchorPoint: "Anchor-1" 653 -100 basechar 0
AnchorPoint: "Anchor-0" 629 1370 basechar 0
LayerCount: 2
Fore
SplineSet
43 0 m 1,0,-1
 43 73 l 1,1,2
 111 87 111 87 145.5 103.5 c 128,-1,3
 180 120 180 120 180 134 c 2,4,-1
 180 1125 l 2,5,6
 180 1137 180 1137 147.5 1155 c 128,-1,7
 115 1173 115 1173 43 1187 c 1,8,-1
 43 1260 l 1,9,-1
 568 1260 l 1,10,-1
 568 1187 l 1,11,12
 500 1173 500 1173 465 1156 c 128,-1,13
 430 1139 430 1139 430 1125 c 2,14,-1
 430 659 l 1,15,-1
 802 1098 l 2,16,17
 825 1125 825 1125 834.5 1141 c 128,-1,18
 844 1157 844 1157 838.5 1166 c 128,-1,19
 833 1175 833 1175 811 1179.5 c 128,-1,20
 789 1184 789 1184 750 1187 c 1,21,-1
 750 1260 l 1,22,-1
 1200 1260 l 1,23,-1
 1200 1187 l 1,24,25
 1168 1183 1168 1183 1145.5 1179 c 128,-1,26
 1123 1175 1123 1175 1106 1168.5 c 128,-1,27
 1089 1162 1089 1162 1075 1151.5 c 128,-1,28
 1061 1141 1061 1141 1045 1125 c 2,29,-1
 616 676 l 1,30,-1
 1098 165 l 2,31,32
 1114 147 1114 147 1131 137.5 c 128,-1,33
 1148 128 1148 128 1167.5 124.5 c 128,-1,34
 1187 121 1187 121 1209 121.5 c 128,-1,35
 1231 122 1231 122 1257 125 c 1,36,-1
 1264 52 l 1,37,38
 1235 43 1235 43 1199 31.5 c 128,-1,39
 1163 20 1163 20 1127 10 c 128,-1,40
 1091 0 1091 0 1058 -7 c 128,-1,41
 1025 -14 1025 -14 1001 -14 c 0,42,43
 972 -14 972 -14 949.5 -5 c 128,-1,44
 927 4 927 4 907 29 c 2,45,-1
 430 625 l 1,46,-1
 430 134 l 2,47,48
 430 122 430 122 462.5 104.5 c 128,-1,49
 495 87 495 87 568 73 c 1,50,-1
 568 0 l 1,51,-1
 43 0 l 1,0,-1
EndSplineSet
EndChar

StartChar: L
Encoding: 76 76 47
Width: 1043
GlyphClass: 2
Flags: W
AnchorPoint: "Anchor-4" 818 900 basechar 0
AnchorPoint: "Anchor-3" 531 -100 basechar 0
AnchorPoint: "Anchor-2" 531 0 basechar 0
AnchorPoint: "Anchor-1" 531 -100 basechar 0
AnchorPoint: "Anchor-0" 498 1370 basechar 0
LayerCount: 2
Fore
SplineSet
1019 304 m 1,0,1
 1015 261 1015 261 1009.5 213.5 c 128,-1,2
 1004 166 1004 166 998.5 123.5 c 128,-1,3
 993 81 993 81 987.5 48 c 128,-1,4
 982 15 982 15 978 0 c 1,5,-1
 43 0 l 1,6,-1
 43 73 l 1,7,8
 111 87 111 87 145.5 103.5 c 128,-1,9
 180 120 180 120 180 134 c 2,10,-1
 180 1125 l 2,11,12
 180 1137 180 1137 147.5 1155 c 128,-1,13
 115 1173 115 1173 43 1187 c 1,14,-1
 43 1260 l 1,15,-1
 568 1260 l 1,16,-1
 568 1187 l 1,17,18
 500 1173 500 1173 465 1156 c 128,-1,19
 430 1139 430 1139 430 1125 c 2,20,-1
 430 194 l 2,21,22
 430 176 430 176 438.5 162.5 c 128,-1,23
 447 149 447 149 468 139.5 c 128,-1,24
 489 130 489 130 525 125 c 128,-1,25
 561 120 561 120 616 120 c 2,26,-1
 729 120 l 2,27,28
 775 120 775 120 806.5 131 c 128,-1,29
 838 142 838 142 862 166.5 c 128,-1,30
 886 191 886 191 905.5 231 c 128,-1,31
 925 271 925 271 946 330 c 1,32,-1
 1019 304 l 1,0,1
EndSplineSet
EndChar

StartChar: M
Encoding: 77 77 48
Width: 1734
GlyphClass: 2
Flags: W
AnchorPoint: "Anchor-4" 1734 900 basechar 0
AnchorPoint: "Anchor-3" 856 -100 basechar 0
AnchorPoint: "Anchor-2" 856 -100 basechar 0
AnchorPoint: "Anchor-1" 856 -100 basechar 0
AnchorPoint: "Anchor-0" 856 1370 basechar 0
LayerCount: 2
Fore
SplineSet
1633 1187 m 1,0,1
 1608 1187 1608 1187 1574.5 1180 c 128,-1,2
 1541 1173 1541 1173 1505 1159 c 1,3,-1
 1515 134 l 2,4,5
 1515 122 1515 122 1551.5 104.5 c 128,-1,6
 1588 87 1588 87 1660 73 c 1,7,-1
 1660 0 l 1,8,-1
 1138 0 l 1,9,-1
 1138 73 l 1,10,11
 1206 87 1206 87 1245.5 103.5 c 128,-1,12
 1285 120 1285 120 1285 134 c 2,13,-1
 1277 947 l 1,14,-1
 853 0 l 1,15,-1
 759 0 l 1,16,-1
 343 945 l 1,17,-1
 335 134 l 2,18,19
 335 122 335 122 368 104.5 c 128,-1,20
 401 87 401 87 473 73 c 1,21,-1
 473 0 l 1,22,-1
 53 0 l 1,23,-1
 53 73 l 1,24,25
 122 87 122 87 156 103.5 c 128,-1,26
 190 120 190 120 190 134 c 2,27,-1
 200 1152 l 1,28,29
 165 1172 165 1172 128.5 1179.5 c 128,-1,30
 92 1187 92 1187 63 1187 c 1,31,-1
 63 1260 l 1,32,-1
 409 1260 l 2,33,34
 419 1260 419 1260 427 1257 c 128,-1,35
 435 1254 435 1254 442.5 1245 c 128,-1,36
 450 1236 450 1236 459 1219.5 c 128,-1,37
 468 1203 468 1203 480 1176 c 2,38,-1
 848 341 l 1,39,-1
 1223 1176 l 2,40,41
 1236 1206 1236 1206 1245 1222.5 c 128,-1,42
 1254 1239 1254 1239 1262 1247.5 c 128,-1,43
 1270 1256 1270 1256 1277.5 1258 c 128,-1,44
 1285 1260 1285 1260 1294 1260 c 2,45,-1
 1633 1260 l 1,46,-1
 1633 1187 l 1,0,1
EndSplineSet
EndChar

StartChar: N
Encoding: 78 78 49
Width: 1359
GlyphClass: 2
Flags: W
AnchorPoint: "Anchor-4" 1359 900 basechar 0
AnchorPoint: "Anchor-3" 680 -100 basechar 0
AnchorPoint: "Anchor-2" 1105 0 basechar 0
AnchorPoint: "Anchor-1" 680 -100 basechar 0
AnchorPoint: "Anchor-0" 680 1370 basechar 0
LayerCount: 2
Fore
SplineSet
43 0 m 1,0,-1
 43 73 l 1,1,2
 116 82 116 82 148 101 c 128,-1,3
 180 120 180 120 180 134 c 2,4,-1
 180 1114 l 1,5,6
 115 1175 115 1175 43 1187 c 1,7,-1
 43 1260 l 1,8,-1
 322 1260 l 2,9,10
 337 1260 337 1260 346.5 1257.5 c 128,-1,11
 356 1255 356 1255 366 1247 c 128,-1,12
 376 1239 376 1239 387.5 1223.5 c 128,-1,13
 399 1208 399 1208 418 1182 c 2,14,-1
 1030 334 l 1,15,-1
 1030 1125 l 2,16,17
 1030 1131 1030 1131 1023.5 1139.5 c 128,-1,18
 1017 1148 1017 1148 1001.5 1156.5 c 128,-1,19
 986 1165 986 1165 959.5 1173 c 128,-1,20
 933 1181 933 1181 893 1187 c 1,21,-1
 893 1260 l 1,22,-1
 1318 1260 l 1,23,-1
 1318 1187 l 1,24,25
 1246 1177 1246 1177 1213 1158 c 128,-1,26
 1180 1139 1180 1139 1180 1125 c 2,27,-1
 1180 -30 l 1,28,29
 1084 -22 1084 -22 1026 7.5 c 128,-1,30
 968 37 968 37 941 74 c 2,31,-1
 330 920 l 1,32,-1
 330 134 l 2,33,34
 330 128 330 128 337 119.5 c 128,-1,35
 344 111 344 111 360.5 102.5 c 128,-1,36
 377 94 377 94 403 86 c 128,-1,37
 429 78 429 78 468 73 c 1,38,-1
 468 0 l 1,39,-1
 43 0 l 1,0,-1
EndSplineSet
EndChar

StartChar: O
Encoding: 79 79 50
Width: 1274
GlyphClass: 2
Flags: W
AnchorPoint: "Anchor-4" 1188 900 basechar 0
AnchorPoint: "Anchor-3" 703 0 basechar 0
AnchorPoint: "Anchor-2" 606 0 basechar 0
AnchorPoint: "Anchor-1" 638 -100 basechar 0
AnchorPoint: "Anchor-0" 638 1370 basechar 0
LayerCount: 2
Fore
SplineSet
946 629 m 0,0,1
 946 732 946 732 921.5 828 c 128,-1,2
 897 924 897 924 852 998 c 128,-1,3
 807 1072 807 1072 744 1116 c 128,-1,4
 681 1160 681 1160 604 1160 c 0,5,6
 532 1160 532 1160 476.5 1124.5 c 128,-1,7
 421 1089 421 1089 383.5 1022.5 c 128,-1,8
 346 956 346 956 327 859.5 c 128,-1,9
 308 763 308 763 308 641 c 0,10,11
 308 529 308 529 334.5 431 c 128,-1,12
 361 333 361 333 406.5 260.5 c 128,-1,13
 452 188 452 188 512.5 146.5 c 128,-1,14
 573 105 573 105 642 105 c 0,15,16
 708 105 708 105 763.5 137 c 128,-1,17
 819 169 819 169 859.5 234.5 c 128,-1,18
 900 300 900 300 923 398.5 c 128,-1,19
 946 497 946 497 946 629 c 0,0,1
1198 647 m 0,20,21
 1198 556 1198 556 1176 471 c 128,-1,22
 1154 386 1154 386 1114.5 310.5 c 128,-1,23
 1075 235 1075 235 1020 172.5 c 128,-1,24
 965 110 965 110 898 65 c 128,-1,25
 831 20 831 20 755 -5 c 128,-1,26
 679 -30 679 -30 598 -30 c 0,27,28
 472 -30 472 -30 371 23 c 128,-1,29
 270 76 270 76 200 165 c 128,-1,30
 130 254 130 254 92.5 370 c 128,-1,31
 55 486 55 486 55 612 c 0,32,33
 55 748 55 748 99.5 871 c 128,-1,34
 144 994 144 994 223.5 1087 c 128,-1,35
 303 1180 303 1180 413.5 1235 c 128,-1,36
 524 1290 524 1290 656 1290 c 256,37,38
 788 1290 788 1290 889 1235.5 c 128,-1,39
 990 1181 990 1181 1059 1091 c 128,-1,40
 1128 1001 1128 1001 1163 885 c 128,-1,41
 1198 769 1198 769 1198 647 c 0,20,21
EndSplineSet
EndChar

StartChar: P
Encoding: 80 80 51
Width: 1161
GlyphClass: 2
Flags: W
AnchorPoint: "Anchor-4" 1161 900 basechar 0
AnchorPoint: "Anchor-3" 558 -100 basechar 0
AnchorPoint: "Anchor-2" 558 -100 basechar 0
AnchorPoint: "Anchor-1" 558 -100 basechar 0
AnchorPoint: "Anchor-0" 558 1370 basechar 0
LayerCount: 2
Fore
SplineSet
43 0 m 1,0,-1
 43 73 l 1,1,2
 111 87 111 87 145.5 103.5 c 128,-1,3
 180 120 180 120 180 134 c 2,4,-1
 180 1158 l 1,5,6
 142 1153 142 1153 107.5 1148 c 128,-1,7
 73 1143 73 1143 43 1138 c 1,8,-1
 30 1230 l 1,9,10
 84 1243 84 1243 150 1254 c 128,-1,11
 216 1265 216 1265 287.5 1273 c 128,-1,12
 359 1281 359 1281 431.5 1285.5 c 128,-1,13
 504 1290 504 1290 570 1290 c 0,14,15
 686 1290 686 1290 781.5 1267 c 128,-1,16
 877 1244 877 1244 945 1199 c 128,-1,17
 1013 1154 1013 1154 1050 1088 c 128,-1,18
 1087 1022 1087 1022 1087 936 c 0,19,20
 1087 867 1087 867 1068 809 c 128,-1,21
 1049 751 1049 751 1016.5 705 c 128,-1,22
 984 659 984 659 941.5 624 c 128,-1,23
 899 589 899 589 851.5 566 c 128,-1,24
 804 543 804 543 755.5 531.5 c 128,-1,25
 707 520 707 520 663 520 c 0,26,27
 617 520 617 520 573 527.5 c 128,-1,28
 529 535 529 535 495 550 c 1,29,-1
 464 655 l 1,30,31
 505 636 505 636 536.5 630.5 c 128,-1,32
 568 625 568 625 603 625 c 0,33,34
 646 625 646 625 688 640.5 c 128,-1,35
 730 656 730 656 762.5 689 c 128,-1,36
 795 722 795 722 815 773 c 128,-1,37
 835 824 835 824 835 895 c 256,38,39
 835 966 835 966 811.5 1020 c 128,-1,40
 788 1074 788 1074 745.5 1110.5 c 128,-1,41
 703 1147 703 1147 644 1165.5 c 128,-1,42
 585 1184 585 1184 513 1184 c 0,43,44
 493 1184 493 1184 472.5 1183.5 c 128,-1,45
 452 1183 452 1183 430 1182 c 1,46,-1
 430 134 l 2,47,48
 430 128 430 128 436.5 121 c 128,-1,49
 443 114 443 114 461.5 106 c 128,-1,50
 480 98 480 98 513 90 c 128,-1,51
 546 82 546 82 598 73 c 1,52,-1
 598 0 l 1,53,-1
 43 0 l 1,0,-1
EndSplineSet
EndChar

StartChar: Q
Encoding: 81 81 52
Width: 1274
GlyphClass: 2
Flags: W
AnchorPoint: "Anchor-4" 1274 900 basechar 0
AnchorPoint: "Anchor-3" 655 -270 basechar 0
AnchorPoint: "Anchor-2" 655 -270 basechar 0
AnchorPoint: "Anchor-1" 655 -270 basechar 0
AnchorPoint: "Anchor-0" 655 1370 basechar 0
LayerCount: 2
Fore
SplineSet
946 629 m 0,0,1
 946 732 946 732 921.5 828 c 128,-1,2
 897 924 897 924 852 998 c 128,-1,3
 807 1072 807 1072 744 1116 c 128,-1,4
 681 1160 681 1160 604 1160 c 0,5,6
 532 1160 532 1160 476.5 1124.5 c 128,-1,7
 421 1089 421 1089 383.5 1022.5 c 128,-1,8
 346 956 346 956 327 859.5 c 128,-1,9
 308 763 308 763 308 641 c 0,10,11
 308 529 308 529 334.5 431 c 128,-1,12
 361 333 361 333 406.5 260.5 c 128,-1,13
 452 188 452 188 512.5 146.5 c 128,-1,14
 573 105 573 105 642 105 c 0,15,16
 708 105 708 105 763.5 137 c 128,-1,17
 819 169 819 169 859.5 234.5 c 128,-1,18
 900 300 900 300 923 398.5 c 128,-1,19
 946 497 946 497 946 629 c 0,0,1
1417 -125 m 1,20,21
 1393 -169 1393 -169 1365.5 -206 c 128,-1,22
 1338 -243 1338 -243 1311 -270 c 128,-1,23
 1284 -297 1284 -297 1260.5 -312.5 c 128,-1,24
 1237 -328 1237 -328 1222 -328 c 0,25,26
 1175 -328 1175 -328 1128.5 -312.5 c 128,-1,27
 1082 -297 1082 -297 1034.5 -271.5 c 128,-1,28
 987 -246 987 -246 940 -213.5 c 128,-1,29
 893 -181 893 -181 845.5 -147.5 c 128,-1,30
 798 -114 798 -114 750.5 -82 c 128,-1,31
 703 -50 703 -50 656 -26 c 1,32,33
 642 -28 642 -28 627 -29 c 128,-1,34
 612 -30 612 -30 598 -30 c 0,35,36
 474 -30 474 -30 374 22.5 c 128,-1,37
 274 75 274 75 203 163.5 c 128,-1,38
 132 252 132 252 93.5 368 c 128,-1,39
 55 484 55 484 55 612 c 0,40,41
 55 748 55 748 99.5 871 c 128,-1,42
 144 994 144 994 223.5 1087 c 128,-1,43
 303 1180 303 1180 413.5 1235 c 128,-1,44
 524 1290 524 1290 656 1290 c 256,45,46
 788 1290 788 1290 889 1235.5 c 128,-1,47
 990 1181 990 1181 1059 1091 c 128,-1,48
 1128 1001 1128 1001 1163 885 c 128,-1,49
 1198 769 1198 769 1198 647 c 0,50,51
 1198 546 1198 546 1171 451 c 128,-1,52
 1144 356 1144 356 1095 275 c 128,-1,53
 1046 194 1046 194 979 130 c 128,-1,54
 912 66 912 66 832 26 c 1,55,56
 888 6 888 6 940 -21 c 128,-1,57
 992 -48 992 -48 1041 -72 c 128,-1,58
 1090 -96 1090 -96 1136.5 -113 c 128,-1,59
 1183 -130 1183 -130 1228 -130 c 0,60,61
 1240 -130 1240 -130 1252.5 -127.5 c 128,-1,62
 1265 -125 1265 -125 1280.5 -117.5 c 128,-1,63
 1296 -110 1296 -110 1317 -96 c 128,-1,64
 1338 -82 1338 -82 1368 -60 c 1,65,-1
 1417 -125 l 1,20,21
EndSplineSet
EndChar

StartChar: R
Encoding: 82 82 53
Width: 1239
GlyphClass: 2
Flags: W
AnchorPoint: "Anchor-4" 1239 900 basechar 0
AnchorPoint: "Anchor-3" 559 -100 basechar 0
AnchorPoint: "Anchor-2" 289 0 basechar 0
AnchorPoint: "Anchor-1" 559 -100 basechar 0
AnchorPoint: "Anchor-0" 559 1370 basechar 0
LayerCount: 2
Fore
SplineSet
43 0 m 1,0,-1
 43 73 l 1,1,2
 111 87 111 87 145.5 103.5 c 128,-1,3
 180 120 180 120 180 134 c 2,4,-1
 180 1157 l 1,5,6
 144 1152 144 1152 109.5 1147.5 c 128,-1,7
 75 1143 75 1143 43 1138 c 1,8,-1
 30 1230 l 1,9,10
 136 1253 136 1253 260.5 1271.5 c 128,-1,11
 385 1290 385 1290 529 1290 c 0,12,13
 665 1290 665 1290 760.5 1267 c 128,-1,14
 856 1244 856 1244 916.5 1203 c 128,-1,15
 977 1162 977 1162 1004.5 1106.5 c 128,-1,16
 1032 1051 1032 1051 1032 987 c 0,17,18
 1032 918 1032 918 1011.5 860.5 c 128,-1,19
 991 803 991 803 954.5 756.5 c 128,-1,20
 918 710 918 710 866.5 675.5 c 128,-1,21
 815 641 815 641 753 620 c 1,22,-1
 1068 184 l 2,23,24
 1084 163 1084 163 1098.5 150 c 128,-1,25
 1113 137 1113 137 1130.5 130.5 c 128,-1,26
 1148 124 1148 124 1171.5 123 c 128,-1,27
 1195 122 1195 122 1229 125 c 1,28,-1
 1244 52 l 1,29,30
 1211 41 1211 41 1170 29.5 c 128,-1,31
 1129 18 1129 18 1088.5 8 c 128,-1,32
 1048 -2 1048 -2 1013.5 -8 c 128,-1,33
 979 -14 979 -14 960 -14 c 0,34,35
 931 -14 931 -14 903.5 2 c 128,-1,36
 876 18 876 18 862 41 c 1,37,-1
 575 586 l 1,38,39
 565 585 565 585 555 585 c 2,40,-1
 536 585 l 2,41,42
 510 585 510 585 484 587.5 c 128,-1,43
 458 590 458 590 430 596 c 1,44,-1
 430 134 l 2,45,46
 430 122 430 122 462.5 104.5 c 128,-1,47
 495 87 495 87 568 73 c 1,48,-1
 568 0 l 1,49,-1
 43 0 l 1,0,-1
485 1184 m 0,50,51
 472 1184 472 1184 458 1183.5 c 128,-1,52
 444 1183 444 1183 430 1182 c 1,53,-1
 430 706 l 1,54,55
 457 701 457 701 477 700 c 128,-1,56
 497 699 497 699 519 699 c 0,57,58
 654 699 654 699 717 767 c 128,-1,59
 780 835 780 835 780 956 c 0,60,61
 780 1002 780 1002 766 1043.5 c 128,-1,62
 752 1085 752 1085 718.5 1116.5 c 128,-1,63
 685 1148 685 1148 628 1166 c 128,-1,64
 571 1184 571 1184 485 1184 c 0,50,51
EndSplineSet
EndChar

StartChar: S
Encoding: 83 83 54
Width: 1050
GlyphClass: 2
Flags: W
AnchorPoint: "Anchor-4" 1050 900 basechar 0
AnchorPoint: "Anchor-3" 535 -100 basechar 0
AnchorPoint: "Anchor-2" 512 0 basechar 0
AnchorPoint: "Anchor-1" 535 -100 basechar 0
AnchorPoint: "Anchor-0" 535 1370 basechar 0
LayerCount: 2
Fore
SplineSet
968 377 m 0,0,1
 968 332 968 332 954.5 285 c 128,-1,2
 941 238 941 238 914 192.5 c 128,-1,3
 887 147 887 147 846 106.5 c 128,-1,4
 805 66 805 66 749.5 36 c 128,-1,5
 694 6 694 6 624.5 -12 c 128,-1,6
 555 -30 555 -30 470 -30 c 0,7,8
 434 -30 434 -30 387.5 -23 c 128,-1,9
 341 -16 341 -16 292.5 -3.5 c 128,-1,10
 244 9 244 9 197.5 27 c 128,-1,11
 151 45 151 45 116 68 c 1,12,13
 111 70 111 70 108 87.5 c 128,-1,14
 105 105 105 105 103.5 131.5 c 128,-1,15
 102 158 102 158 102.5 191.5 c 128,-1,16
 103 225 103 225 105.5 259 c 128,-1,17
 108 293 108 293 112.5 326 c 128,-1,18
 117 359 117 359 124 384 c 1,19,-1
 195 379 l 1,20,21
 218 320 218 320 251 271 c 128,-1,22
 284 222 284 222 325 187 c 128,-1,23
 366 152 366 152 413 132.5 c 128,-1,24
 460 113 460 113 511 113 c 0,25,26
 556 113 556 113 598 126 c 128,-1,27
 640 139 640 139 672 163.5 c 128,-1,28
 704 188 704 188 723.5 224.5 c 128,-1,29
 743 261 743 261 743 309 c 0,30,31
 743 370 743 370 716 414.5 c 128,-1,32
 689 459 689 459 644.5 493.5 c 128,-1,33
 600 528 600 528 543.5 556 c 128,-1,34
 487 584 487 584 427.5 611.5 c 128,-1,35
 368 639 368 639 311.5 669.5 c 128,-1,36
 255 700 255 700 210.5 740.5 c 128,-1,37
 166 781 166 781 139 834 c 128,-1,38
 112 887 112 887 112 960 c 0,39,40
 112 1007 112 1007 138.5 1064.5 c 128,-1,41
 165 1122 165 1122 220.5 1172 c 128,-1,42
 276 1222 276 1222 363 1256 c 128,-1,43
 450 1290 450 1290 571 1290 c 0,44,45
 625 1290 625 1290 677 1283 c 128,-1,46
 729 1276 729 1276 774 1264 c 128,-1,47
 819 1252 819 1252 853.5 1235 c 128,-1,48
 888 1218 888 1218 906 1198 c 1,49,50
 911 1194 911 1194 908.5 1180 c 128,-1,51
 906 1166 906 1166 899.5 1147 c 128,-1,52
 893 1128 893 1128 882.5 1106 c 128,-1,53
 872 1084 872 1084 861 1064 c 128,-1,54
 850 1044 850 1044 839 1028 c 128,-1,55
 828 1012 828 1012 820 1005 c 1,56,-1
 754 1011 l 1,57,58
 732 1058 732 1058 703.5 1089.5 c 128,-1,59
 675 1121 675 1121 643.5 1140 c 128,-1,60
 612 1159 612 1159 580 1167 c 128,-1,61
 548 1175 548 1175 520 1175 c 0,62,63
 470 1175 470 1175 434.5 1162 c 128,-1,64
 399 1149 399 1149 376 1127 c 128,-1,65
 353 1105 353 1105 342.5 1077.5 c 128,-1,66
 332 1050 332 1050 332 1022 c 0,67,68
 332 975 332 975 359.5 938.5 c 128,-1,69
 387 902 387 902 431.5 870.5 c 128,-1,70
 476 839 476 839 533 811 c 128,-1,71
 590 783 590 783 650 753 c 128,-1,72
 710 723 710 723 767 688 c 128,-1,73
 824 653 824 653 868.5 609 c 128,-1,74
 913 565 913 565 940.5 508 c 128,-1,75
 968 451 968 451 968 377 c 0,0,1
EndSplineSet
EndChar

StartChar: T
Encoding: 84 84 55
Width: 1188
GlyphClass: 2
Flags: W
AnchorPoint: "Anchor-4" 1188 900 basechar 0
AnchorPoint: "Anchor-3" 576 -100 basechar 0
AnchorPoint: "Anchor-2" 577 0 basechar 0
AnchorPoint: "Anchor-1" 576 -100 basechar 0
AnchorPoint: "Anchor-0" 576 1370 basechar 0
LayerCount: 2
Fore
SplineSet
300 0 m 1,0,-1
 300 73 l 1,1,2
 346 82 346 82 376 92 c 128,-1,3
 406 102 406 102 424 111.5 c 128,-1,4
 442 121 442 121 449 129.5 c 128,-1,5
 456 138 456 138 456 145 c 2,6,-1
 456 1140 l 1,7,-1
 202 1140 l 2,8,9
 187 1140 187 1140 173.5 1129.5 c 128,-1,10
 160 1119 160 1119 146 1094 c 128,-1,11
 132 1069 132 1069 115 1029 c 128,-1,12
 98 989 98 989 76 931 c 1,13,-1
 3 958 l 1,14,15
 5 987 5 987 9.5 1028 c 128,-1,16
 14 1069 14 1069 20 1112 c 128,-1,17
 26 1155 26 1155 32 1194.5 c 128,-1,18
 38 1234 38 1234 43 1260 c 1,19,-1
 1113 1260 l 1,20,-1
 1151 1228 l 1,21,22
 1150 1202 1150 1202 1146.5 1166 c 128,-1,23
 1143 1130 1143 1130 1137.5 1090 c 128,-1,24
 1132 1050 1132 1050 1125.5 1010.5 c 128,-1,25
 1119 971 1119 971 1113 940 c 1,26,-1
 1038 940 l 1,27,28
 1028 986 1028 986 1021.5 1023.5 c 128,-1,29
 1015 1061 1015 1061 1007 1086.5 c 128,-1,30
 999 1112 999 1112 986.5 1126 c 128,-1,31
 974 1140 974 1140 953 1140 c 2,32,-1
 706 1140 l 1,33,-1
 706 145 l 2,34,35
 706 139 706 139 713 130.5 c 128,-1,36
 720 122 720 122 738 112 c 128,-1,37
 756 102 756 102 786.5 92 c 128,-1,38
 817 82 817 82 863 73 c 1,39,-1
 863 0 l 1,40,-1
 300 0 l 1,0,-1
EndSplineSet
EndChar

StartChar: U
Encoding: 85 85 56
Width: 1369
GlyphClass: 2
Flags: W
AnchorPoint: "Anchor-4" 1360 900 basechar 0
AnchorPoint: "Anchor-3" 778 0 basechar 0
AnchorPoint: "Anchor-2" 692 0 basechar 0
AnchorPoint: "Anchor-1" 692 -100 basechar 0
AnchorPoint: "Anchor-0" 692 1370 basechar 0
LayerCount: 2
Fore
SplineSet
1313 1187 m 1,0,1
 1245 1173 1245 1173 1210 1156 c 128,-1,2
 1175 1139 1175 1139 1175 1125 c 2,3,-1
 1175 524 l 2,4,5
 1175 393 1175 393 1138.5 290 c 128,-1,6
 1102 187 1102 187 1036 116 c 128,-1,7
 970 45 970 45 879.5 7.5 c 128,-1,8
 789 -30 789 -30 681 -30 c 0,9,10
 578 -30 578 -30 487 -1.5 c 128,-1,11
 396 27 396 27 327.5 85.5 c 128,-1,12
 259 144 259 144 219.5 233 c 128,-1,13
 180 322 180 322 180 444 c 2,14,-1
 180 1125 l 2,15,16
 180 1137 180 1137 147.5 1155 c 128,-1,17
 115 1173 115 1173 43 1187 c 1,18,-1
 43 1260 l 1,19,-1
 568 1260 l 1,20,-1
 568 1187 l 1,21,22
 500 1173 500 1173 465 1156 c 128,-1,23
 430 1139 430 1139 430 1125 c 2,24,-1
 430 509 l 2,25,26
 430 413 430 413 447 339.5 c 128,-1,27
 464 266 464 266 501 216 c 128,-1,28
 538 166 538 166 597.5 140.5 c 128,-1,29
 657 115 657 115 743 115 c 0,30,31
 814 115 814 115 863 147 c 128,-1,32
 912 179 912 179 942.5 232 c 128,-1,33
 973 285 973 285 986.5 354.5 c 128,-1,34
 1000 424 1000 424 1000 498 c 2,35,-1
 1000 1125 l 2,36,37
 1000 1137 1000 1137 967.5 1155 c 128,-1,38
 935 1173 935 1173 863 1187 c 1,39,-1
 863 1260 l 1,40,-1
 1313 1260 l 1,41,-1
 1313 1187 l 1,0,1
EndSplineSet
EndChar

StartChar: V
Encoding: 86 86 57
Width: 1361
GlyphClass: 2
Flags: W
AnchorPoint: "Anchor-4" 1361 900 basechar 0
AnchorPoint: "Anchor-3" 623 0 basechar 0
AnchorPoint: "Anchor-2" 680 0 basechar 0
AnchorPoint: "Anchor-1" 670 -100 basechar 0
AnchorPoint: "Anchor-0" 680 1370 basechar 0
LayerCount: 2
Fore
SplineSet
1328 1187 m 1,0,1
 1260 1174 1260 1174 1221.5 1161.5 c 128,-1,2
 1183 1149 1183 1149 1173 1121 c 2,3,-1
 797 82 l 2,4,5
 789 60 789 60 766.5 42 c 128,-1,6
 744 24 744 24 715.5 9.5 c 128,-1,7
 687 -5 687 -5 656.5 -14.5 c 128,-1,8
 626 -24 626 -24 602 -30 c 1,9,-1
 147 1121 l 2,10,11
 136 1147 136 1147 106 1163 c 128,-1,12
 76 1179 76 1179 13 1187 c 1,13,-1
 13 1260 l 1,14,-1
 523 1260 l 1,15,-1
 523 1187 l 1,16,17
 443 1181 443 1181 417 1166.5 c 128,-1,18
 391 1152 391 1152 402 1123 c 2,19,-1
 727 286 l 1,20,-1
 1024 1121 l 2,21,22
 1029 1136 1029 1136 1025.5 1146 c 128,-1,23
 1022 1156 1022 1156 1007 1163.5 c 128,-1,24
 992 1171 992 1171 965 1176.5 c 128,-1,25
 938 1182 938 1182 897 1187 c 1,26,-1
 897 1260 l 1,27,-1
 1328 1260 l 1,28,-1
 1328 1187 l 1,0,1
EndSplineSet
EndChar

StartChar: W
Encoding: 87 87 58
Width: 1741
GlyphClass: 2
Flags: W
AnchorPoint: "Anchor-4" 1741 900 basechar 0
AnchorPoint: "Anchor-3" 876 -100 basechar 0
AnchorPoint: "Anchor-2" 876 -100 basechar 0
AnchorPoint: "Anchor-1" 876 -100 basechar 0
AnchorPoint: "Anchor-0" 876 1370 basechar 0
LayerCount: 2
Fore
SplineSet
1732 1187 m 1,0,1
 1688 1178 1688 1178 1659 1170 c 128,-1,2
 1630 1162 1630 1162 1613 1154.5 c 128,-1,3
 1596 1147 1596 1147 1588.5 1140 c 128,-1,4
 1581 1133 1581 1133 1580 1125 c 2,5,-1
 1351 59 l 2,6,7
 1346 38 1346 38 1328.5 22.5 c 128,-1,8
 1311 7 1311 7 1288.5 -3.5 c 128,-1,9
 1266 -14 1266 -14 1243 -20.5 c 128,-1,10
 1220 -27 1220 -27 1205 -30 c 1,11,-1
 864 877 l 1,12,-1
 577 59 l 2,13,14
 570 38 570 38 552 23 c 128,-1,15
 534 8 534 8 511 -2.5 c 128,-1,16
 488 -13 488 -13 463 -19.5 c 128,-1,17
 438 -26 438 -26 418 -30 c 1,18,-1
 158 1117 l 2,19,20
 153 1142 153 1142 122 1158 c 128,-1,21
 91 1174 91 1174 20 1187 c 1,22,-1
 20 1260 l 1,23,-1
 509 1260 l 1,24,-1
 509 1187 l 1,25,26
 460 1182 460 1182 433 1174.5 c 128,-1,27
 406 1167 406 1167 394 1158 c 128,-1,28
 382 1149 382 1149 380.5 1138.5 c 128,-1,29
 379 1128 379 1128 381 1117 c 2,30,-1
 552 385 l 1,31,-1
 844 1260 l 1,32,-1
 944 1260 l 1,33,-1
 1279 385 l 1,34,-1
 1440 1125 l 2,35,36
 1442 1137 1442 1137 1431 1146 c 128,-1,37
 1420 1155 1420 1155 1399 1162 c 128,-1,38
 1378 1169 1378 1169 1349 1175 c 128,-1,39
 1320 1181 1320 1181 1286 1187 c 1,40,-1
 1286 1260 l 1,41,-1
 1732 1260 l 1,42,-1
 1732 1187 l 1,0,1
EndSplineSet
EndChar

StartChar: X
Encoding: 88 88 59
Width: 1290
GlyphClass: 2
Flags: W
AnchorPoint: "Anchor-4" 1290 900 basechar 0
AnchorPoint: "Anchor-3" 645 -100 basechar 0
AnchorPoint: "Anchor-2" 645 -100 basechar 0
AnchorPoint: "Anchor-1" 645 -100 basechar 0
AnchorPoint: "Anchor-0" 645 1370 basechar 0
LayerCount: 2
Fore
SplineSet
733 0 m 1,0,-1
 733 73 l 1,1,2
 777 77 777 77 804 83.5 c 128,-1,3
 831 90 831 90 843 99.5 c 128,-1,4
 855 109 855 109 853.5 123 c 128,-1,5
 852 137 852 137 838 157 c 2,6,-1
 602 500 l 1,7,-1
 375 157 l 2,8,9
 360 135 360 135 356.5 120.5 c 128,-1,10
 353 106 353 106 363.5 96.5 c 128,-1,11
 374 87 374 87 401 81.5 c 128,-1,12
 428 76 428 76 474 73 c 1,13,-1
 474 0 l 1,14,-1
 24 0 l 1,15,-1
 24 73 l 1,16,17
 89 78 89 78 134 97.5 c 128,-1,18
 179 117 179 117 206 157 c 2,19,-1
 515 628 l 1,20,-1
 190 1103 l 2,21,22
 175 1125 175 1125 161 1139 c 128,-1,23
 147 1153 147 1153 129.5 1162 c 128,-1,24
 112 1171 112 1171 89.5 1176.5 c 128,-1,25
 67 1182 67 1182 34 1187 c 1,26,-1
 34 1260 l 1,27,-1
 575 1260 l 1,28,-1
 575 1187 l 1,29,30
 490 1179 490 1179 464 1162.5 c 128,-1,31
 438 1146 438 1146 468 1103 c 2,32,-1
 675 800 l 1,33,-1
 866 1103 l 2,34,35
 880 1126 880 1126 882.5 1140.5 c 128,-1,36
 885 1155 885 1155 874 1164.5 c 128,-1,37
 863 1174 863 1174 836.5 1179 c 128,-1,38
 810 1184 810 1184 765 1187 c 1,39,-1
 765 1260 l 1,40,-1
 1218 1260 l 1,41,-1
 1218 1187 l 1,42,43
 1182 1183 1182 1183 1153.5 1177 c 128,-1,44
 1125 1171 1125 1171 1103 1161.5 c 128,-1,45
 1081 1152 1081 1152 1064.5 1138 c 128,-1,46
 1048 1124 1048 1124 1035 1103 c 2,47,-1
 761 675 l 1,48,-1
 1116 157 l 2,49,50
 1131 136 1131 136 1145.5 121.5 c 128,-1,51
 1160 107 1160 107 1177 97.5 c 128,-1,52
 1194 88 1194 88 1216 82.5 c 128,-1,53
 1238 77 1238 77 1267 73 c 1,54,-1
 1267 0 l 1,55,-1
 733 0 l 1,0,-1
EndSplineSet
EndChar

StartChar: Y
Encoding: 89 89 60
Width: 1255
GlyphClass: 2
Flags: W
AnchorPoint: "Anchor-4" 1255 900 basechar 0
AnchorPoint: "Anchor-3" 627 -100 basechar 0
AnchorPoint: "Anchor-2" 627 -100 basechar 0
AnchorPoint: "Anchor-1" 627 -100 basechar 0
AnchorPoint: "Anchor-0" 627 1370 basechar 0
LayerCount: 2
Fore
SplineSet
345 0 m 1,0,-1
 345 73 l 1,1,2
 390 82 390 82 420.5 92 c 128,-1,3
 451 102 451 102 469 111.5 c 128,-1,4
 487 121 487 121 494.5 129.5 c 128,-1,5
 502 138 502 138 502 145 c 2,6,-1
 502 529 l 1,7,8
 466 609 466 609 421 694 c 128,-1,9
 376 779 376 779 330 858.5 c 128,-1,10
 284 938 284 938 240 1006 c 128,-1,11
 196 1074 196 1074 161 1121 c 0,12,13
 152 1132 152 1132 142 1141 c 128,-1,14
 132 1150 132 1150 115 1156 c 128,-1,15
 98 1162 98 1162 72 1165.5 c 128,-1,16
 46 1169 46 1169 4 1169 c 1,17,-1
 0 1242 l 1,18,19
 29 1246 29 1246 66.5 1251 c 128,-1,20
 104 1256 104 1256 141 1260 c 128,-1,21
 178 1264 178 1264 210.5 1267 c 128,-1,22
 243 1270 243 1270 264 1270 c 0,23,24
 292 1270 292 1270 320 1258 c 128,-1,25
 348 1246 348 1246 365 1224 c 0,26,27
 402 1174 402 1174 442.5 1110 c 128,-1,28
 483 1046 483 1046 524.5 974 c 128,-1,29
 566 902 566 902 605.5 826.5 c 128,-1,30
 645 751 645 751 680 679 c 1,31,-1
 914 1121 l 1,32,33
 929 1147 929 1147 904.5 1162 c 128,-1,34
 880 1177 880 1177 803 1187 c 1,35,-1
 803 1260 l 1,36,-1
 1221 1260 l 1,37,-1
 1221 1187 l 1,38,39
 1153 1174 1153 1174 1120 1160 c 128,-1,40
 1087 1146 1087 1146 1073 1121 c 2,41,-1
 752 523 l 1,42,-1
 752 145 l 2,43,44
 752 139 752 139 759 130.5 c 128,-1,45
 766 122 766 122 784 112 c 128,-1,46
 802 102 802 102 832.5 92 c 128,-1,47
 863 82 863 82 910 73 c 1,48,-1
 910 0 l 1,49,-1
 345 0 l 1,0,-1
EndSplineSet
EndChar

StartChar: Z
Encoding: 90 90 61
Width: 1116
GlyphClass: 2
Flags: W
AnchorPoint: "Anchor-4" 1116 900 basechar 0
AnchorPoint: "Anchor-3" 558 -100 basechar 0
AnchorPoint: "Anchor-2" 558 -100 basechar 0
AnchorPoint: "Anchor-1" 558 -100 basechar 0
AnchorPoint: "Anchor-0" 579 1370 basechar 0
LayerCount: 2
Fore
SplineSet
1044 353 m 1,0,1
 1042 321 1042 321 1040.5 272.5 c 128,-1,2
 1039 224 1039 224 1037.5 173.5 c 128,-1,3
 1036 123 1036 123 1034.5 76 c 128,-1,4
 1033 29 1033 29 1032 0 c 1,5,-1
 88 0 l 1,6,-1
 52 53 l 1,7,-1
 725 1130 l 1,8,-1
 334 1130 l 2,9,10
 318 1130 318 1130 298 1113 c 128,-1,11
 278 1096 278 1096 258.5 1065 c 128,-1,12
 239 1034 239 1034 221.5 991 c 128,-1,13
 204 948 204 948 193 896 c 1,14,-1
 106 915 l 1,15,-1
 143 1276 l 1,16,17
 170 1270 170 1270 192.5 1266.5 c 128,-1,18
 215 1263 215 1263 236.5 1261.5 c 128,-1,19
 258 1260 258 1260 281 1260 c 2,20,-1
 1001 1260 l 1,21,-1
 1034 1210 l 1,22,-1
 366 130 l 1,23,-1
 822 130 l 2,24,25
 843 130 843 130 860 145 c 128,-1,26
 877 160 877 160 892.5 191 c 128,-1,27
 908 222 908 222 924 267.5 c 128,-1,28
 940 313 940 313 959 375 c 1,29,-1
 1044 353 l 1,0,1
EndSplineSet
EndChar

StartChar: bracketleft
Encoding: 91 91 62
Width: 691
Flags: W
LayerCount: 2
Fore
SplineSet
666 -227 m 1,0,1
 664 -237 664 -237 659 -251.5 c 128,-1,2
 654 -266 654 -266 649 -282 c 128,-1,3
 644 -298 644 -298 638.5 -312 c 128,-1,4
 633 -326 633 -326 629 -335 c 1,5,-1
 125 -335 l 1,6,-1
 125 1600 l 1,7,-1
 623 1600 l 1,8,-1
 664 1567 l 1,9,10
 662 1555 662 1555 657 1538 c 128,-1,11
 652 1521 652 1521 647 1504.5 c 128,-1,12
 642 1488 642 1488 637 1474.5 c 128,-1,13
 632 1461 632 1461 629 1455 c 1,14,-1
 355 1455 l 1,15,-1
 355 -190 l 1,16,-1
 623 -190 l 1,17,-1
 666 -227 l 1,0,1
EndSplineSet
EndChar

StartChar: backslash
Encoding: 92 92 63
Width: 960
Flags: W
LayerCount: 2
Fore
SplineSet
878 -335 m 1,0,1
 866 -331 866 -331 844 -324 c 128,-1,2
 822 -317 822 -317 799 -309 c 128,-1,3
 776 -301 776 -301 755.5 -292.5 c 128,-1,4
 735 -284 735 -284 726 -277 c 1,5,-1
 40 1571 l 1,6,-1
 85 1600 l 1,7,8
 100 1596 100 1596 120 1590 c 128,-1,9
 140 1584 140 1584 161 1576.5 c 128,-1,10
 182 1569 182 1569 201.5 1561 c 128,-1,11
 221 1553 221 1553 235 1544 c 1,12,-1
 920 -303 l 1,13,-1
 878 -335 l 1,0,1
EndSplineSet
EndChar

StartChar: bracketright
Encoding: 93 93 64
Width: 691
Flags: W
LayerCount: 2
Fore
SplineSet
68 -335 m 1,0,-1
 27 -301 l 1,1,2
 29 -289 29 -289 33.5 -272 c 128,-1,3
 38 -255 38 -255 43 -239 c 128,-1,4
 48 -223 48 -223 53 -209.5 c 128,-1,5
 58 -196 58 -196 61 -190 c 1,6,-1
 335 -190 l 1,7,-1
 335 1455 l 1,8,-1
 68 1455 l 1,9,-1
 25 1491 l 1,10,11
 27 1501 27 1501 32 1516 c 128,-1,12
 37 1531 37 1531 42 1547 c 128,-1,13
 47 1563 47 1563 52.5 1577 c 128,-1,14
 58 1591 58 1591 61 1600 c 1,15,-1
 565 1600 l 1,16,-1
 565 -335 l 1,17,-1
 68 -335 l 1,0,-1
EndSplineSet
EndChar

StartChar: asciicircum
Encoding: 94 94 65
Width: 1008
Flags: W
LayerCount: 2
Fore
SplineSet
907 635 m 1,0,1
 882 612 882 612 858.5 596.5 c 128,-1,2
 835 581 835 581 801 565 c 1,3,-1
 764 592 l 1,4,-1
 481 1315 l 1,5,-1
 231 635 l 1,6,7
 220 625 220 625 206 614.5 c 128,-1,8
 192 604 192 604 177 594.5 c 128,-1,9
 162 585 162 585 147.5 577.5 c 128,-1,10
 133 570 133 570 123 565 c 1,11,-1
 100 592 l 1,12,-1
 422 1462 l 1,13,14
 434 1474 434 1474 451.5 1486.5 c 128,-1,15
 469 1499 469 1499 487 1511 c 128,-1,16
 505 1523 505 1523 523 1533 c 128,-1,17
 541 1543 541 1543 555 1550 c 1,18,-1
 907 635 l 1,0,1
EndSplineSet
EndChar

StartChar: underscore
Encoding: 95 95 66
Width: 990
Flags: W
LayerCount: 2
Fore
SplineSet
937 -162 m 1,0,1
 934 -173 934 -173 928 -189 c 128,-1,2
 922 -205 922 -205 915 -221.5 c 128,-1,3
 908 -238 908 -238 901.5 -252.5 c 128,-1,4
 895 -267 895 -267 891 -275 c 1,5,-1
 85 -275 l 1,6,-1
 53 -243 l 1,7,8
 56 -233 56 -233 61.5 -217.5 c 128,-1,9
 67 -202 67 -202 74 -186 c 128,-1,10
 81 -170 81 -170 87.5 -155 c 128,-1,11
 94 -140 94 -140 99 -130 c 1,12,-1
 905 -130 l 1,13,-1
 937 -162 l 1,0,1
EndSplineSet
EndChar

StartChar: grave
Encoding: 96 96 67
Width: 653
Flags: W
LayerCount: 2
Fore
SplineSet
452 1086 m 1,0,1
 446 1080 446 1080 435 1073.5 c 128,-1,2
 424 1067 424 1067 411.5 1060 c 128,-1,3
 399 1053 399 1053 387 1048 c 128,-1,4
 375 1043 375 1043 366 1040 c 1,5,-1
 -17 1417 l 1,6,-1
 13 1473 l 1,7,8
 23 1475 23 1475 54 1481 c 128,-1,9
 85 1487 85 1487 121 1493.5 c 128,-1,10
 157 1500 157 1500 189.5 1505.5 c 128,-1,11
 222 1511 222 1511 234 1512 c 1,12,-1
 452 1086 l 1,0,1
EndSplineSet
EndChar

StartChar: a
Encoding: 97 97 68
Width: 1023
GlyphClass: 2
Flags: W
AnchorPoint: "Anchor-4" 1023 900 basechar 0
AnchorPoint: "Anchor-3" 779 0 basechar 0
AnchorPoint: "Anchor-2" 762 0 basechar 0
AnchorPoint: "Anchor-1" 492 -100 basechar 0
AnchorPoint: "Anchor-0" 515 1050 basechar 0
LayerCount: 2
Fore
SplineSet
412 145 m 0,0,1
 431 145 431 145 452 149.5 c 128,-1,2
 473 154 473 154 498.5 165.5 c 128,-1,3
 524 177 524 177 554.5 197.5 c 128,-1,4
 585 218 585 218 623 250 c 1,5,-1
 623 471 l 1,6,7
 563 461 563 461 522 451.5 c 128,-1,8
 481 442 481 442 453 432 c 128,-1,9
 425 422 425 422 407.5 411 c 128,-1,10
 390 400 390 400 377 387 c 0,11,12
 351 361 351 361 335 331 c 128,-1,13
 319 301 319 301 319 259 c 0,14,15
 319 225 319 225 328.5 203 c 128,-1,16
 338 181 338 181 352.5 168 c 128,-1,17
 367 155 367 155 383 150 c 128,-1,18
 399 145 399 145 412 145 c 0,0,1
1016 112 m 1,19,20
 974 83 974 83 928.5 57 c 128,-1,21
 883 31 883 31 842.5 11.5 c 128,-1,22
 802 -8 802 -8 768.5 -19 c 128,-1,23
 735 -30 735 -30 717 -30 c 0,24,25
 680 -30 680 -30 654.5 12 c 128,-1,26
 629 54 629 54 624 129 c 1,27,28
 579 84 579 84 533.5 53.5 c 128,-1,29
 488 23 488 23 445.5 4.5 c 128,-1,30
 403 -14 403 -14 364 -22 c 128,-1,31
 325 -30 325 -30 293 -30 c 0,32,33
 251 -30 251 -30 210.5 -15.5 c 128,-1,34
 170 -1 170 -1 137.5 27.5 c 128,-1,35
 105 56 105 56 85 99.5 c 128,-1,36
 65 143 65 143 65 201 c 0,37,38
 65 269 65 269 89.5 316.5 c 128,-1,39
 114 364 114 364 151 401 c 0,40,41
 175 425 175 425 206.5 447.5 c 128,-1,42
 238 470 238 470 290.5 491 c 128,-1,43
 343 512 343 512 422.5 531.5 c 128,-1,44
 502 551 502 551 623 569 c 1,45,-1
 623 687 l 2,46,47
 623 718 623 718 617 744.5 c 128,-1,48
 611 771 611 771 596 790 c 128,-1,49
 581 809 581 809 556 819.5 c 128,-1,50
 531 830 531 830 493 830 c 0,51,52
 469 830 469 830 445 821 c 128,-1,53
 421 812 421 812 403 795.5 c 128,-1,54
 385 779 385 779 374.5 755.5 c 128,-1,55
 364 732 364 732 367 702 c 0,56,57
 368 696 368 696 351 687 c 128,-1,58
 334 678 334 678 308 668.5 c 128,-1,59
 282 659 282 659 250.5 649.5 c 128,-1,60
 219 640 219 640 190 633.5 c 128,-1,61
 161 627 161 627 138 623.5 c 128,-1,62
 115 620 115 620 107 622 c 1,63,-1
 86 676 l 1,64,65
 110 736 110 736 161.5 787.5 c 128,-1,66
 213 839 213 839 282 877.5 c 128,-1,67
 351 916 351 916 432.5 938 c 128,-1,68
 514 960 514 960 597 960 c 0,69,70
 666 960 666 960 716 942 c 128,-1,71
 766 924 766 924 798.5 891.5 c 128,-1,72
 831 859 831 859 847 815 c 128,-1,73
 863 771 863 771 863 720 c 2,74,-1
 863 238 l 2,75,76
 863 196 863 196 874 178 c 128,-1,77
 885 160 885 160 903 160 c 0,78,79
 910 160 910 160 917.5 161 c 128,-1,80
 925 162 925 162 935.5 165 c 128,-1,81
 946 168 946 168 960 173.5 c 128,-1,82
 974 179 974 179 994 187 c 1,83,-1
 1016 112 l 1,19,20
EndSplineSet
Substitution2: "'aalt' Access All Alternates lookup 7 subtable" a.SngStory
EndChar

StartChar: b
Encoding: 98 98 69
Width: 1100
GlyphClass: 2
Flags: W
AnchorPoint: "Anchor-4" 1100 900 basechar 0
AnchorPoint: "Anchor-3" 513 -100 basechar 0
AnchorPoint: "Anchor-2" 513 0 basechar 0
AnchorPoint: "Anchor-1" 513 -100 basechar 0
AnchorPoint: "Anchor-0" 568 1620 basechar 0
LayerCount: 2
Fore
SplineSet
804 416 m 0,0,1
 804 516 804 516 786.5 586.5 c 128,-1,2
 769 657 769 657 739 702 c 128,-1,3
 709 747 709 747 668.5 767.5 c 128,-1,4
 628 788 628 788 582 788 c 0,5,6
 547 788 547 788 492.5 764 c 128,-1,7
 438 740 438 740 365 678 c 1,8,-1
 365 218 l 1,9,10
 445 175 445 175 506.5 156.5 c 128,-1,11
 568 138 568 138 597 138 c 0,12,13
 649 138 649 138 688 160 c 128,-1,14
 727 182 727 182 753 219.5 c 128,-1,15
 779 257 779 257 791.5 307.5 c 128,-1,16
 804 358 804 358 804 416 c 0,0,1
1025 507 m 0,17,18
 1025 449 1025 449 1004 386.5 c 128,-1,19
 983 324 983 324 946 264.5 c 128,-1,20
 909 205 909 205 858.5 151.5 c 128,-1,21
 808 98 808 98 750 57.5 c 128,-1,22
 692 17 692 17 627.5 -6.5 c 128,-1,23
 563 -30 563 -30 499 -30 c 0,24,25
 472 -30 472 -30 430 -20.5 c 128,-1,26
 388 -11 388 -11 338.5 6 c 128,-1,27
 289 23 289 23 234 46 c 128,-1,28
 179 69 179 69 125 96 c 1,29,-1
 125 1266 l 2,30,31
 125 1312 125 1312 121.5 1337 c 128,-1,32
 118 1362 118 1362 105 1374.5 c 128,-1,33
 92 1387 92 1387 68 1391 c 128,-1,34
 44 1395 44 1395 3 1400 c 1,35,-1
 3 1470 l 1,36,37
 50 1478 50 1478 91.5 1485.5 c 128,-1,38
 133 1493 133 1493 171.5 1502.5 c 128,-1,39
 210 1512 210 1512 247 1523.5 c 128,-1,40
 284 1535 284 1535 321 1550 c 1,41,42
 325 1546 325 1546 332 1539.5 c 128,-1,43
 339 1533 339 1533 347 1526 c 0,44,45
 356 1518 356 1518 365 1509 c 1,46,-1
 365 802 l 1,47,48
 415 845 415 845 463.5 875 c 128,-1,49
 512 905 512 905 556.5 924 c 128,-1,50
 601 943 601 943 638.5 951.5 c 128,-1,51
 676 960 676 960 705 960 c 0,52,53
 779 960 779 960 838 928 c 128,-1,54
 897 896 897 896 938.5 837 c 128,-1,55
 980 778 980 778 1002.5 694.5 c 128,-1,56
 1025 611 1025 611 1025 507 c 0,17,18
EndSplineSet
EndChar

StartChar: c
Encoding: 99 99 70
Width: 933
GlyphClass: 2
Flags: W
AnchorPoint: "Anchor-4" 933 900 basechar 0
AnchorPoint: "Anchor-3" 511 -100 basechar 0
AnchorPoint: "Anchor-2" 511 0 basechar 0
AnchorPoint: "Anchor-1" 511 -100 basechar 0
AnchorPoint: "Anchor-0" 511 1050 basechar 0
LayerCount: 2
Fore
SplineSet
893 190 m 1,0,1
 828 116 828 116 773 72.5 c 128,-1,2
 718 29 718 29 668.5 6 c 128,-1,3
 619 -17 619 -17 573 -23.5 c 128,-1,4
 527 -30 527 -30 480 -30 c 0,5,6
 399 -30 399 -30 324 2.5 c 128,-1,7
 249 35 249 35 191.5 96 c 128,-1,8
 134 157 134 157 99.5 245 c 128,-1,9
 65 333 65 333 65 444 c 0,10,11
 65 552 65 552 105 646 c 128,-1,12
 145 740 145 740 216.5 809.5 c 128,-1,13
 288 879 288 879 387 919.5 c 128,-1,14
 486 960 486 960 605 960 c 0,15,16
 638 960 638 960 679.5 954.5 c 128,-1,17
 721 949 721 949 761 938.5 c 128,-1,18
 801 928 801 928 834.5 913.5 c 128,-1,19
 868 899 868 899 885 881 c 1,20,21
 886 873 886 873 882.5 853 c 128,-1,22
 879 833 879 833 872.5 807 c 128,-1,23
 866 781 866 781 857 752 c 128,-1,24
 848 723 848 723 839 697 c 128,-1,25
 830 671 830 671 821 650 c 128,-1,26
 812 629 812 629 806 620 c 1,27,-1
 739 630 l 1,28,29
 706 728 706 728 658 781.5 c 128,-1,30
 610 835 610 835 530 835 c 0,31,32
 486 835 486 835 445.5 815 c 128,-1,33
 405 795 405 795 374 751.5 c 128,-1,34
 343 708 343 708 324 640 c 128,-1,35
 305 572 305 572 305 475 c 0,36,37
 305 395 305 395 325.5 332.5 c 128,-1,38
 346 270 346 270 381.5 227 c 128,-1,39
 417 184 417 184 465 161 c 128,-1,40
 513 138 513 138 567 138 c 0,41,42
 595 138 595 138 621 141.5 c 128,-1,43
 647 145 647 145 678 157 c 128,-1,44
 709 169 709 169 747.5 192 c 128,-1,45
 786 215 786 215 839 254 c 1,46,-1
 893 190 l 1,0,1
EndSplineSet
EndChar

StartChar: d
Encoding: 100 100 71
Width: 1148
GlyphClass: 2
Flags: W
AnchorPoint: "Anchor-4" 1148 900 basechar 0
AnchorPoint: "Anchor-3" 558 -100 basechar 0
AnchorPoint: "Anchor-2" 885 0 basechar 0
AnchorPoint: "Anchor-1" 558 -100 basechar 0
AnchorPoint: "Anchor-0" 347 1050 basechar 0
LayerCount: 2
Fore
SplineSet
1141 114 m 1,0,1
 1095 83 1095 83 1048 57 c 128,-1,2
 1001 31 1001 31 960.5 11.5 c 128,-1,3
 920 -8 920 -8 889 -19 c 128,-1,4
 858 -30 858 -30 844 -30 c 0,5,6
 772 -30 772 -30 752 145 c 1,7,8
 706 98 706 98 667.5 65 c 128,-1,9
 629 32 629 32 592 11 c 128,-1,10
 555 -10 555 -10 516 -20 c 128,-1,11
 477 -30 477 -30 431 -30 c 0,12,13
 364 -30 364 -30 298.5 2.5 c 128,-1,14
 233 35 233 35 181 96 c 128,-1,15
 129 157 129 157 97 245 c 128,-1,16
 65 333 65 333 65 444 c 0,17,18
 65 544 65 544 100.5 637.5 c 128,-1,19
 136 731 136 731 200.5 802.5 c 128,-1,20
 265 874 265 874 354.5 917 c 128,-1,21
 444 960 444 960 551 960 c 0,22,23
 598 960 598 960 644.5 949 c 128,-1,24
 691 938 691 938 745 901 c 1,25,-1
 745 1244 l 2,26,27
 745 1299 745 1299 743.5 1331.5 c 128,-1,28
 742 1364 742 1364 729.5 1381.5 c 128,-1,29
 717 1399 717 1399 689 1405.5 c 128,-1,30
 661 1412 661 1412 608 1416 c 1,31,-1
 608 1485 l 1,32,33
 718 1496 718 1496 806.5 1514.5 c 128,-1,34
 895 1533 895 1533 947 1550 c 1,35,-1
 985 1513 l 1,36,-1
 985 299 l 2,37,38
 985 264 985 264 986.5 240 c 128,-1,39
 988 216 988 216 990.5 201 c 128,-1,40
 993 186 993 186 997.5 178 c 128,-1,41
 1002 170 1002 170 1008 166 c 0,42,43
 1014 163 1014 163 1021 161.5 c 128,-1,44
 1028 160 1028 160 1039.5 161.5 c 128,-1,45
 1051 163 1051 163 1068.5 169 c 128,-1,46
 1086 175 1086 175 1113 187 c 1,47,-1
 1141 114 l 1,0,1
745 269 m 1,48,-1
 745 706 l 1,49,50
 709 764 709 764 655.5 796 c 128,-1,51
 602 828 602 828 535 828 c 0,52,53
 485 828 485 828 443 809 c 128,-1,54
 401 790 401 790 370.5 749.5 c 128,-1,55
 340 709 340 709 322.5 647 c 128,-1,56
 305 585 305 585 305 498 c 0,57,58
 305 418 305 418 325 355.5 c 128,-1,59
 345 293 345 293 377 249.5 c 128,-1,60
 409 206 409 206 450 183 c 128,-1,61
 491 160 491 160 532 160 c 0,62,63
 587 160 587 160 636.5 187.5 c 128,-1,64
 686 215 686 215 745 269 c 1,48,-1
EndSplineSet
EndChar

StartChar: e
Encoding: 101 101 72
Width: 991
GlyphClass: 2
Flags: W
AnchorPoint: "Anchor-4" 991 900 basechar 0
AnchorPoint: "Anchor-3" 744 0 basechar 0
AnchorPoint: "Anchor-2" 525 0 basechar 0
AnchorPoint: "Anchor-1" 525 -100 basechar 0
AnchorPoint: "Anchor-0" 536 1050 basechar 0
LayerCount: 2
Fore
SplineSet
511 840 m 0,0,1
 464 840 464 840 430 822 c 128,-1,2
 396 804 396 804 372.5 770 c 128,-1,3
 349 736 349 736 335.5 688 c 128,-1,4
 322 640 322 640 316 580 c 1,5,-1
 649 580 l 2,6,7
 672 580 672 580 679.5 587.5 c 128,-1,8
 687 595 687 595 687 616 c 0,9,10
 687 646 687 646 679 684.5 c 128,-1,11
 671 723 671 723 650.5 757.5 c 128,-1,12
 630 792 630 792 596 816 c 128,-1,13
 562 840 562 840 511 840 c 0,0,1
926 550 m 1,14,15
 917 540 917 540 900 528 c 128,-1,16
 883 516 883 516 863 505 c 128,-1,17
 843 494 843 494 822.5 484 c 128,-1,18
 802 474 802 474 786 468 c 1,19,-1
 313 468 l 1,20,21
 315 396 315 396 332.5 335.5 c 128,-1,22
 350 275 350 275 382 231 c 128,-1,23
 414 187 414 187 459.5 162.5 c 128,-1,24
 505 138 505 138 564 138 c 0,25,26
 595 138 595 138 624.5 141.5 c 128,-1,27
 654 145 654 145 688.5 158 c 128,-1,28
 723 171 723 171 766 194.5 c 128,-1,29
 809 218 809 218 868 259 c 1,30,31
 874 256 874 256 882.5 247 c 128,-1,32
 891 238 891 238 898.5 227.5 c 128,-1,33
 906 217 906 217 912 208 c 128,-1,34
 918 199 918 199 920 195 c 1,35,36
 851 125 851 125 796 81 c 128,-1,37
 741 37 741 37 690.5 12.5 c 128,-1,38
 640 -12 640 -12 590 -21 c 128,-1,39
 540 -30 540 -30 480 -30 c 0,40,41
 395 -30 395 -30 319.5 4 c 128,-1,42
 244 38 244 38 187.5 100 c 128,-1,43
 131 162 131 162 98 249 c 128,-1,44
 65 336 65 336 65 442 c 0,45,46
 65 578 65 578 116.5 684.5 c 128,-1,47
 168 791 168 791 271 866 c 0,48,49
 297 885 297 885 329.5 902.5 c 128,-1,50
 362 920 362 920 397.5 932.5 c 128,-1,51
 433 945 433 945 471 952.5 c 128,-1,52
 509 960 509 960 547 960 c 0,53,54
 645 960 645 960 716.5 926 c 128,-1,55
 788 892 788 892 834.5 835.5 c 128,-1,56
 881 779 881 779 903.5 705 c 128,-1,57
 926 631 926 631 926 550 c 1,14,15
EndSplineSet
EndChar

StartChar: f
Encoding: 102 102 73
Width: 696
GlyphClass: 2
Flags: W
AnchorPoint: "Anchor-4" 696 900 basechar 0
AnchorPoint: "Anchor-3" 347 -100 basechar 0
AnchorPoint: "Anchor-2" 292 0 basechar 0
AnchorPoint: "Anchor-1" 347 -100 basechar 0
AnchorPoint: "Anchor-0" 480 1620 basechar 0
LayerCount: 2
Fore
SplineSet
891 1454 m 0,0,1
 891 1443 891 1443 881.5 1427.5 c 128,-1,2
 872 1412 872 1412 857 1394.5 c 128,-1,3
 842 1377 842 1377 823 1359 c 128,-1,4
 804 1341 804 1341 786 1326 c 128,-1,5
 768 1311 768 1311 752 1299.5 c 128,-1,6
 736 1288 736 1288 726 1283 c 1,7,8
 678 1343 678 1343 633 1369 c 128,-1,9
 588 1395 588 1395 556 1395 c 0,10,11
 530 1395 530 1395 506.5 1379 c 128,-1,12
 483 1363 483 1363 465 1321 c 128,-1,13
 447 1279 447 1279 436 1205 c 128,-1,14
 425 1131 425 1131 425 1016 c 2,15,-1
 425 930 l 1,16,-1
 674 930 l 1,17,-1
 711 894 l 1,18,19
 702 877 702 877 688.5 858.5 c 128,-1,20
 675 840 675 840 661.5 822.5 c 128,-1,21
 648 805 648 805 635 791 c 128,-1,22
 622 777 622 777 613 770 c 1,23,24
 590 782 590 782 547.5 793.5 c 128,-1,25
 505 805 505 805 425 805 c 1,26,-1
 425 132 l 2,27,28
 425 126 425 126 434.5 120 c 128,-1,29
 444 114 444 114 467.5 107.5 c 128,-1,30
 491 101 491 101 529.5 92.5 c 128,-1,31
 568 84 568 84 627 73 c 1,32,-1
 627 0 l 1,33,-1
 53 0 l 1,34,-1
 53 73 l 1,35,36
 122 85 122 85 153.5 102.5 c 128,-1,37
 185 120 185 120 185 132 c 2,38,-1
 185 805 l 1,39,-1
 66 805 l 1,40,-1
 38 841 l 1,41,-1
 116 930 l 1,42,-1
 185 930 l 1,43,-1
 185 961 l 2,44,45
 185 1043 185 1043 196.5 1110 c 128,-1,46
 208 1177 208 1177 229.5 1231.5 c 128,-1,47
 251 1286 251 1286 282.5 1330.5 c 128,-1,48
 314 1375 314 1375 354 1413 c 0,49,50
 391 1449 391 1449 430.5 1474.5 c 128,-1,51
 470 1500 470 1500 508.5 1517 c 128,-1,52
 547 1534 547 1534 583.5 1542 c 128,-1,53
 620 1550 620 1550 650 1550 c 0,54,55
 695 1550 695 1550 738.5 1538 c 128,-1,56
 782 1526 782 1526 815.5 1510.5 c 128,-1,57
 849 1495 849 1495 870 1479 c 128,-1,58
 891 1463 891 1463 891 1454 c 0,0,1
EndSplineSet
EndChar

StartChar: g
Encoding: 103 103 74
Width: 1059
GlyphClass: 2
Flags: W
AnchorPoint: "Anchor-4" 1059 900 basechar 0
AnchorPoint: "Anchor-3" 525 -600 basechar 0
AnchorPoint: "Anchor-2" 525 -470 basechar 0
AnchorPoint: "Anchor-1" 525 -600 basechar 0
AnchorPoint: "Anchor-0" 525 1050 basechar 0
LayerCount: 2
Fore
SplineSet
668 600 m 0,0,1
 668 651 668 651 654.5 695.5 c 128,-1,2
 641 740 641 740 615 773 c 128,-1,3
 589 806 589 806 550.5 825.5 c 128,-1,4
 512 845 512 845 461 845 c 0,5,6
 436 845 436 845 410 833.5 c 128,-1,7
 384 822 384 822 363 799 c 128,-1,8
 342 776 342 776 328.5 741 c 128,-1,9
 315 706 315 706 315 659 c 0,10,11
 315 609 315 609 327 564.5 c 128,-1,12
 339 520 339 520 364.5 487 c 128,-1,13
 390 454 390 454 429 434.5 c 128,-1,14
 468 415 468 415 522 415 c 0,15,16
 551 415 551 415 577.5 426.5 c 128,-1,17
 604 438 604 438 624 461 c 128,-1,18
 644 484 644 484 656 518.5 c 128,-1,19
 668 553 668 553 668 600 c 0,0,1
556 -42 m 0,20,21
 508 -36 508 -36 466 -28 c 128,-1,22
 424 -20 424 -20 387 -12 c 1,23,24
 341 -44 341 -44 314.5 -69 c 128,-1,25
 288 -94 288 -94 275 -114.5 c 128,-1,26
 262 -135 262 -135 258.5 -151.5 c 128,-1,27
 255 -168 255 -168 255 -183 c 0,28,29
 255 -216 255 -216 279.5 -246.5 c 128,-1,30
 304 -277 304 -277 347 -300 c 128,-1,31
 390 -323 390 -323 448.5 -336.5 c 128,-1,32
 507 -350 507 -350 575 -350 c 0,33,34
 634 -350 634 -350 677 -335.5 c 128,-1,35
 720 -321 720 -321 748.5 -296 c 128,-1,36
 777 -271 777 -271 791 -239 c 128,-1,37
 805 -207 805 -207 805 -172 c 0,38,39
 805 -153 805 -153 796 -134 c 128,-1,40
 787 -115 787 -115 760 -98 c 128,-1,41
 733 -81 733 -81 684 -66.5 c 128,-1,42
 635 -52 635 -52 556 -42 c 0,20,21
898 641 m 0,43,44
 898 564 898 564 864 500.5 c 128,-1,45
 830 437 830 437 773 391.5 c 128,-1,46
 716 346 716 346 641 320.5 c 128,-1,47
 566 295 566 295 483 295 c 2,48,-1
 473 295 l 1,49,50
 435 260 435 260 424.5 238.5 c 128,-1,51
 414 217 414 217 414 211 c 0,52,53
 414 202 414 202 420 193.5 c 128,-1,54
 426 185 426 185 448.5 176.5 c 128,-1,55
 471 168 471 168 516.5 159 c 128,-1,56
 562 150 562 150 640 140 c 0,57,58
 757 125 757 125 834 103.5 c 128,-1,59
 911 82 911 82 956.5 52 c 128,-1,60
 1002 22 1002 22 1020 -17 c 128,-1,61
 1038 -56 1038 -56 1038 -105 c 0,62,63
 1038 -152 1038 -152 1016.5 -199 c 128,-1,64
 995 -246 995 -246 957 -289.5 c 128,-1,65
 919 -333 919 -333 868 -370 c 128,-1,66
 817 -407 817 -407 757.5 -434.5 c 128,-1,67
 698 -462 698 -462 633.5 -477.5 c 128,-1,68
 569 -493 569 -493 505 -493 c 0,69,70
 453 -493 453 -493 396.5 -486.5 c 128,-1,71
 340 -480 340 -480 285.5 -466 c 128,-1,72
 231 -452 231 -452 182 -430.5 c 128,-1,73
 133 -409 133 -409 96 -378.5 c 128,-1,74
 59 -348 59 -348 37 -309 c 128,-1,75
 15 -270 15 -270 15 -222 c 0,76,77
 15 -197 15 -197 25.5 -171 c 128,-1,78
 36 -145 36 -145 64 -115.5 c 128,-1,79
 92 -86 92 -86 140.5 -51.5 c 128,-1,80
 189 -17 189 -17 266 25 c 1,81,82
 152 71 152 71 152 123 c 0,83,84
 152 134 152 134 161.5 152.5 c 128,-1,85
 171 171 171 171 192.5 195.5 c 128,-1,86
 214 220 214 220 249 250 c 128,-1,87
 284 280 284 280 334 314 c 1,88,89
 278 329 278 329 232 356 c 128,-1,90
 186 383 186 383 153.5 420 c 128,-1,91
 121 457 121 457 103 503 c 128,-1,92
 85 549 85 549 85 602 c 0,93,94
 85 675 85 675 121 740.5 c 128,-1,95
 157 806 157 806 217 854.5 c 128,-1,96
 277 903 277 903 356.5 931.5 c 128,-1,97
 436 960 436 960 523 960 c 0,98,99
 592 960 592 960 652 941 c 128,-1,100
 712 922 712 922 760 890 c 1,101,102
 847 901 847 901 917.5 923 c 128,-1,103
 988 945 988 945 1029 960 c 1,104,-1
 1057 923 l 1,105,106
 1054 912 1054 912 1047.5 897 c 128,-1,107
 1041 882 1041 882 1033.5 866.5 c 128,-1,108
 1026 851 1026 851 1017.5 835.5 c 128,-1,109
 1009 820 1009 820 1000 808 c 1,110,111
 966 802 966 802 931 798 c 128,-1,112
 896 794 896 794 854 792 c 1,113,114
 875 757 875 757 886.5 719.5 c 128,-1,115
 898 682 898 682 898 641 c 0,43,44
EndSplineSet
Substitution2: "'aalt' Access All Alternates lookup 7 subtable" g.SngBowl
EndChar

StartChar: h
Encoding: 104 104 75
Width: 1190
GlyphClass: 2
Flags: W
AnchorPoint: "Anchor-4" 1190 900 basechar 0
AnchorPoint: "Anchor-3" 607 -100 basechar 0
AnchorPoint: "Anchor-2" 264 0 basechar 0
AnchorPoint: "Anchor-1" 607 -100 basechar 0
AnchorPoint: "Anchor-0" 607 1620 basechar 0
LayerCount: 2
Fore
SplineSet
663 0 m 1,0,-1
 663 73 l 1,1,2
 735 92 735 92 765 106 c 128,-1,3
 795 120 795 120 795 134 c 2,4,-1
 795 573 l 2,5,6
 795 634 795 634 788.5 673.5 c 128,-1,7
 782 713 782 713 768.5 736 c 128,-1,8
 755 759 755 759 733.5 768.5 c 128,-1,9
 712 778 712 778 682 778 c 0,10,11
 624 778 624 778 562.5 742 c 128,-1,12
 501 706 501 706 420 639 c 1,13,-1
 420 134 l 2,14,15
 420 119 420 119 454 103 c 128,-1,16
 488 87 488 87 553 73 c 1,17,-1
 553 0 l 1,18,-1
 48 0 l 1,19,-1
 48 73 l 1,20,21
 114 90 114 90 147 103.5 c 128,-1,22
 180 117 180 117 180 134 c 2,23,-1
 180 1268 l 2,24,25
 180 1310 180 1310 177.5 1333.5 c 128,-1,26
 175 1357 175 1357 162.5 1370 c 128,-1,27
 150 1383 150 1383 123 1388.5 c 128,-1,28
 96 1394 96 1394 48 1400 c 1,29,-1
 48 1470 l 1,30,31
 104 1478 104 1478 148.5 1486 c 128,-1,32
 193 1494 193 1494 231 1503.5 c 128,-1,33
 269 1513 269 1513 304 1524 c 128,-1,34
 339 1535 339 1535 376 1550 c 1,35,-1
 420 1509 l 1,36,-1
 420 782 l 1,37,38
 535 876 535 876 635.5 918 c 128,-1,39
 736 960 736 960 814 960 c 0,40,41
 857 960 857 960 897 946.5 c 128,-1,42
 937 933 937 933 967.5 902.5 c 128,-1,43
 998 872 998 872 1016.5 823 c 128,-1,44
 1035 774 1035 774 1035 704 c 2,45,-1
 1035 134 l 2,46,47
 1035 127 1035 127 1041 120.5 c 128,-1,48
 1047 114 1047 114 1062 107 c 128,-1,49
 1077 100 1077 100 1103 91.5 c 128,-1,50
 1129 83 1129 83 1168 73 c 1,51,-1
 1168 0 l 1,52,-1
 663 0 l 1,0,-1
EndSplineSet
EndChar

StartChar: i
Encoding: 105 105 76
Width: 615
GlyphClass: 2
Flags: W
AnchorPoint: "Anchor-4" 615 900 basechar 0
AnchorPoint: "Anchor-3" 373 0 basechar 0
AnchorPoint: "Anchor-2" 315 0 basechar 0
AnchorPoint: "Anchor-1" 315 -100 basechar 0
AnchorPoint: "Anchor-0" 315 1050 basechar 0
LayerCount: 2
Fore
SplineSet
63 0 m 1,0,-1
 63 73 l 1,1,2
 131 87 131 87 163 103.5 c 128,-1,3
 195 120 195 120 195 134 c 2,4,-1
 195 648 l 2,5,6
 195 699 195 699 194 730.5 c 128,-1,7
 193 762 193 762 181.5 779.5 c 128,-1,8
 170 797 170 797 143 805 c 128,-1,9
 116 813 116 813 63 818 c 1,10,-1
 63 888 l 1,11,12
 149 900 149 900 226 917.5 c 128,-1,13
 303 935 303 935 371 960 c 1,14,-1
 435 960 l 1,15,-1
 435 134 l 2,16,17
 435 122 435 122 465 104.5 c 128,-1,18
 495 87 495 87 568 73 c 1,19,-1
 568 0 l 1,20,-1
 63 0 l 1,0,-1
473 1261 m 0,21,22
 473 1227 473 1227 460 1199 c 128,-1,23
 447 1171 447 1171 424.5 1151 c 128,-1,24
 402 1131 402 1131 371.5 1120 c 128,-1,25
 341 1109 341 1109 305 1109 c 0,26,27
 277 1109 277 1109 252 1115.5 c 128,-1,28
 227 1122 227 1122 208.5 1136 c 128,-1,29
 190 1150 190 1150 179 1170.5 c 128,-1,30
 168 1191 168 1191 168 1220 c 0,31,32
 168 1254 168 1254 181 1282 c 128,-1,33
 194 1310 194 1310 216.5 1329.5 c 128,-1,34
 239 1349 239 1349 269.5 1360 c 128,-1,35
 300 1371 300 1371 335 1371 c 0,36,37
 362 1371 362 1371 387 1364.5 c 128,-1,38
 412 1358 412 1358 431 1344.5 c 128,-1,39
 450 1331 450 1331 461.5 1310.5 c 128,-1,40
 473 1290 473 1290 473 1261 c 0,21,22
EndSplineSet
Substitution2: "Single Substitution lookup 1 subtable" i.Dotless
EndChar

StartChar: j
Encoding: 106 106 77
Width: 590
GlyphClass: 2
Flags: W
AnchorPoint: "Anchor-4" 590 900 basechar 0
AnchorPoint: "Anchor-3" 310 -600 basechar 0
AnchorPoint: "Anchor-2" 310 -600 basechar 0
AnchorPoint: "Anchor-1" 310 -600 basechar 0
AnchorPoint: "Anchor-0" 310 1050 basechar 0
LayerCount: 2
Fore
SplineSet
430 107 m 2,0,1
 430 -9 430 -9 409.5 -88 c 128,-1,2
 389 -167 389 -167 356.5 -222.5 c 128,-1,3
 324 -278 324 -278 283.5 -315.5 c 128,-1,4
 243 -353 243 -353 203 -385 c 0,5,6
 176 -406 176 -406 143 -425.5 c 128,-1,7
 110 -445 110 -445 75.5 -460 c 128,-1,8
 41 -475 41 -475 7.5 -484 c 128,-1,9
 -26 -493 -26 -493 -54 -493 c 0,10,11
 -93 -493 -93 -493 -134.5 -483 c 128,-1,12
 -176 -473 -176 -473 -210 -458.5 c 128,-1,13
 -244 -444 -244 -444 -266 -428 c 128,-1,14
 -288 -412 -288 -412 -288 -401 c 0,15,16
 -288 -387 -288 -387 -266.5 -362 c 128,-1,17
 -245 -337 -245 -337 -216.5 -312 c 128,-1,18
 -188 -287 -188 -287 -159.5 -266 c 128,-1,19
 -131 -245 -131 -245 -116 -238 c 1,20,21
 -100 -258 -100 -258 -77 -273 c 128,-1,22
 -54 -288 -54 -288 -30 -298.5 c 128,-1,23
 -6 -309 -6 -309 17.5 -314.5 c 128,-1,24
 41 -320 41 -320 60 -320 c 0,25,26
 86 -320 86 -320 109.5 -305.5 c 128,-1,27
 133 -291 133 -291 151 -251.5 c 128,-1,28
 169 -212 169 -212 179.5 -141 c 128,-1,29
 190 -70 190 -70 190 43 c 2,30,-1
 190 648 l 2,31,32
 190 699 190 699 189 730 c 128,-1,33
 188 761 188 761 176 778.5 c 128,-1,34
 164 796 164 796 137 804 c 128,-1,35
 110 812 110 812 58 818 c 1,36,-1
 58 888 l 1,37,38
 111 895 111 895 150.5 902.5 c 128,-1,39
 190 910 190 910 224 918.5 c 128,-1,40
 258 927 258 927 290.5 937 c 128,-1,41
 323 947 323 947 363 960 c 1,42,-1
 430 960 l 1,43,-1
 430 107 l 2,0,1
471 1261 m 0,44,45
 471 1227 471 1227 458.5 1199 c 128,-1,46
 446 1171 446 1171 423.5 1151 c 128,-1,47
 401 1131 401 1131 370.5 1120 c 128,-1,48
 340 1109 340 1109 304 1109 c 0,49,50
 276 1109 276 1109 251 1115.5 c 128,-1,51
 226 1122 226 1122 207 1136 c 128,-1,52
 188 1150 188 1150 177 1170.5 c 128,-1,53
 166 1191 166 1191 166 1220 c 0,54,55
 166 1254 166 1254 179 1282 c 128,-1,56
 192 1310 192 1310 215 1329.5 c 128,-1,57
 238 1349 238 1349 268.5 1360 c 128,-1,58
 299 1371 299 1371 334 1371 c 0,59,60
 361 1371 361 1371 386 1364.5 c 128,-1,61
 411 1358 411 1358 429.5 1344.5 c 128,-1,62
 448 1331 448 1331 459.5 1310.5 c 128,-1,63
 471 1290 471 1290 471 1261 c 0,44,45
EndSplineSet
Substitution2: "Single Substitution lookup 1 subtable" j.Dotless
EndChar

StartChar: k
Encoding: 107 107 78
Width: 1129
GlyphClass: 2
Flags: W
AnchorPoint: "Anchor-4" 1129 900 basechar 0
AnchorPoint: "Anchor-3" 592 -100 basechar 0
AnchorPoint: "Anchor-2" 295 0 basechar 0
AnchorPoint: "Anchor-1" 592 -100 basechar 0
AnchorPoint: "Anchor-0" 592 1620 basechar 0
LayerCount: 2
Fore
SplineSet
48 0 m 1,0,-1
 48 73 l 1,1,2
 114 90 114 90 147 103 c 128,-1,3
 180 116 180 116 180 134 c 2,4,-1
 180 1266 l 2,5,6
 180 1312 180 1312 175.5 1337 c 128,-1,7
 171 1362 171 1362 157 1374.5 c 128,-1,8
 143 1387 143 1387 117 1391 c 128,-1,9
 91 1395 91 1395 48 1400 c 1,10,-1
 48 1470 l 1,11,12
 145 1484 145 1484 226.5 1502 c 128,-1,13
 308 1520 308 1520 376 1550 c 1,14,-1
 420 1509 l 1,15,-1
 420 534 l 1,16,-1
 683 769 l 2,17,18
 716 799 716 799 725.5 816.5 c 128,-1,19
 735 834 735 834 728 843 c 128,-1,20
 721 852 721 852 701 854.5 c 128,-1,21
 681 857 681 857 655 857 c 1,22,-1
 655 930 l 1,23,-1
 1102 930 l 1,24,-1
 1102 857 l 1,25,26
 1057 852 1057 852 1013.5 836 c 128,-1,27
 970 820 970 820 927 788 c 2,28,-1
 623 558 l 1,29,-1
 984 149 l 2,30,31
 998 133 998 133 1011.5 123.5 c 128,-1,32
 1025 114 1025 114 1042 109.5 c 128,-1,33
 1059 105 1059 105 1080.5 104.5 c 128,-1,34
 1102 104 1102 104 1131 106 c 1,35,-1
 1137 33 l 1,36,37
 1108 26 1108 26 1071 18.5 c 128,-1,38
 1034 11 1034 11 999.5 4.5 c 128,-1,39
 965 -2 965 -2 937.5 -6 c 128,-1,40
 910 -10 910 -10 900 -10 c 0,41,42
 858 -10 858 -10 829 2 c 128,-1,43
 800 14 800 14 778 43 c 2,44,-1
 420 517 l 1,45,-1
 420 134 l 2,46,47
 420 126 420 126 423.5 120 c 128,-1,48
 427 114 427 114 438 107.5 c 128,-1,49
 449 101 449 101 471 93 c 128,-1,50
 493 85 493 85 530 73 c 1,51,-1
 530 0 l 1,52,-1
 48 0 l 1,0,-1
EndSplineSet
EndChar

StartChar: l
Encoding: 108 108 79
Width: 615
GlyphClass: 2
Flags: W
AnchorPoint: "Anchor-4" 595 900 basechar 0
AnchorPoint: "Anchor-3" 315 -100 basechar 0
AnchorPoint: "Anchor-2" 315 0 basechar 0
AnchorPoint: "Anchor-1" 315 -100 basechar 0
AnchorPoint: "Anchor-0" 315 1690 basechar 0
LayerCount: 2
Fore
SplineSet
53 0 m 1,0,-1
 53 73 l 1,1,2
 96 80 96 80 123.5 87.5 c 128,-1,3
 151 95 151 95 167 102.5 c 128,-1,4
 183 110 183 110 189 118 c 128,-1,5
 195 126 195 126 195 134 c 2,6,-1
 195 1266 l 2,7,8
 195 1311 195 1311 190 1336 c 128,-1,9
 185 1361 185 1361 171 1373.5 c 128,-1,10
 157 1386 157 1386 131 1390.5 c 128,-1,11
 105 1395 105 1395 63 1400 c 1,12,-1
 63 1470 l 1,13,14
 113 1477 113 1477 156 1484.5 c 128,-1,15
 199 1492 199 1492 238 1501 c 128,-1,16
 277 1510 277 1510 315 1522 c 128,-1,17
 353 1534 353 1534 392 1550 c 1,18,-1
 435 1509 l 1,19,-1
 435 134 l 2,20,21
 435 126 435 126 442 118.5 c 128,-1,22
 449 111 449 111 465.5 103 c 128,-1,23
 482 95 482 95 509.5 87.5 c 128,-1,24
 537 80 537 80 578 73 c 1,25,-1
 578 0 l 1,26,-1
 53 0 l 1,0,-1
EndSplineSet
EndChar

StartChar: m
Encoding: 109 109 80
Width: 1728
GlyphClass: 2
Flags: W
AnchorPoint: "Anchor-4" 1728 900 basechar 0
AnchorPoint: "Anchor-3" 876 -100 basechar 0
AnchorPoint: "Anchor-2" 1477 0 basechar 0
AnchorPoint: "Anchor-1" 876 -100 basechar 0
AnchorPoint: "Anchor-0" 876 1050 basechar 0
LayerCount: 2
Fore
SplineSet
1209 0 m 1,0,-1
 1209 73 l 1,1,2
 1245 82 1245 82 1267.5 90.5 c 128,-1,3
 1290 99 1290 99 1303 106.5 c 128,-1,4
 1316 114 1316 114 1320.5 120.5 c 128,-1,5
 1325 127 1325 127 1325 134 c 2,6,-1
 1325 603 l 2,7,8
 1325 664 1325 664 1318.5 701 c 128,-1,9
 1312 738 1312 738 1299.5 757 c 128,-1,10
 1287 776 1287 776 1267 782 c 128,-1,11
 1247 788 1247 788 1220 788 c 0,12,13
 1176 788 1176 788 1117 757 c 128,-1,14
 1058 726 1058 726 993 663 c 1,15,-1
 993 134 l 2,16,17
 993 127 993 127 998 120.5 c 128,-1,18
 1003 114 1003 114 1016.5 107 c 128,-1,19
 1030 100 1030 100 1055 91.5 c 128,-1,20
 1080 83 1080 83 1119 73 c 1,21,-1
 1119 0 l 1,22,-1
 636 0 l 1,23,-1
 636 73 l 1,24,25
 672 82 672 82 695 90.5 c 128,-1,26
 718 99 718 99 730.5 106.5 c 128,-1,27
 743 114 743 114 748 120.5 c 128,-1,28
 753 127 753 127 753 134 c 2,29,-1
 753 603 l 2,30,31
 753 664 753 664 748 701 c 128,-1,32
 743 738 743 738 731.5 757 c 128,-1,33
 720 776 720 776 701.5 782 c 128,-1,34
 683 788 683 788 655 788 c 0,35,36
 610 788 610 788 552 758 c 128,-1,37
 494 728 494 728 420 663 c 1,38,-1
 420 134 l 2,39,40
 420 119 420 119 450 103 c 128,-1,41
 480 87 480 87 545 73 c 1,42,-1
 545 0 l 1,43,-1
 48 0 l 1,44,-1
 48 73 l 1,45,46
 114 90 114 90 147 103.5 c 128,-1,47
 180 117 180 117 180 134 c 2,48,-1
 180 689 l 2,49,50
 180 729 180 729 177.5 752 c 128,-1,51
 175 775 175 775 162.5 787.5 c 128,-1,52
 150 800 150 800 123 806 c 128,-1,53
 96 812 96 812 48 818 c 1,54,-1
 48 888 l 1,55,56
 100 894 100 894 142 901 c 128,-1,57
 184 908 184 908 221.5 917 c 128,-1,58
 259 926 259 926 293 936.5 c 128,-1,59
 327 947 327 947 363 960 c 1,60,-1
 405 918 l 1,61,-1
 416 794 l 1,62,63
 472 843 472 843 519.5 875.5 c 128,-1,64
 567 908 567 908 609 926.5 c 128,-1,65
 651 945 651 945 689 952.5 c 128,-1,66
 727 960 727 960 763 960 c 0,67,68
 811 960 811 960 848 948 c 128,-1,69
 885 936 885 936 911 915.5 c 128,-1,70
 937 895 937 895 953 867.5 c 128,-1,71
 969 840 969 840 975 808 c 2,72,-1
 978 794 l 1,73,74
 1034 843 1034 843 1082 875 c 128,-1,75
 1130 907 1130 907 1172.5 926 c 128,-1,76
 1215 945 1215 945 1253 952.5 c 128,-1,77
 1291 960 1291 960 1328 960 c 0,78,79
 1376 960 1376 960 1419 946.5 c 128,-1,80
 1462 933 1462 933 1494.5 902.5 c 128,-1,81
 1527 872 1527 872 1546 823 c 128,-1,82
 1565 774 1565 774 1565 704 c 2,83,-1
 1565 134 l 2,84,85
 1565 120 1565 120 1596 106.5 c 128,-1,86
 1627 93 1627 93 1706 73 c 1,87,-1
 1706 0 l 1,88,-1
 1209 0 l 1,0,-1
EndSplineSet
EndChar

StartChar: n
Encoding: 110 110 81
Width: 1190
GlyphClass: 2
Flags: W
AnchorPoint: "Anchor-4" 1190 900 basechar 0
AnchorPoint: "Anchor-3" 607 -100 basechar 0
AnchorPoint: "Anchor-2" 937 0 basechar 0
AnchorPoint: "Anchor-1" 607 -100 basechar 0
AnchorPoint: "Anchor-0" 607 1050 basechar 0
LayerCount: 2
Fore
SplineSet
663 0 m 1,0,-1
 663 73 l 1,1,2
 735 92 735 92 765 106 c 128,-1,3
 795 120 795 120 795 134 c 2,4,-1
 795 588 l 2,5,6
 795 643 795 643 789.5 679.5 c 128,-1,7
 784 716 784 716 772 738 c 128,-1,8
 760 760 760 760 740 769 c 128,-1,9
 720 778 720 778 690 778 c 0,10,11
 666 778 666 778 639 771.5 c 128,-1,12
 612 765 612 765 579.5 749.5 c 128,-1,13
 547 734 547 734 507.5 707 c 128,-1,14
 468 680 468 680 420 639 c 1,15,-1
 420 134 l 2,16,17
 420 119 420 119 454 103 c 128,-1,18
 488 87 488 87 553 73 c 1,19,-1
 553 0 l 1,20,-1
 48 0 l 1,21,-1
 48 73 l 1,22,23
 114 90 114 90 147 103.5 c 128,-1,24
 180 117 180 117 180 134 c 2,25,-1
 180 689 l 2,26,27
 180 728 180 728 178.5 751 c 128,-1,28
 177 774 177 774 165 787 c 128,-1,29
 153 800 153 800 126 806 c 128,-1,30
 99 812 99 812 48 818 c 1,31,-1
 48 888 l 1,32,33
 96 893 96 893 137.5 900 c 128,-1,34
 179 907 179 907 217 915.5 c 128,-1,35
 255 924 255 924 291 935 c 128,-1,36
 327 946 327 946 363 960 c 1,37,-1
 405 918 l 1,38,-1
 416 774 l 1,39,40
 533 874 533 874 634.5 917 c 128,-1,41
 736 960 736 960 814 960 c 0,42,43
 857 960 857 960 897 946.5 c 128,-1,44
 937 933 937 933 967.5 902.5 c 128,-1,45
 998 872 998 872 1016.5 823 c 128,-1,46
 1035 774 1035 774 1035 704 c 2,47,-1
 1035 134 l 2,48,49
 1035 127 1035 127 1041 120.5 c 128,-1,50
 1047 114 1047 114 1062 107 c 128,-1,51
 1077 100 1077 100 1103 91.5 c 128,-1,52
 1129 83 1129 83 1168 73 c 1,53,-1
 1168 0 l 1,54,-1
 663 0 l 1,0,-1
EndSplineSet
EndChar

StartChar: o
Encoding: 111 111 82
Width: 1075
GlyphClass: 2
Flags: W
AnchorPoint: "Anchor-4" 1075 900 basechar 0
AnchorPoint: "Anchor-3" 602 0 basechar 0
AnchorPoint: "Anchor-2" 559 0 basechar 0
AnchorPoint: "Anchor-1" 559 -100 basechar 0
AnchorPoint: "Anchor-0" 559 1050 basechar 0
LayerCount: 2
Fore
SplineSet
758 440 m 0,0,1
 758 519 758 519 741.5 590.5 c 128,-1,2
 725 662 725 662 695 716.5 c 128,-1,3
 665 771 665 771 622.5 803 c 128,-1,4
 580 835 580 835 529 835 c 0,5,6
 467 835 467 835 426 807.5 c 128,-1,7
 385 780 385 780 361 731.5 c 128,-1,8
 337 683 337 683 327.5 616.5 c 128,-1,9
 318 550 318 550 318 473 c 0,10,11
 318 394 318 394 336.5 325 c 128,-1,12
 355 256 355 256 386.5 205 c 128,-1,13
 418 154 418 154 459.5 124.5 c 128,-1,14
 501 95 501 95 547 95 c 0,15,16
 607 95 607 95 647 118 c 128,-1,17
 687 141 687 141 712 185 c 128,-1,18
 737 229 737 229 747.5 293 c 128,-1,19
 758 357 758 357 758 440 c 0,0,1
1010 485 m 0,20,21
 1010 418 1010 418 992 354 c 128,-1,22
 974 290 974 290 941.5 233 c 128,-1,23
 909 176 909 176 864 127.5 c 128,-1,24
 819 79 819 79 764.5 44 c 128,-1,25
 710 9 710 9 647.5 -10.5 c 128,-1,26
 585 -30 585 -30 519 -30 c 0,27,28
 416 -30 416 -30 332 6 c 128,-1,29
 248 42 248 42 189 105 c 128,-1,30
 130 168 130 168 97.5 255 c 128,-1,31
 65 342 65 342 65 444 c 0,32,33
 65 543 65 543 101.5 636 c 128,-1,34
 138 729 138 729 203.5 801 c 128,-1,35
 269 873 269 873 359.5 916.5 c 128,-1,36
 450 960 450 960 558 960 c 0,37,38
 660 960 660 960 743.5 924 c 128,-1,39
 827 888 827 888 886.5 824.5 c 128,-1,40
 946 761 946 761 978 674 c 128,-1,41
 1010 587 1010 587 1010 485 c 0,20,21
EndSplineSet
EndChar

StartChar: p
Encoding: 112 112 83
Width: 1145
GlyphClass: 2
Flags: W
AnchorPoint: "Anchor-4" 1145 900 basechar 0
AnchorPoint: "Anchor-3" 563 -600 basechar 0
AnchorPoint: "Anchor-2" 667 -470 basechar 0
AnchorPoint: "Anchor-1" 563 -600 basechar 0
AnchorPoint: "Anchor-0" 563 1050 basechar 0
LayerCount: 2
Fore
SplineSet
855 426 m 0,0,1
 855 522 855 522 835 591 c 128,-1,2
 815 660 815 660 782 704 c 128,-1,3
 749 748 749 748 707.5 769 c 128,-1,4
 666 790 666 790 623 790 c 0,5,6
 605 790 605 790 587.5 786 c 128,-1,7
 570 782 570 782 547.5 770 c 128,-1,8
 525 758 525 758 494.5 736 c 128,-1,9
 464 714 464 714 420 678 c 1,10,-1
 420 228 l 1,11,12
 473 197 473 197 511.5 179 c 128,-1,13
 550 161 550 161 579.5 152 c 128,-1,14
 609 143 609 143 633 140.5 c 128,-1,15
 657 138 657 138 681 138 c 0,16,17
 720 138 720 138 752 157 c 128,-1,18
 784 176 784 176 807 212.5 c 128,-1,19
 830 249 830 249 842.5 303 c 128,-1,20
 855 357 855 357 855 426 c 0,0,1
1080 500 m 0,21,22
 1080 434 1080 434 1062.5 369.5 c 128,-1,23
 1045 305 1045 305 1015.5 246 c 128,-1,24
 986 187 986 187 947 136.5 c 128,-1,25
 908 86 908 86 865 49 c 128,-1,26
 822 12 822 12 777 -9 c 128,-1,27
 732 -30 732 -30 691 -30 c 0,28,29
 662 -30 662 -30 632.5 -24 c 128,-1,30
 603 -18 603 -18 570.5 -4.5 c 128,-1,31
 538 9 538 9 501 30.5 c 128,-1,32
 464 52 464 52 420 83 c 1,33,-1
 420 -345 l 2,34,35
 420 -361 420 -361 457.5 -377 c 128,-1,36
 495 -393 495 -393 589 -407 c 1,37,-1
 589 -480 l 1,38,-1
 48 -480 l 1,39,-1
 48 -407 l 1,40,41
 114 -391 114 -391 147 -376.5 c 128,-1,42
 180 -362 180 -362 180 -345 c 2,43,-1
 180 689 l 2,44,45
 180 726 180 726 177 750 c 128,-1,46
 174 774 174 774 161.5 788.5 c 128,-1,47
 149 803 149 803 122.5 809.5 c 128,-1,48
 96 816 96 816 48 818 c 1,49,-1
 48 888 l 1,50,51
 105 895 105 895 147 902 c 128,-1,52
 189 909 189 909 224.5 917.5 c 128,-1,53
 260 926 260 926 292.5 936 c 128,-1,54
 325 946 325 946 363 960 c 1,55,-1
 405 918 l 1,56,-1
 414 795 l 1,57,58
 469 844 469 844 517 875.5 c 128,-1,59
 565 907 565 907 605.5 926 c 128,-1,60
 646 945 646 945 680 952.5 c 128,-1,61
 714 960 714 960 743 960 c 0,62,63
 811 960 811 960 872.5 932.5 c 128,-1,64
 934 905 934 905 980 848 c 128,-1,65
 1026 791 1026 791 1053 704.5 c 128,-1,66
 1080 618 1080 618 1080 500 c 0,21,22
EndSplineSet
EndChar

StartChar: q
Encoding: 113 113 84
Width: 1123
GlyphClass: 2
Flags: W
AnchorPoint: "Anchor-4" 1123 900 basechar 0
AnchorPoint: "Anchor-3" 587 -600 basechar 0
AnchorPoint: "Anchor-2" 587 -600 basechar 0
AnchorPoint: "Anchor-1" 587 -600 basechar 0
AnchorPoint: "Anchor-0" 587 1050 basechar 0
LayerCount: 2
Fore
SplineSet
525 160 m 0,0,1
 580 160 580 160 629.5 188 c 128,-1,2
 679 216 679 216 738 270 c 1,3,-1
 738 700 l 1,4,5
 721 729 721 729 696.5 752.5 c 128,-1,6
 672 776 672 776 644 793 c 128,-1,7
 616 810 616 810 586 819 c 128,-1,8
 556 828 556 828 528 828 c 0,9,10
 480 828 480 828 439.5 809.5 c 128,-1,11
 399 791 399 791 369 752 c 128,-1,12
 339 713 339 713 322 651.5 c 128,-1,13
 305 590 305 590 305 505 c 256,14,15
 305 420 305 420 324 355.5 c 128,-1,16
 343 291 343 291 374 247.5 c 128,-1,17
 405 204 405 204 444.5 182 c 128,-1,18
 484 160 484 160 525 160 c 0,0,1
568 -480 m 1,19,-1
 568 -407 l 1,20,21
 662 -393 662 -393 700 -377.5 c 128,-1,22
 738 -362 738 -362 738 -345 c 2,23,-1
 738 138 l 1,24,25
 693 93 693 93 654 61 c 128,-1,26
 615 29 615 29 576.5 9 c 128,-1,27
 538 -11 538 -11 497.5 -20.5 c 128,-1,28
 457 -30 457 -30 409 -30 c 0,29,30
 350 -30 350 -30 289 2.5 c 128,-1,31
 228 35 228 35 178.5 96 c 128,-1,32
 129 157 129 157 97 245 c 128,-1,33
 65 333 65 333 65 444 c 0,34,35
 65 532 65 532 87 601 c 128,-1,36
 109 670 109 670 143 723 c 128,-1,37
 177 776 177 776 217 813 c 128,-1,38
 257 850 257 850 292 873 c 0,39,40
 320 891 320 891 352.5 907 c 128,-1,41
 385 923 385 923 419 935 c 128,-1,42
 453 947 453 947 487 953.5 c 128,-1,43
 521 960 521 960 551 960 c 0,44,45
 580 960 580 960 607.5 956 c 128,-1,46
 635 952 635 952 664 940.5 c 128,-1,47
 693 929 693 929 724.5 907.5 c 128,-1,48
 756 886 756 886 793 850 c 1,49,50
 817 862 817 862 844 877.5 c 128,-1,51
 871 893 871 893 896 908 c 128,-1,52
 921 923 921 923 941 937 c 128,-1,53
 961 951 961 951 970 960 c 1,54,-1
 1009 923 l 1,55,56
 1000 891 1000 891 993 854 c 0,57,58
 987 822 987 822 982.5 781 c 128,-1,59
 978 740 978 740 978 695 c 2,60,-1
 978 -345 l 2,61,62
 978 -353 978 -353 984 -361 c 128,-1,63
 990 -369 990 -369 1005 -377 c 128,-1,64
 1020 -385 1020 -385 1045.5 -392.5 c 128,-1,65
 1071 -400 1071 -400 1109 -407 c 1,66,-1
 1109 -480 l 1,67,-1
 568 -480 l 1,19,-1
EndSplineSet
EndChar

StartChar: r
Encoding: 114 114 85
Width: 909
GlyphClass: 2
Flags: W
AnchorPoint: "Anchor-4" 909 900 basechar 0
AnchorPoint: "Anchor-3" 295 -100 basechar 0
AnchorPoint: "Anchor-2" 295 0 basechar 0
AnchorPoint: "Anchor-1" 295 -100 basechar 0
AnchorPoint: "Anchor-0" 503 1050 basechar 0
LayerCount: 2
Fore
SplineSet
875 916 m 0,0,1
 881 912 881 912 881 890.5 c 128,-1,2
 881 869 881 869 876.5 838 c 128,-1,3
 872 807 872 807 864 769 c 128,-1,4
 856 731 856 731 847 695 c 128,-1,5
 838 659 838 659 828 628 c 128,-1,6
 818 597 818 597 810 579 c 1,7,-1
 737 579 l 1,8,9
 734 619 734 619 725 655 c 128,-1,10
 716 691 716 691 702.5 717.5 c 128,-1,11
 689 744 689 744 669.5 759.5 c 128,-1,12
 650 775 650 775 626 775 c 0,13,14
 606 775 606 775 582.5 767.5 c 128,-1,15
 559 760 559 760 533 738.5 c 128,-1,16
 507 717 507 717 478.5 677 c 128,-1,17
 450 637 450 637 420 571 c 1,18,-1
 420 134 l 2,19,20
 420 119 420 119 461.5 103 c 128,-1,21
 503 87 503 87 597 73 c 1,22,-1
 597 0 l 1,23,-1
 48 0 l 1,24,-1
 48 73 l 1,25,26
 180 103 180 103 180 134 c 2,27,-1
 180 664 l 2,28,29
 180 697 180 697 178 719.5 c 128,-1,30
 176 742 176 742 173 756 c 128,-1,31
 170 770 170 770 165.5 778 c 128,-1,32
 161 786 161 786 157 791 c 0,33,34
 150 798 150 798 142.5 802.5 c 128,-1,35
 135 807 135 807 123.5 810 c 128,-1,36
 112 813 112 813 94 814.5 c 128,-1,37
 76 816 76 816 48 818 c 1,38,-1
 48 888 l 1,39,40
 103 896 103 896 143.5 903 c 128,-1,41
 184 910 184 910 219 918 c 128,-1,42
 254 926 254 926 287.5 936 c 128,-1,43
 321 946 321 946 363 960 c 1,44,-1
 405 918 l 1,45,-1
 418 773 l 1,46,47
 445 812 445 812 479 846 c 128,-1,48
 513 880 513 880 551.5 905.5 c 128,-1,49
 590 931 590 931 632 945.5 c 128,-1,50
 674 960 674 960 717 960 c 0,51,52
 755 960 755 960 796.5 948.5 c 128,-1,53
 838 937 838 937 875 916 c 0,0,1
EndSplineSet
EndChar

StartChar: s
Encoding: 115 115 86
Width: 858
GlyphClass: 2
Flags: W
AnchorPoint: "Anchor-4" 858 900 basechar 0
AnchorPoint: "Anchor-3" 429 -100 basechar 0
AnchorPoint: "Anchor-2" 414 0 basechar 0
AnchorPoint: "Anchor-1" 429 -100 basechar 0
AnchorPoint: "Anchor-0" 429 1050 basechar 0
LayerCount: 2
Fore
SplineSet
782 283 m 0,0,1
 782 212 782 212 760.5 161.5 c 128,-1,2
 739 111 739 111 704.5 76 c 128,-1,3
 670 41 670 41 627 20 c 128,-1,4
 584 -1 584 -1 539.5 -12 c 128,-1,5
 495 -23 495 -23 454.5 -26.5 c 128,-1,6
 414 -30 414 -30 385 -30 c 0,7,8
 353 -30 353 -30 315.5 -25.5 c 128,-1,9
 278 -21 278 -21 239 -12 c 128,-1,10
 200 -3 200 -3 161.5 11 c 128,-1,11
 123 25 123 25 90 43 c 0,12,13
 83 46 83 46 79.5 78.5 c 128,-1,14
 76 111 76 111 77 156 c 128,-1,15
 78 201 78 201 82.5 250 c 128,-1,16
 87 299 87 299 97 336 c 1,17,-1
 178 325 l 1,18,19
 188 272 188 272 211 229 c 128,-1,20
 234 186 234 186 266 156 c 128,-1,21
 298 126 298 126 337.5 109.5 c 128,-1,22
 377 93 377 93 420 93 c 0,23,24
 492 93 492 93 527 119 c 128,-1,25
 562 145 562 145 562 205 c 0,26,27
 562 245 562 245 541.5 277 c 128,-1,28
 521 309 521 309 487 336 c 128,-1,29
 453 363 453 363 410 386.5 c 128,-1,30
 367 410 367 410 321 434 c 0,31,32
 279 455 279 455 237.5 480.5 c 128,-1,33
 196 506 196 506 163 537.5 c 128,-1,34
 130 569 130 569 109 607 c 128,-1,35
 88 645 88 645 88 693 c 0,36,37
 88 755 88 755 118.5 804.5 c 128,-1,38
 149 854 149 854 199 888.5 c 128,-1,39
 249 923 249 923 313 941.5 c 128,-1,40
 377 960 377 960 445 960 c 0,41,42
 488 960 488 960 531.5 954.5 c 128,-1,43
 575 949 575 949 615 939 c 128,-1,44
 655 929 655 929 689 915 c 128,-1,45
 723 901 723 901 746 883 c 0,46,47
 752 878 752 878 748.5 849.5 c 128,-1,48
 745 821 745 821 735.5 785.5 c 128,-1,49
 726 750 726 750 713 716 c 128,-1,50
 700 682 700 682 688 666 c 1,51,-1
 619 674 l 1,52,53
 594 762 594 762 547 808.5 c 128,-1,54
 500 855 500 855 434 855 c 0,55,56
 374 855 374 855 341 827.5 c 128,-1,57
 308 800 308 800 308 758 c 0,58,59
 308 726 308 726 324 701 c 128,-1,60
 340 676 340 676 369.5 654 c 128,-1,61
 399 632 399 632 441.5 609.5 c 128,-1,62
 484 587 484 587 537 559 c 0,63,64
 580 537 580 537 624 512 c 128,-1,65
 668 487 668 487 703 454.5 c 128,-1,66
 738 422 738 422 760 380.5 c 128,-1,67
 782 339 782 339 782 283 c 0,0,1
EndSplineSet
EndChar

StartChar: t
Encoding: 116 116 87
Width: 758
GlyphClass: 2
Flags: W
AnchorPoint: "Anchor-4" 553 900 basechar 0
AnchorPoint: "Anchor-3" 371 -100 basechar 0
AnchorPoint: "Anchor-2" 371 0 basechar 0
AnchorPoint: "Anchor-1" 371 -100 basechar 0
AnchorPoint: "Anchor-0" 371 1320 basechar 0
LayerCount: 2
Fore
SplineSet
736 155 m 1,0,1
 603 59 603 59 511 14.5 c 128,-1,2
 419 -30 419 -30 366 -30 c 0,3,4
 323 -30 323 -30 284.5 -13.5 c 128,-1,5
 246 3 246 3 217.5 37 c 128,-1,6
 189 71 189 71 172 122.5 c 128,-1,7
 155 174 155 174 155 244 c 2,8,-1
 155 805 l 1,9,-1
 34 805 l 1,10,-1
 5 841 l 1,11,-1
 83 930 l 1,12,-1
 155 930 l 1,13,-1
 155 1139 l 1,14,-1
 357 1288 l 1,15,-1
 395 1255 l 1,16,-1
 395 930 l 1,17,-1
 700 930 l 1,18,-1
 736 894 l 1,19,20
 727 877 727 877 713.5 858.5 c 128,-1,21
 700 840 700 840 686 822.5 c 128,-1,22
 672 805 672 805 658.5 791 c 128,-1,23
 645 777 645 777 635 770 c 1,24,25
 623 776 623 776 604.5 782 c 128,-1,26
 586 788 586 788 563 793.5 c 128,-1,27
 540 799 540 799 514.5 802 c 128,-1,28
 489 805 489 805 462 805 c 2,29,-1
 395 805 l 1,30,-1
 395 337 l 2,31,32
 395 286 395 286 401 250.5 c 128,-1,33
 407 215 407 215 418.5 193.5 c 128,-1,34
 430 172 430 172 445.5 162.5 c 128,-1,35
 461 153 461 153 480 153 c 0,36,37
 498 153 498 153 517.5 156.5 c 128,-1,38
 537 160 537 160 562 168 c 128,-1,39
 587 176 587 176 618.5 190.5 c 128,-1,40
 650 205 650 205 692 228 c 1,41,-1
 736 155 l 1,0,1
EndSplineSet
EndChar

StartChar: u
Encoding: 117 117 88
Width: 1153
GlyphClass: 2
Flags: W
AnchorPoint: "Anchor-4" 1253 900 basechar 0
AnchorPoint: "Anchor-3" 918 0 basechar 0
AnchorPoint: "Anchor-2" 896 0 basechar 0
AnchorPoint: "Anchor-1" 577 -100 basechar 0
AnchorPoint: "Anchor-0" 577 1050 basechar 0
LayerCount: 2
Fore
SplineSet
1144 112 m 1,0,1
 1107 88 1107 88 1062.5 63 c 128,-1,2
 1018 38 1018 38 976.5 17 c 128,-1,3
 935 -4 935 -4 902.5 -17 c 128,-1,4
 870 -30 870 -30 858 -30 c 0,5,6
 840 -30 840 -30 823.5 -23.5 c 128,-1,7
 807 -17 807 -17 792.5 1.5 c 128,-1,8
 778 20 778 20 767 52.5 c 128,-1,9
 756 85 756 85 750 136 c 1,10,11
 688 82 688 82 638.5 49.5 c 128,-1,12
 589 17 589 17 548.5 -1 c 128,-1,13
 508 -19 508 -19 474 -24.5 c 128,-1,14
 440 -30 440 -30 408 -30 c 0,15,16
 361 -30 361 -30 316 -17 c 128,-1,17
 271 -4 271 -4 235 30.5 c 128,-1,18
 199 65 199 65 177 125 c 128,-1,19
 155 185 155 185 155 279 c 2,20,-1
 155 689 l 2,21,22
 155 737 155 737 153.5 763.5 c 128,-1,23
 152 790 152 790 140.5 803.5 c 128,-1,24
 129 817 129 817 104.5 822 c 128,-1,25
 80 827 80 827 34 832 c 1,26,-1
 34 902 l 1,27,28
 84 906 84 906 125.5 911 c 128,-1,29
 167 916 167 916 205 922.5 c 128,-1,30
 243 929 243 929 280.5 938 c 128,-1,31
 318 947 318 947 360 960 c 1,32,-1
 395 914 l 1,33,-1
 395 342 l 2,34,35
 395 280 395 280 402.5 241 c 128,-1,36
 410 202 410 202 425 180.5 c 128,-1,37
 440 159 440 159 461.5 151 c 128,-1,38
 483 143 483 143 511 143 c 0,39,40
 532 143 532 143 556.5 148 c 128,-1,41
 581 153 581 153 610.5 166.5 c 128,-1,42
 640 180 640 180 674.5 203 c 128,-1,43
 709 226 709 226 750 262 c 1,44,-1
 750 689 l 2,45,46
 750 734 750 734 746.5 761 c 128,-1,47
 743 788 743 788 730 803 c 128,-1,48
 717 818 717 818 690.5 824 c 128,-1,49
 664 830 664 830 618 832 c 1,50,-1
 618 902 l 1,51,52
 718 911 718 911 799.5 926.5 c 128,-1,53
 881 942 881 942 953 960 c 1,54,-1
 990 914 l 1,55,-1
 990 284 l 2,56,57
 990 253 990 253 991 232.5 c 128,-1,58
 992 212 992 212 994.5 198.5 c 128,-1,59
 997 185 997 185 1001.5 177 c 128,-1,60
 1006 169 1006 169 1013 164 c 0,61,62
 1025 156 1025 156 1046.5 160.5 c 128,-1,63
 1068 165 1068 165 1119 187 c 1,64,-1
 1144 112 l 1,0,1
EndSplineSet
EndChar

StartChar: v
Encoding: 118 118 89
Width: 1040
GlyphClass: 2
Flags: W
AnchorPoint: "Anchor-4" 1040 900 basechar 0
AnchorPoint: "Anchor-3" 473 0 basechar 0
AnchorPoint: "Anchor-2" 531 0 basechar 0
AnchorPoint: "Anchor-1" 531 -100 basechar 0
AnchorPoint: "Anchor-0" 552 1050 basechar 0
LayerCount: 2
Fore
SplineSet
1027 857 m 1,0,1
 997 850 997 850 979.5 844 c 128,-1,2
 962 838 962 838 951.5 830.5 c 128,-1,3
 941 823 941 823 935.5 813 c 128,-1,4
 930 803 930 803 924 789 c 2,5,-1
 641 82 l 2,6,7
 632 60 632 60 613.5 42 c 128,-1,8
 595 24 595 24 571 9.5 c 128,-1,9
 547 -5 547 -5 520 -14.5 c 128,-1,10
 493 -24 493 -24 469 -30 c 1,11,-1
 116 789 l 2,12,13
 105 816 105 816 83.5 831 c 128,-1,14
 62 846 62 846 13 857 c 1,15,-1
 13 930 l 1,16,-1
 466 930 l 1,17,-1
 466 857 l 1,18,19
 427 852 427 852 404.5 846.5 c 128,-1,20
 382 841 382 841 371.5 833.5 c 128,-1,21
 361 826 361 826 361 815.5 c 128,-1,22
 361 805 361 805 368 789 c 2,23,-1
 583 286 l 1,24,-1
 785 789 l 2,25,26
 791 804 791 804 791.5 814.5 c 128,-1,27
 792 825 792 825 784 832.5 c 128,-1,28
 776 840 776 840 757 845.5 c 128,-1,29
 738 851 738 851 704 857 c 1,30,-1
 704 930 l 1,31,-1
 1027 930 l 1,32,-1
 1027 857 l 1,0,1
EndSplineSet
EndChar

StartChar: w
Encoding: 119 119 90
Width: 1469
GlyphClass: 2
Flags: W
AnchorPoint: "Anchor-4" 1469 900 basechar 0
AnchorPoint: "Anchor-3" 741 -100 basechar 0
AnchorPoint: "Anchor-2" 741 -100 basechar 0
AnchorPoint: "Anchor-1" 741 -100 basechar 0
AnchorPoint: "Anchor-0" 761 1050 basechar 0
LayerCount: 2
Fore
SplineSet
1455 857 m 1,0,1
 1427 850 1427 850 1409.5 843.5 c 128,-1,2
 1392 837 1392 837 1381 830.5 c 128,-1,3
 1370 824 1370 824 1364.5 815.5 c 128,-1,4
 1359 807 1359 807 1355 795 c 2,5,-1
 1134 59 l 2,6,7
 1128 37 1128 37 1109.5 21.5 c 128,-1,8
 1091 6 1091 6 1068.5 -4.5 c 128,-1,9
 1046 -15 1046 -15 1024.5 -21 c 128,-1,10
 1003 -27 1003 -27 990 -30 c 1,11,-1
 735 554 l 1,12,-1
 532 59 l 1,13,14
 524 36 524 36 506 20.5 c 128,-1,15
 488 5 488 5 467 -5.5 c 128,-1,16
 446 -16 446 -16 425 -21.5 c 128,-1,17
 404 -27 404 -27 391 -30 c 1,18,-1
 122 795 l 2,19,20
 116 813 116 813 89.5 829.5 c 128,-1,21
 63 846 63 846 13 857 c 1,22,-1
 13 930 l 1,23,-1
 466 930 l 1,24,-1
 466 857 l 1,25,26
 423 852 423 852 399 845.5 c 128,-1,27
 375 839 375 839 364.5 830.5 c 128,-1,28
 354 822 354 822 353.5 813 c 128,-1,29
 353 804 353 804 356 795 c 2,30,-1
 506 323 l 1,31,-1
 745 930 l 1,32,-1
 822 930 l 1,33,-1
 1073 323 l 1,34,-1
 1217 795 l 2,35,36
 1221 806 1221 806 1220.5 815 c 128,-1,37
 1220 824 1220 824 1211.5 831.5 c 128,-1,38
 1203 839 1203 839 1183.5 845 c 128,-1,39
 1164 851 1164 851 1130 857 c 1,40,-1
 1130 930 l 1,41,-1
 1455 930 l 1,42,-1
 1455 857 l 1,0,1
EndSplineSet
EndChar

StartChar: x
Encoding: 120 120 91
Width: 1068
GlyphClass: 2
Flags: W
AnchorPoint: "Anchor-4" 1068 900 basechar 0
AnchorPoint: "Anchor-3" 533 -100 basechar 0
AnchorPoint: "Anchor-2" 827 0 basechar 0
AnchorPoint: "Anchor-1" 533 -100 basechar 0
AnchorPoint: "Anchor-0" 533 1050 basechar 0
LayerCount: 2
Fore
SplineSet
562 0 m 1,0,-1
 562 73 l 1,1,2
 587 75 587 75 607.5 78.5 c 128,-1,3
 628 82 628 82 639 90.5 c 128,-1,4
 650 99 650 99 648.5 114.5 c 128,-1,5
 647 130 647 130 628 157 c 2,6,-1
 481 360 l 1,7,-1
 324 157 l 2,8,9
 304 131 304 131 304 115.5 c 128,-1,10
 304 100 304 100 317.5 91.5 c 128,-1,11
 331 83 331 83 353 79 c 128,-1,12
 375 75 375 75 399 73 c 1,13,-1
 399 0 l 1,14,-1
 13 0 l 1,15,-1
 13 73 l 1,16,17
 50 79 50 79 76 88 c 128,-1,18
 102 97 102 97 121 109 c 128,-1,19
 140 121 140 121 153 134.5 c 128,-1,20
 166 148 166 148 178 163 c 2,21,-1
 409 461 l 1,22,-1
 186 771 l 2,23,24
 173 789 173 789 160 803.5 c 128,-1,25
 147 818 147 818 129.5 829 c 128,-1,26
 112 840 112 840 86.5 847 c 128,-1,27
 61 854 61 854 24 857 c 1,28,-1
 24 930 l 1,29,-1
 519 930 l 1,30,-1
 519 857 l 1,31,32
 488 854 488 854 469 849.5 c 128,-1,33
 450 845 450 845 443 836 c 128,-1,34
 436 827 436 827 441 812 c 128,-1,35
 446 797 446 797 463 773 c 2,36,-1
 575 616 l 1,37,-1
 696 773 l 2,38,39
 714 797 714 797 720 812 c 128,-1,40
 726 827 726 827 719 836 c 128,-1,41
 712 845 712 845 693.5 849.5 c 128,-1,42
 675 854 675 854 644 857 c 1,43,-1
 644 930 l 1,44,-1
 1025 930 l 1,45,-1
 1025 857 l 1,46,47
 984 854 984 854 956 847 c 128,-1,48
 928 840 928 840 908 829 c 128,-1,49
 888 818 888 818 873 803.5 c 128,-1,50
 858 789 858 789 844 771 c 2,51,-1
 647 516 l 1,52,-1
 901 163 l 2,53,54
 912 148 912 148 925 134 c 128,-1,55
 938 120 938 120 955.5 108 c 128,-1,56
 973 96 973 96 997 86.5 c 128,-1,57
 1021 77 1021 77 1054 73 c 1,58,-1
 1054 0 l 1,59,-1
 562 0 l 1,0,-1
EndSplineSet
EndChar

StartChar: y
Encoding: 121 121 92
Width: 1040
GlyphClass: 2
Flags: W
AnchorPoint: "Anchor-4" 1040 900 basechar 0
AnchorPoint: "Anchor-3" 815 -100 basechar 0
AnchorPoint: "Anchor-2" 815 -100 basechar 0
AnchorPoint: "Anchor-1" 815 -100 basechar 0
AnchorPoint: "Anchor-0" 544 1050 basechar 0
LayerCount: 2
Fore
SplineSet
1027 857 m 1,0,1
 997 850 997 850 978 844 c 128,-1,2
 959 838 959 838 947 830.5 c 128,-1,3
 935 823 935 823 928.5 813.5 c 128,-1,4
 922 804 922 804 917 789 c 2,5,-1
 583 -75 l 2,6,7
 540 -185 540 -185 490 -264 c 128,-1,8
 440 -343 440 -343 384 -394 c 128,-1,9
 328 -445 328 -445 267 -469 c 128,-1,10
 206 -493 206 -493 142 -493 c 0,11,12
 104 -493 104 -493 67 -486 c 128,-1,13
 30 -479 30 -479 1.5 -468.5 c 128,-1,14
 -27 -458 -27 -458 -44.5 -446 c 128,-1,15
 -62 -434 -62 -434 -62 -425 c 256,16,17
 -62 -416 -62 -416 -45 -390.5 c 128,-1,18
 -28 -365 -28 -365 -4.5 -336 c 128,-1,19
 19 -307 19 -307 44 -281 c 128,-1,20
 69 -255 69 -255 85 -245 c 1,21,22
 135 -277 135 -277 185.5 -284.5 c 128,-1,23
 236 -292 236 -292 273 -278 c 0,24,25
 310 -265 310 -265 352.5 -221.5 c 128,-1,26
 395 -178 395 -178 430 -92 c 1,27,-1
 459 -23 l 1,28,-1
 124 789 l 2,29,30
 113 816 113 816 88 831 c 128,-1,31
 63 846 63 846 13 857 c 1,32,-1
 13 930 l 1,33,-1
 466 930 l 1,34,-1
 466 857 l 1,35,36
 427 852 427 852 406 846.5 c 128,-1,37
 385 841 385 841 376 833.5 c 128,-1,38
 367 826 367 826 368 815.5 c 128,-1,39
 369 805 369 805 376 789 c 2,40,-1
 582 287 l 1,41,-1
 778 789 l 2,42,43
 784 804 784 804 785.5 814.5 c 128,-1,44
 787 825 787 825 779.5 832.5 c 128,-1,45
 772 840 772 840 753 845.5 c 128,-1,46
 734 851 734 851 700 857 c 1,47,-1
 700 930 l 1,48,-1
 1027 930 l 1,49,-1
 1027 857 l 1,0,1
EndSplineSet
EndChar

StartChar: z
Encoding: 122 122 93
Width: 959
GlyphClass: 2
Flags: W
AnchorPoint: "Anchor-4" 959 900 basechar 0
AnchorPoint: "Anchor-3" 478 -100 basechar 0
AnchorPoint: "Anchor-2" 807 0 basechar 0
AnchorPoint: "Anchor-1" 478 -100 basechar 0
AnchorPoint: "Anchor-0" 508 1050 basechar 0
LayerCount: 2
Fore
SplineSet
882 331 m 1,0,1
 882 310 882 310 881.5 280.5 c 128,-1,2
 881 251 881 251 880.5 218 c 128,-1,3
 880 185 880 185 879 151.5 c 128,-1,4
 878 118 878 118 876.5 88 c 128,-1,5
 875 58 875 58 873.5 35 c 128,-1,6
 872 12 872 12 870 0 c 1,7,-1
 87 0 l 1,8,-1
 61 45 l 1,9,-1
 590 810 l 1,10,-1
 330 810 l 2,11,12
 286 810 286 810 247.5 760 c 128,-1,13
 209 710 209 710 183 600 c 1,14,-1
 112 620 l 1,15,-1
 137 946 l 1,16,17
 159 940 159 940 177 936.5 c 128,-1,18
 195 933 195 933 214.5 931.5 c 128,-1,19
 234 930 234 930 257 930 c 2,20,-1
 873 930 l 1,21,-1
 895 887 l 1,22,-1
 364 120 l 1,23,-1
 707 120 l 2,24,25
 725 120 725 120 738.5 135.5 c 128,-1,26
 752 151 752 151 763.5 180.5 c 128,-1,27
 775 210 775 210 786.5 252 c 128,-1,28
 798 294 798 294 812 348 c 1,29,-1
 882 331 l 1,0,1
EndSplineSet
EndChar

StartChar: braceleft
Encoding: 123 123 94
Width: 717
Flags: W
LayerCount: 2
Fore
SplineSet
693 1523 m 1,0,1
 615 1474 615 1474 565.5 1408.5 c 128,-1,2
 516 1343 516 1343 516 1267 c 0,3,4
 516 1214 516 1214 522.5 1173.5 c 128,-1,5
 529 1133 529 1133 536.5 1095 c 128,-1,6
 544 1057 544 1057 550.5 1016 c 128,-1,7
 557 975 557 975 557 923 c 0,8,9
 557 881 557 881 542.5 840.5 c 128,-1,10
 528 800 528 800 501.5 764.5 c 128,-1,11
 475 729 475 729 439.5 700 c 128,-1,12
 404 671 404 671 362 653 c 1,13,14
 462 635 462 635 509.5 565.5 c 128,-1,15
 557 496 557 496 557 385 c 0,16,17
 557 331 557 331 550.5 285 c 128,-1,18
 544 239 544 239 536.5 196.5 c 128,-1,19
 529 154 529 154 522.5 113 c 128,-1,20
 516 72 516 72 516 28 c 0,21,22
 516 -13 516 -13 522.5 -46.5 c 128,-1,23
 529 -80 529 -80 547 -110 c 128,-1,24
 565 -140 565 -140 597.5 -167.5 c 128,-1,25
 630 -195 630 -195 683 -224 c 1,26,-1
 645 -315 l 1,27,28
 553 -281 553 -281 481 -246 c 128,-1,29
 409 -211 409 -211 360 -167.5 c 128,-1,30
 311 -124 311 -124 285.5 -69.5 c 128,-1,31
 260 -15 260 -15 260 57 c 0,32,33
 260 110 260 110 266.5 152.5 c 128,-1,34
 273 195 273 195 280.5 236 c 128,-1,35
 288 277 288 277 294.5 321 c 128,-1,36
 301 365 301 365 301 422 c 0,37,38
 301 503 301 503 266 537 c 128,-1,39
 231 571 231 571 168 571 c 2,40,-1
 147 571 l 2,41,42
 141 571 141 571 136 570.5 c 128,-1,43
 131 570 131 570 124.5 568.5 c 128,-1,44
 118 567 118 567 103 565 c 1,45,-1
 86 648 l 1,46,47
 198 679 198 679 249.5 733.5 c 128,-1,48
 301 788 301 788 301 863 c 0,49,50
 301 918 301 918 294.5 958 c 128,-1,51
 288 998 288 998 280.5 1035.5 c 128,-1,52
 273 1073 273 1073 266.5 1113.5 c 128,-1,53
 260 1154 260 1154 260 1210 c 0,54,55
 260 1277 260 1277 290 1334 c 128,-1,56
 320 1391 320 1391 372.5 1439 c 128,-1,57
 425 1487 425 1487 497 1526.5 c 128,-1,58
 569 1566 569 1566 652 1600 c 1,59,-1
 693 1523 l 1,0,1
EndSplineSet
EndChar

StartChar: bar
Encoding: 124 124 95
Width: 470
Flags: W
LayerCount: 2
Fore
SplineSet
335 -346 m 1,0,1
 326 -354 326 -354 309.5 -362.5 c 128,-1,2
 293 -371 293 -371 274.5 -379 c 128,-1,3
 256 -387 256 -387 238 -394 c 128,-1,4
 220 -401 220 -401 208 -405 c 1,5,-1
 165 -375 l 1,6,-1
 165 1614 l 1,7,8
 193 1631 193 1631 228 1646.5 c 128,-1,9
 263 1662 263 1662 292 1670 c 1,10,-1
 335 1641 l 1,11,-1
 335 -346 l 1,0,1
EndSplineSet
EndChar

StartChar: braceright
Encoding: 125 125 96
Width: 717
Flags: W
LayerCount: 2
Fore
SplineSet
632 636 m 1,0,1
 520 605 520 605 468.5 551 c 128,-1,2
 417 497 417 497 417 421 c 0,3,4
 417 366 417 366 423 326 c 128,-1,5
 429 286 429 286 436.5 249 c 128,-1,6
 444 212 444 212 450.5 171.5 c 128,-1,7
 457 131 457 131 457 75 c 0,8,9
 457 7 457 7 427 -49.5 c 128,-1,10
 397 -106 397 -106 344.5 -154 c 128,-1,11
 292 -202 292 -202 220.5 -242 c 128,-1,12
 149 -282 149 -282 66 -316 c 1,13,-1
 25 -238 l 1,14,15
 103 -189 103 -189 152 -123.5 c 128,-1,16
 201 -58 201 -58 201 18 c 0,17,18
 201 70 201 70 194.5 110.5 c 128,-1,19
 188 151 188 151 180.5 189.5 c 128,-1,20
 173 228 173 228 167 268.5 c 128,-1,21
 161 309 161 309 161 362 c 0,22,23
 161 404 161 404 175.5 444 c 128,-1,24
 190 484 190 484 216 519.5 c 128,-1,25
 242 555 242 555 278 584 c 128,-1,26
 314 613 314 613 356 631 c 1,27,28
 255 650 255 650 208 719 c 128,-1,29
 161 788 161 788 161 900 c 0,30,31
 161 954 161 954 167 1000 c 128,-1,32
 173 1046 173 1046 180.5 1088 c 128,-1,33
 188 1130 188 1130 194.5 1171 c 128,-1,34
 201 1212 201 1212 201 1256 c 0,35,36
 201 1298 201 1298 194.5 1331.5 c 128,-1,37
 188 1365 188 1365 170 1394.5 c 128,-1,38
 152 1424 152 1424 119.5 1451.5 c 128,-1,39
 87 1479 87 1479 35 1508 c 1,40,-1
 73 1599 l 1,41,42
 165 1566 165 1566 236.5 1530.5 c 128,-1,43
 308 1495 308 1495 357 1452 c 128,-1,44
 406 1409 406 1409 431.5 1354.5 c 128,-1,45
 457 1300 457 1300 457 1228 c 0,46,47
 457 1175 457 1175 450.5 1132.5 c 128,-1,48
 444 1090 444 1090 436.5 1048.5 c 128,-1,49
 429 1007 429 1007 423 963 c 128,-1,50
 417 919 417 919 417 863 c 0,51,52
 417 782 417 782 452 748 c 128,-1,53
 487 714 487 714 550 714 c 2,54,-1
 570 714 l 2,55,56
 577 714 577 714 582 714.5 c 128,-1,57
 587 715 587 715 593.5 716 c 128,-1,58
 600 717 600 717 615 720 c 1,59,-1
 632 636 l 1,0,1
EndSplineSet
EndChar

StartChar: asciitilde
Encoding: 126 126 97
Width: 999
Flags: W
LayerCount: 2
Fore
SplineSet
950 774 m 1,0,1
 929 725 929 725 897 672.5 c 128,-1,2
 865 620 865 620 825.5 576.5 c 128,-1,3
 786 533 786 533 740.5 505 c 128,-1,4
 695 477 695 477 647 477 c 0,5,6
 605 477 605 477 558 502 c 128,-1,7
 511 527 511 527 462.5 557 c 128,-1,8
 414 587 414 587 366.5 612 c 128,-1,9
 319 637 319 637 276 637 c 0,10,11
 227 637 227 637 185.5 598 c 128,-1,12
 144 559 144 559 102 475 c 1,13,-1
 49 502 l 1,14,15
 70 551 70 551 102.5 603.5 c 128,-1,16
 135 656 135 656 174.5 699.5 c 128,-1,17
 214 743 214 743 259 771 c 128,-1,18
 304 799 304 799 352 799 c 0,19,20
 398 799 398 799 446.5 774 c 128,-1,21
 495 749 495 749 542.5 719 c 128,-1,22
 590 689 590 689 635.5 664 c 128,-1,23
 681 639 681 639 721 639 c 0,24,25
 769 639 769 639 812 678 c 128,-1,26
 855 717 855 717 897 799 c 1,27,-1
 950 774 l 1,0,1
EndSplineSet
EndChar

StartChar: Ccedilla
Encoding: 199 199 100
Width: 1143
GlyphClass: 2
Flags: W
AnchorPoint: "Anchor-4" 1143 900 basechar 0
AnchorPoint: "Anchor-3" 605 -600 basechar 0
AnchorPoint: "Anchor-2" 605 -600 basechar 0
AnchorPoint: "Anchor-1" 605 -600 basechar 0
AnchorPoint: "Anchor-0" 637 1370 basechar 0
LayerCount: 2
Fore
SplineSet
804 -229 m 0,0,1
 804 -266 804 -266 777 -301 c 128,-1,2
 750 -336 750 -336 702 -365 c 128,-1,3
 654 -394 654 -394 587.5 -415 c 128,-1,4
 521 -436 521 -436 443 -444 c 1,5,-1
 406 -373 l 1,6,7
 493 -360 493 -360 530.5 -330.5 c 128,-1,8
 568 -301 568 -301 568 -269 c 0,9,10
 568 -235 568 -235 545 -220.5 c 128,-1,11
 522 -206 522 -206 478 -202 c 1,12,-1
 481 -198 l 2,13,14
 484 -194 484 -194 492.5 -173 c 128,-1,15
 501 -152 501 -152 516 -108 c 0,16,17
 527 -77 527 -77 543 -28 c 1,18,19
 465 -21 465 -21 389 12 c 0,20,21
 294 54 294 54 219.5 133 c 128,-1,22
 145 212 145 212 100 326.5 c 128,-1,23
 55 441 55 441 55 586 c 0,24,25
 55 746 55 746 104 876 c 128,-1,26
 153 1006 153 1006 239 1098.5 c 128,-1,27
 325 1191 325 1191 441 1241 c 128,-1,28
 557 1291 557 1291 691 1290 c 0,29,30
 745 1290 745 1290 798 1282 c 128,-1,31
 851 1274 851 1274 899 1260.5 c 128,-1,32
 947 1247 947 1247 986.5 1229 c 128,-1,33
 1026 1211 1026 1211 1052 1190 c 0,34,35
 1056 1187 1056 1187 1051.5 1172 c 128,-1,36
 1047 1157 1047 1157 1038 1136 c 128,-1,37
 1029 1115 1029 1115 1016.5 1090.5 c 128,-1,38
 1004 1066 1004 1066 991 1043.5 c 128,-1,39
 978 1021 978 1021 966.5 1003 c 128,-1,40
 955 985 955 985 947 977 c 1,41,-1
 882 991 l 1,42,43
 831 1079 831 1079 765.5 1118.5 c 128,-1,44
 700 1158 700 1158 622 1158 c 0,45,46
 588 1158 588 1158 551.5 1147 c 128,-1,47
 515 1136 515 1136 480 1111 c 128,-1,48
 445 1086 445 1086 413.5 1045.5 c 128,-1,49
 382 1005 382 1005 358.5 946 c 128,-1,50
 335 887 335 887 321.5 807 c 128,-1,51
 308 727 308 727 308 623 c 0,52,53
 308 495 308 495 341.5 403 c 128,-1,54
 375 311 375 311 428.5 251.5 c 128,-1,55
 482 192 482 192 548.5 163.5 c 128,-1,56
 615 135 615 135 681 135 c 0,57,58
 708 135 708 135 744.5 141 c 128,-1,59
 781 147 781 147 824.5 163.5 c 128,-1,60
 868 180 868 180 917 207.5 c 128,-1,61
 966 235 966 235 1019 279 c 1,62,63
 1024 275 1024 275 1032 265 c 128,-1,64
 1040 255 1040 255 1047.5 244 c 128,-1,65
 1055 233 1055 233 1061.5 223.5 c 128,-1,66
 1068 214 1068 214 1071 211 c 1,67,68
 1007 146 1007 146 945 100 c 128,-1,69
 883 54 883 54 822 25 c 128,-1,70
 761 -4 761 -4 702 -17 c 0,71,72
 684 -21 684 -21 666 -23 c 1,73,-1
 641 -89 l 1,74,75
 719 -103 719 -103 761.5 -137.5 c 128,-1,76
 804 -172 804 -172 804 -229 c 0,0,1
EndSplineSet
Ligature2: "'ccmp' Glyph Composition/Decomposition lookup 3 subtable" C uni0327
EndChar

StartChar: ccedilla
Encoding: 231 231 111
Width: 933
GlyphClass: 2
Flags: W
AnchorPoint: "Anchor-4" 933 900 basechar 0
AnchorPoint: "Anchor-3" 511 -600 basechar 0
AnchorPoint: "Anchor-2" 511 -600 basechar 0
AnchorPoint: "Anchor-1" 511 -600 basechar 0
AnchorPoint: "Anchor-0" 511 1050 basechar 0
LayerCount: 2
Fore
SplineSet
710 -229 m 0,0,1
 710 -266 710 -266 683 -301 c 128,-1,2
 656 -336 656 -336 608 -365 c 128,-1,3
 560 -394 560 -394 493.5 -415 c 128,-1,4
 427 -436 427 -436 349 -444 c 1,5,-1
 312 -373 l 1,6,7
 399 -360 399 -360 436.5 -330.5 c 128,-1,8
 474 -301 474 -301 474 -269 c 0,9,10
 474 -235 474 -235 451 -220.5 c 128,-1,11
 428 -206 428 -206 384 -202 c 1,12,-1
 387 -198 l 2,13,14
 390 -194 390 -194 398.5 -173 c 128,-1,15
 407 -152 407 -152 422 -108 c 0,16,17
 433 -78 433 -78 449 -29 c 1,18,19
 384 -23 384 -23 324 2 c 1,20,21
 249 35 249 35 191.5 96 c 128,-1,22
 134 157 134 157 99.5 245 c 128,-1,23
 65 333 65 333 65 444 c 0,24,25
 65 552 65 552 105 646 c 128,-1,26
 145 740 145 740 216.5 809.5 c 128,-1,27
 288 879 288 879 387 919.5 c 128,-1,28
 486 960 486 960 605 960 c 0,29,30
 638 960 638 960 679.5 954.5 c 128,-1,31
 721 949 721 949 761 938.5 c 128,-1,32
 801 928 801 928 834.5 913.5 c 128,-1,33
 868 899 868 899 885 881 c 1,34,35
 886 873 886 873 882.5 853 c 128,-1,36
 879 833 879 833 872.5 807 c 128,-1,37
 866 781 866 781 857 752 c 128,-1,38
 848 723 848 723 839 697 c 128,-1,39
 830 671 830 671 821 650 c 128,-1,40
 812 629 812 629 806 620 c 1,41,-1
 739 630 l 1,42,43
 706 728 706 728 658 781.5 c 128,-1,44
 610 835 610 835 530 835 c 0,45,46
 486 835 486 835 445.5 815 c 128,-1,47
 405 795 405 795 374 751.5 c 128,-1,48
 343 708 343 708 324 640 c 128,-1,49
 305 572 305 572 305 475 c 0,50,51
 305 395 305 395 325.5 332.5 c 128,-1,52
 346 270 346 270 381.5 227 c 128,-1,53
 417 184 417 184 465 161 c 128,-1,54
 513 138 513 138 567 138 c 0,55,56
 595 138 595 138 621 141.5 c 128,-1,57
 647 145 647 145 678 157 c 128,-1,58
 709 169 709 169 747.5 192 c 128,-1,59
 786 215 786 215 839 254 c 1,60,-1
 893 190 l 1,61,62
 828 116 828 116 773 72.5 c 128,-1,63
 718 29 718 29 668.5 6 c 128,-1,64
 619 -17 619 -17 573 -23 c 1,65,-1
 572 -23 l 1,66,-1
 547 -89 l 1,67,68
 625 -103 625 -103 667.5 -137.5 c 128,-1,69
 710 -172 710 -172 710 -229 c 0,0,1
EndSplineSet
Ligature2: "'ccmp' Glyph Composition/Decomposition lookup 3 subtable" c uni0327
EndChar

StartChar: dagger
Encoding: 8224 8224 130
Width: 1007
Flags: W
LayerCount: 2
Fore
SplineSet
952 1112 m 1,0,1
 945 1095 945 1095 929 1062.5 c 128,-1,2
 913 1030 913 1030 894 994 c 128,-1,3
 875 958 875 958 856 924.5 c 128,-1,4
 837 891 837 891 825 872 c 1,5,6
 792 891 792 891 760.5 905.5 c 128,-1,7
 729 920 729 920 697 931 c 128,-1,8
 665 942 665 942 631 949 c 128,-1,9
 597 956 597 956 558 959 c 1,10,11
 563 890 563 890 581 818.5 c 128,-1,12
 599 747 599 747 631 680 c 1,13,14
 595 569 595 569 577 469 c 128,-1,15
 559 369 559 369 557 273 c 0,16,17
 556 215 556 215 567.5 156.5 c 128,-1,18
 579 98 579 98 607 37 c 1,19,20
 598 30 598 30 574 18.5 c 128,-1,21
 550 7 550 7 522 -4.5 c 128,-1,22
 494 -16 494 -16 468.5 -26 c 128,-1,23
 443 -36 443 -36 431 -40 c 1,24,-1
 394 -12 l 1,25,26
 406 22 406 22 415.5 59 c 128,-1,27
 425 96 425 96 432 133.5 c 128,-1,28
 439 171 439 171 442.5 207 c 128,-1,29
 446 243 446 243 446 273 c 0,30,31
 444 372 444 372 426 471 c 128,-1,32
 408 570 408 570 371 680 c 1,33,34
 403 747 403 747 421 819 c 128,-1,35
 439 891 439 891 444 959 c 1,36,37
 351 951 351 951 263.5 930 c 128,-1,38
 176 909 176 909 88 872 c 1,39,-1
 55 923 l 1,40,41
 62 940 62 940 78 972 c 128,-1,42
 94 1004 94 1004 113 1040 c 128,-1,43
 132 1076 132 1076 151 1109.5 c 128,-1,44
 170 1143 170 1143 182 1162 c 1,45,46
 214 1144 214 1144 244.5 1129.5 c 128,-1,47
 275 1115 275 1115 306.5 1104.5 c 128,-1,48
 338 1094 338 1094 372 1087 c 128,-1,49
 406 1080 406 1080 444 1077 c 1,50,51
 439 1157 439 1157 417.5 1223.5 c 128,-1,52
 396 1290 396 1290 356 1361 c 1,53,54
 375 1373 375 1373 408.5 1390.5 c 128,-1,55
 442 1408 442 1408 478 1425.5 c 128,-1,56
 514 1443 514 1443 546.5 1458 c 128,-1,57
 579 1473 579 1473 596 1480 c 1,58,-1
 646 1448 l 1,59,60
 609 1357 609 1357 587.5 1263 c 128,-1,61
 566 1169 566 1169 559 1077 c 1,62,63
 653 1084 653 1084 742 1104.5 c 128,-1,64
 831 1125 831 1125 920 1162 c 1,65,-1
 952 1112 l 1,0,1
EndSplineSet
EndChar

StartChar: degree
Encoding: 176 176 131
Width: 733
Flags: W
LayerCount: 2
Fore
SplineSet
467 995 m 0,0,1
 467 1020 467 1020 460.5 1042.5 c 128,-1,2
 454 1065 454 1065 442.5 1082.5 c 128,-1,3
 431 1100 431 1100 414.5 1110 c 128,-1,4
 398 1120 398 1120 377 1120 c 256,5,6
 356 1120 356 1120 336 1111.5 c 128,-1,7
 316 1103 316 1103 300.5 1087 c 128,-1,8
 285 1071 285 1071 276 1048.5 c 128,-1,9
 267 1026 267 1026 267 998 c 0,10,11
 267 974 267 974 273 951.5 c 128,-1,12
 279 929 279 929 291 911.5 c 128,-1,13
 303 894 303 894 319.5 883.5 c 128,-1,14
 336 873 336 873 357 873 c 256,15,16
 378 873 378 873 397.5 881 c 128,-1,17
 417 889 417 889 432.5 904.5 c 128,-1,18
 448 920 448 920 457.5 943 c 128,-1,19
 467 966 467 966 467 995 c 0,0,1
619 1050 m 0,20,21
 619 982 619 982 592.5 923.5 c 128,-1,22
 566 865 566 865 523.5 822.5 c 128,-1,23
 481 780 481 780 428.5 756 c 128,-1,24
 376 732 376 732 325 732 c 0,25,26
 279 732 279 732 240.5 749 c 128,-1,27
 202 766 202 766 174 794.5 c 128,-1,28
 146 823 146 823 130.5 861.5 c 128,-1,29
 115 900 115 900 115 943 c 0,30,31
 115 1012 115 1012 141 1070.5 c 128,-1,32
 167 1129 167 1129 209 1171.5 c 128,-1,33
 251 1214 251 1214 303.5 1238 c 128,-1,34
 356 1262 356 1262 409 1262 c 0,35,36
 452 1262 452 1262 490.5 1245 c 128,-1,37
 529 1228 529 1228 557.5 1199 c 128,-1,38
 586 1170 586 1170 602.5 1131.5 c 128,-1,39
 619 1093 619 1093 619 1050 c 0,20,21
EndSplineSet
EndChar

StartChar: cent
Encoding: 162 162 132
Width: 1036
Flags: W
LayerCount: 2
Fore
SplineSet
309 616 m 0,0,1
 309 549 309 549 323 495.5 c 128,-1,2
 337 442 337 442 362 402 c 128,-1,3
 387 362 387 362 421.5 335 c 128,-1,4
 456 308 456 308 498 293 c 1,5,-1
 498 941 l 1,6,7
 460 931 460 931 426 907.5 c 128,-1,8
 392 884 392 884 366 845 c 128,-1,9
 340 806 340 806 324.5 749 c 128,-1,10
 309 692 309 692 309 616 c 0,0,1
618 7 m 1,11,12
 600 -9 600 -9 577 -21 c 128,-1,13
 554 -33 554 -33 530 -41 c 1,14,-1
 498 -9 l 1,15,-1
 498 130 l 1,16,17
 428 136 428 136 355.5 168 c 128,-1,18
 283 200 283 200 223.5 258 c 128,-1,19
 164 316 164 316 126.5 398 c 128,-1,20
 89 480 89 480 89 586 c 0,21,22
 89 675 89 675 118 753 c 128,-1,23
 147 831 147 831 200.5 893 c 128,-1,24
 254 955 254 955 329.5 999 c 128,-1,25
 405 1043 405 1043 498 1063 c 1,26,-1
 498 1199 l 1,27,28
 512 1208 512 1208 521.5 1214.5 c 128,-1,29
 531 1221 531 1221 539.5 1226.5 c 128,-1,30
 548 1232 548 1232 558.5 1236.5 c 128,-1,31
 569 1241 569 1241 584 1245 c 1,32,-1
 618 1216 l 1,33,-1
 618 1078 l 1,34,35
 626 1078 626 1078 634.5 1078.5 c 128,-1,36
 643 1079 643 1079 652 1079 c 0,37,38
 685 1079 685 1079 728 1073.5 c 128,-1,39
 771 1068 771 1068 812.5 1057.5 c 128,-1,40
 854 1047 854 1047 888.5 1032.5 c 128,-1,41
 923 1018 923 1018 940 999 c 1,42,43
 942 988 942 988 933.5 958 c 128,-1,44
 925 928 925 928 912 894 c 128,-1,45
 899 860 899 860 884.5 829.5 c 128,-1,46
 870 799 870 799 861 786 c 1,47,-1
 796 803 l 1,48,49
 788 818 788 818 773 838.5 c 128,-1,50
 758 859 758 859 736.5 879.5 c 128,-1,51
 715 900 715 900 685.5 917.5 c 128,-1,52
 656 935 656 935 618 943 c 1,53,-1
 618 277 l 1,54,55
 647 278 647 278 675 285 c 128,-1,56
 703 292 703 292 734 309 c 128,-1,57
 765 326 765 326 801.5 355 c 128,-1,58
 838 384 838 384 885 429 c 1,59,-1
 947 358 l 1,60,61
 896 301 896 301 852.5 261 c 128,-1,62
 809 221 809 221 769.5 195.5 c 128,-1,63
 730 170 730 170 693 155.5 c 128,-1,64
 656 141 656 141 618 135 c 1,65,-1
 618 7 l 1,11,12
EndSplineSet
EndChar

StartChar: sterling
Encoding: 163 163 133
Width: 1036
Flags: W
LayerCount: 2
Fore
SplineSet
720 521 m 1,0,-1
 456 521 l 1,1,2
 459 403 459 403 431 310 c 128,-1,3
 403 217 403 217 348 139 c 1,4,5
 393 143 393 143 426 144 c 128,-1,6
 459 145 459 145 484.5 144.5 c 128,-1,7
 510 144 510 144 531.5 143 c 128,-1,8
 553 142 553 142 575.5 140.5 c 128,-1,9
 598 139 598 139 625 138.5 c 128,-1,10
 652 138 652 138 689 139 c 0,11,12
 735 140 735 140 768 148.5 c 128,-1,13
 801 157 801 157 826.5 178 c 128,-1,14
 852 199 852 199 873 236 c 128,-1,15
 894 273 894 273 915 332 c 1,16,-1
 988 307 l 1,17,18
 984 264 984 264 977.5 216 c 128,-1,19
 971 168 971 168 964 125 c 128,-1,20
 957 82 957 82 950.5 48.5 c 128,-1,21
 944 15 944 15 940 0 c 1,22,23
 895 -25 895 -25 828 -28 c 128,-1,24
 761 -31 761 -31 682.5 -24 c 128,-1,25
 604 -17 604 -17 519.5 -5.5 c 128,-1,26
 435 6 435 6 355.5 11 c 128,-1,27
 276 16 276 16 206 8.5 c 128,-1,28
 136 1 136 1 87 -30 c 1,29,-1
 49 42 l 1,30,31
 79 67 79 67 102.5 89 c 128,-1,32
 126 111 126 111 143 137 c 128,-1,33
 160 163 160 163 171 195.5 c 128,-1,34
 182 228 182 228 187 273 c 128,-1,35
 192 318 192 318 191.5 378.5 c 128,-1,36
 191 439 191 439 186 521 c 1,37,-1
 71 521 l 1,38,-1
 42 554 l 1,39,40
 44 561 44 561 49 573 c 128,-1,41
 54 585 54 585 59.5 597.5 c 128,-1,42
 65 610 65 610 70.5 622 c 128,-1,43
 76 634 76 634 79 642 c 1,44,-1
 179 642 l 1,45,46
 177 774 177 774 208.5 883 c 128,-1,47
 240 992 240 992 301 1070 c 128,-1,48
 362 1148 362 1148 451 1191.5 c 128,-1,49
 540 1235 540 1235 652 1235 c 0,50,51
 678 1235 678 1235 710.5 1233 c 128,-1,52
 743 1231 743 1231 781 1223.5 c 128,-1,53
 819 1216 819 1216 861.5 1202.5 c 128,-1,54
 904 1189 904 1189 951 1165 c 1,55,56
 950 1148 950 1148 948.5 1121.5 c 128,-1,57
 947 1095 947 1095 944 1064 c 128,-1,58
 941 1033 941 1033 937 1000 c 128,-1,59
 933 967 933 967 929 937.5 c 128,-1,60
 925 908 925 908 920.5 884.5 c 128,-1,61
 916 861 916 861 912 848 c 1,62,-1
 835 848 l 1,63,64
 821 972 821 972 767 1043 c 128,-1,65
 713 1114 713 1114 623 1114 c 0,66,67
 603 1114 603 1114 579 1110 c 128,-1,68
 555 1106 555 1106 532.5 1090.5 c 128,-1,69
 510 1075 510 1075 489.5 1044.5 c 128,-1,70
 469 1014 469 1014 456.5 961.5 c 128,-1,71
 444 909 444 909 440 831 c 128,-1,72
 436 753 436 753 446 642 c 1,73,-1
 728 642 l 1,74,-1
 760 612 l 1,75,-1
 720 521 l 1,0,-1
EndSplineSet
EndChar

StartChar: section
Encoding: 167 167 134
Width: 1025
Flags: W
LayerCount: 2
Fore
SplineSet
585 559 m 1,0,1
 607 548 607 548 630.5 536 c 128,-1,2
 654 524 654 524 677 511 c 1,3,4
 691 531 691 531 699 554.5 c 128,-1,5
 707 578 707 578 707 604 c 0,6,7
 707 654 707 654 690.5 692 c 128,-1,8
 674 730 674 730 640 763 c 128,-1,9
 606 796 606 796 554 828 c 128,-1,10
 502 860 502 860 430 899 c 0,11,12
 414 907 414 907 398 916 c 128,-1,13
 382 925 382 925 365 935 c 1,14,15
 344 912 344 912 331 883.5 c 128,-1,16
 318 855 318 855 318 828 c 0,17,18
 318 784 318 784 334 751 c 128,-1,19
 350 718 350 718 383 688 c 128,-1,20
 416 658 416 658 466.5 627.5 c 128,-1,21
 517 597 517 597 585 559 c 1,0,1
920 669 m 0,22,23
 920 584 920 584 888 518.5 c 128,-1,24
 856 453 856 453 809 409 c 1,25,26
 832 382 832 382 846 349.5 c 128,-1,27
 860 317 860 317 860 278 c 0,28,29
 860 207 860 207 838.5 157 c 128,-1,30
 817 107 817 107 782.5 72.5 c 128,-1,31
 748 38 748 38 705 18 c 128,-1,32
 662 -2 662 -2 618 -13 c 128,-1,33
 574 -24 574 -24 533.5 -27 c 128,-1,34
 493 -30 493 -30 464 -30 c 0,35,36
 432 -30 432 -30 394.5 -25 c 128,-1,37
 357 -20 357 -20 318 -10.5 c 128,-1,38
 279 -1 279 -1 240.5 13 c 128,-1,39
 202 27 202 27 169 46 c 0,40,41
 164 48 164 48 161 63.5 c 128,-1,42
 158 79 158 79 156.5 103.5 c 128,-1,43
 155 128 155 128 155.5 158.5 c 128,-1,44
 156 189 156 189 158 221 c 128,-1,45
 160 253 160 253 164.5 283.5 c 128,-1,46
 169 314 169 314 176 338 c 1,47,-1
 256 327 l 1,48,49
 267 274 267 274 290 230.5 c 128,-1,50
 313 187 313 187 345 156 c 128,-1,51
 377 125 377 125 416 108 c 128,-1,52
 455 91 455 91 499 91 c 0,53,54
 571 91 571 91 605.5 115.5 c 128,-1,55
 640 140 640 140 640 200 c 0,56,57
 640 240 640 240 616 271.5 c 128,-1,58
 592 303 592 303 554 329.5 c 128,-1,59
 516 356 516 356 469.5 379.5 c 128,-1,60
 423 403 423 403 377 427 c 0,61,62
 329 452 329 452 280.5 484.5 c 128,-1,63
 232 517 232 517 193 559.5 c 128,-1,64
 154 602 154 602 129.5 656 c 128,-1,65
 105 710 105 710 105 779 c 0,66,67
 105 813 105 813 116 847 c 128,-1,68
 127 881 127 881 146 912.5 c 128,-1,69
 165 944 165 944 191 971.5 c 128,-1,70
 217 999 217 999 247 1020 c 1,71,72
 212 1054 212 1054 189.5 1092.5 c 128,-1,73
 167 1131 167 1131 167 1178 c 0,74,75
 167 1240 167 1240 197.5 1289 c 128,-1,76
 228 1338 228 1338 278 1371.5 c 128,-1,77
 328 1405 328 1405 392 1422.5 c 128,-1,78
 456 1440 456 1440 524 1440 c 0,79,80
 567 1440 567 1440 610.5 1434.5 c 128,-1,81
 654 1429 654 1429 694 1418.5 c 128,-1,82
 734 1408 734 1408 767.5 1393.5 c 128,-1,83
 801 1379 801 1379 824 1361 c 0,84,85
 830 1356 830 1356 826.5 1327.5 c 128,-1,86
 823 1299 823 1299 814 1263.5 c 128,-1,87
 805 1228 805 1228 792 1193.5 c 128,-1,88
 779 1159 779 1159 767 1143 c 1,89,-1
 698 1151 l 1,90,91
 673 1240 673 1240 626 1287.5 c 128,-1,92
 579 1335 579 1335 513 1335 c 0,93,94
 452 1335 452 1335 419.5 1310 c 128,-1,95
 387 1285 387 1285 387 1240 c 0,96,97
 387 1207 387 1207 405 1181.5 c 128,-1,98
 423 1156 423 1156 456 1133 c 128,-1,99
 489 1110 489 1110 535.5 1086 c 128,-1,100
 582 1062 582 1062 638 1032 c 0,101,102
 687 1006 687 1006 737.5 974.5 c 128,-1,103
 788 943 788 943 828.5 900 c 128,-1,104
 869 857 869 857 894.5 801 c 128,-1,105
 920 745 920 745 920 669 c 0,22,23
EndSplineSet
EndChar

StartChar: bullet
Encoding: 8226 8226 135
Width: 569
Flags: W
LayerCount: 2
Fore
SplineSet
498 662 m 0,0,1
 498 601 498 601 480.5 551 c 128,-1,2
 463 501 463 501 431.5 465 c 128,-1,3
 400 429 400 429 356.5 409 c 128,-1,4
 313 389 313 389 260 389 c 0,5,6
 212 389 212 389 176.5 405.5 c 128,-1,7
 141 422 141 422 117.5 452 c 128,-1,8
 94 482 94 482 82 523 c 128,-1,9
 70 564 70 564 70 612 c 0,10,11
 70 672 70 672 88.5 722 c 128,-1,12
 107 772 107 772 139 808.5 c 128,-1,13
 171 845 171 845 214.5 865 c 128,-1,14
 258 885 258 885 309 885 c 0,15,16
 354 885 354 885 389.5 868.5 c 128,-1,17
 425 852 425 852 449 822.5 c 128,-1,18
 473 793 473 793 485.5 752 c 128,-1,19
 498 711 498 711 498 662 c 0,0,1
EndSplineSet
EndChar

StartChar: paragraph
Encoding: 182 182 136
Width: 1241
Flags: W
LayerCount: 2
Fore
SplineSet
867 1143 m 1,0,1
 829 1152 829 1152 787 1158 c 1,2,-1
 787 -115 l 2,3,4
 787 -126 787 -126 801.5 -134.5 c 128,-1,5
 816 -143 816 -143 826 -146 c 1,6,7
 838 -143 838 -143 852.5 -134.5 c 128,-1,8
 867 -126 867 -126 867 -115 c 2,9,-1
 867 1143 l 1,0,1
622 633 m 1,10,-1
 623 1174 l 1,11,12
 603 1175 603 1175 586 1175.5 c 128,-1,13
 569 1176 569 1176 557 1176 c 0,14,15
 509 1176 509 1176 462.5 1160 c 128,-1,16
 416 1144 416 1144 379.5 1113 c 128,-1,17
 343 1082 343 1082 320.5 1038 c 128,-1,18
 298 994 298 994 298 938 c 0,19,20
 298 884 298 884 314 829.5 c 128,-1,21
 330 775 330 775 364 731.5 c 128,-1,22
 398 688 398 688 451 660.5 c 128,-1,23
 504 633 504 633 578 633 c 2,24,-1
 622 633 l 1,10,-1
482 -250 m 1,25,-1
 482 -177 l 1,26,27
 551 -163 551 -163 586 -146 c 128,-1,28
 621 -129 621 -129 621 -115 c 2,29,-1
 622 525 l 1,30,31
 604 522 604 522 583 520.5 c 128,-1,32
 562 519 562 519 535 519 c 0,33,34
 428 519 428 519 336.5 544 c 128,-1,35
 245 569 245 569 178 617.5 c 128,-1,36
 111 666 111 666 73 737.5 c 128,-1,37
 35 809 35 809 35 903 c 0,38,39
 35 988 35 988 70.5 1059 c 128,-1,40
 106 1130 106 1130 171.5 1181.5 c 128,-1,41
 237 1233 237 1233 330 1261.5 c 128,-1,42
 423 1290 423 1290 539 1290 c 0,43,44
 561 1290 561 1290 596.5 1288.5 c 128,-1,45
 632 1287 632 1287 676 1285 c 128,-1,46
 720 1283 720 1283 768.5 1280.5 c 128,-1,47
 817 1278 817 1278 865 1275 c 0,48,49
 977 1268 977 1268 1104 1260 c 1,50,-1
 1168 1260 l 1,51,-1
 1168 1187 l 1,52,53
 1100 1173 1100 1173 1065 1156 c 128,-1,54
 1030 1139 1030 1139 1030 1125 c 2,55,-1
 1030 -115 l 2,56,57
 1030 -128 1030 -128 1062.5 -145.5 c 128,-1,58
 1095 -163 1095 -163 1168 -177 c 1,59,-1
 1168 -250 l 1,60,-1
 482 -250 l 1,25,-1
EndSplineSet
EndChar

StartChar: germandbls
Encoding: 223 223 137
Width: 1288
GlyphClass: 2
Flags: W
AnchorPoint: "Anchor-4" 1288 900 basechar 0
AnchorPoint: "Anchor-3" 630 -100 basechar 0
AnchorPoint: "Anchor-2" 630 -100 basechar 0
AnchorPoint: "Anchor-1" 630 -100 basechar 0
AnchorPoint: "Anchor-0" 630 1690 basechar 0
LayerCount: 2
Fore
SplineSet
1236 283 m 0,0,1
 1236 219 1236 219 1211.5 162 c 128,-1,2
 1187 105 1187 105 1138 62.5 c 128,-1,3
 1089 20 1089 20 1015 -5 c 128,-1,4
 941 -30 941 -30 842 -30 c 0,5,6
 801 -30 801 -30 754 -22 c 128,-1,7
 707 -14 707 -14 666 -2.5 c 128,-1,8
 625 9 625 9 595 21.5 c 128,-1,9
 565 34 565 34 558 44 c 0,10,11
 553 50 553 50 550.5 72.5 c 128,-1,12
 548 95 548 95 547 125 c 128,-1,13
 546 155 546 155 547 189 c 128,-1,14
 548 223 548 223 550.5 253.5 c 128,-1,15
 553 284 553 284 557 306.5 c 128,-1,16
 561 329 561 329 566 336 c 1,17,-1
 646 324 l 1,18,19
 657 266 657 266 679.5 223 c 128,-1,20
 702 180 702 180 732.5 151 c 128,-1,21
 763 122 763 122 799 107.5 c 128,-1,22
 835 93 835 93 873 93 c 0,23,24
 939 93 939 93 977.5 122 c 128,-1,25
 1016 151 1016 151 1016 210 c 0,26,27
 1016 257 1016 257 996.5 292.5 c 128,-1,28
 977 328 977 328 944.5 356 c 128,-1,29
 912 384 912 384 871 407 c 128,-1,30
 830 430 830 430 787 453 c 128,-1,31
 744 476 744 476 703 501 c 128,-1,32
 662 526 662 526 629.5 558 c 128,-1,33
 597 590 597 590 577.5 631.5 c 128,-1,34
 558 673 558 673 558 729 c 0,35,36
 558 791 558 791 582 831 c 128,-1,37
 606 871 606 871 642 898.5 c 128,-1,38
 678 926 678 926 720.5 946.5 c 128,-1,39
 763 967 763 967 799 990 c 128,-1,40
 835 1013 835 1013 859 1043.5 c 128,-1,41
 883 1074 883 1074 883 1122 c 0,42,43
 883 1184 883 1184 865 1235.5 c 128,-1,44
 847 1287 847 1287 813.5 1324.5 c 128,-1,45
 780 1362 780 1362 732 1382.5 c 128,-1,46
 684 1403 684 1403 625 1403 c 0,47,48
 582 1403 582 1403 544.5 1386.5 c 128,-1,49
 507 1370 507 1370 479.5 1325.5 c 128,-1,50
 452 1281 452 1281 436 1203 c 128,-1,51
 420 1125 420 1125 420 1001 c 2,52,-1
 420 0 l 1,53,-1
 48 0 l 1,54,-1
 48 73 l 1,55,56
 116 85 116 85 148 102.5 c 128,-1,57
 180 120 180 120 180 132 c 2,58,-1
 180 946 l 2,59,60
 180 1066 180 1066 203.5 1151 c 128,-1,61
 227 1236 227 1236 262.5 1295.5 c 128,-1,62
 298 1355 298 1355 341 1393 c 128,-1,63
 384 1431 384 1431 423 1458 c 0,64,65
 481 1497 481 1497 559 1523.5 c 128,-1,66
 637 1550 637 1550 721 1550 c 0,67,68
 816 1550 816 1550 891 1517.5 c 128,-1,69
 966 1485 966 1485 1018 1433.5 c 128,-1,70
 1070 1382 1070 1382 1097.5 1318 c 128,-1,71
 1125 1254 1125 1254 1125 1190 c 0,72,73
 1125 1108 1125 1108 1099.5 1056 c 128,-1,74
 1074 1004 1074 1004 1036 971 c 128,-1,75
 998 938 998 938 953 917 c 128,-1,76
 908 896 908 896 870 877 c 128,-1,77
 832 858 832 858 806.5 834 c 128,-1,78
 781 810 781 810 781 770 c 0,79,80
 781 724 781 724 814.5 692 c 128,-1,81
 848 660 848 660 899 632.5 c 128,-1,82
 950 605 950 605 1008.5 576.5 c 128,-1,83
 1067 548 1067 548 1118 509.5 c 128,-1,84
 1169 471 1169 471 1202.5 416.5 c 128,-1,85
 1236 362 1236 362 1236 283 c 0,0,1
EndSplineSet
EndChar

StartChar: registered
Encoding: 174 174 138
Width: 730
Flags: W
LayerCount: 2
Fore
SplineSet
711 1084 m 0,0,1
 711 1010 711 1010 685 944 c 128,-1,2
 659 878 659 878 612.5 829 c 128,-1,3
 566 780 566 780 502.5 751.5 c 128,-1,4
 439 723 439 723 364 723 c 0,5,6
 290 723 290 723 227 751.5 c 128,-1,7
 164 780 164 780 118 829 c 128,-1,8
 72 878 72 878 46 944 c 128,-1,9
 20 1010 20 1010 20 1084 c 0,10,11
 20 1159 20 1159 46 1224.5 c 128,-1,12
 72 1290 72 1290 118 1339 c 128,-1,13
 164 1388 164 1388 227 1416.5 c 128,-1,14
 290 1445 290 1445 364 1445 c 0,15,16
 439 1445 439 1445 502.5 1416.5 c 128,-1,17
 566 1388 566 1388 612.5 1339 c 128,-1,18
 659 1290 659 1290 685 1224.5 c 128,-1,19
 711 1159 711 1159 711 1084 c 0,0,1
637 1084 m 0,20,21
 637 1143 637 1143 616.5 1195.5 c 128,-1,22
 596 1248 596 1248 560 1287 c 128,-1,23
 524 1326 524 1326 474 1348.5 c 128,-1,24
 424 1371 424 1371 364 1371 c 0,25,26
 305 1371 305 1371 255.5 1348.5 c 128,-1,27
 206 1326 206 1326 170 1287 c 128,-1,28
 134 1248 134 1248 113.5 1195.5 c 128,-1,29
 93 1143 93 1143 93 1084 c 0,30,31
 93 1024 93 1024 113.5 972 c 128,-1,32
 134 920 134 920 170 881 c 128,-1,33
 206 842 206 842 255.5 819.5 c 128,-1,34
 305 797 305 797 364 797 c 0,35,36
 424 797 424 797 474 819.5 c 128,-1,37
 524 842 524 842 560 881 c 128,-1,38
 596 920 596 920 616.5 972 c 128,-1,39
 637 1024 637 1024 637 1084 c 0,20,21
207 884 m 1,40,-1
 207 907 l 1,41,42
 247 916 247 916 247 925 c 2,43,-1
 247 1249 l 1,44,45
 237 1247 237 1247 227.5 1246 c 128,-1,46
 218 1245 218 1245 209 1244 c 1,47,-1
 205 1278 l 1,48,49
 234 1285 234 1285 272 1289 c 128,-1,50
 310 1293 310 1293 352 1293 c 0,51,52
 395 1293 395 1293 426 1285.5 c 128,-1,53
 457 1278 457 1278 476.5 1265 c 128,-1,54
 496 1252 496 1252 505 1234 c 128,-1,55
 514 1216 514 1216 514 1196 c 0,56,57
 514 1103 514 1103 416 1075 c 1,58,-1
 510 939 l 2,59,60
 517 928 517 928 526 924.5 c 128,-1,61
 535 921 535 921 557 923 c 1,62,-1
 560 900 l 1,63,64
 550 897 550 897 536.5 893.5 c 128,-1,65
 523 890 523 890 510 887 c 128,-1,66
 497 884 497 884 486 882 c 128,-1,67
 475 880 475 880 469 880 c 0,68,69
 460 880 460 880 452.5 884.5 c 128,-1,70
 445 889 445 889 441 895 c 2,71,-1
 352 1067 l 1,72,-1
 344 1067 l 2,73,74
 338 1067 338 1067 332 1067.5 c 128,-1,75
 326 1068 326 1068 319 1069 c 1,76,-1
 319 925 l 2,77,78
 319 921 319 921 326 916.5 c 128,-1,79
 333 912 333 912 356 907 c 1,80,-1
 356 884 l 1,81,-1
 207 884 l 1,40,-1
341 1256 m 2,82,-1
 330 1256 l 2,83,84
 324 1256 324 1256 319 1255 c 1,85,-1
 319 1110 l 1,86,87
 324 1109 324 1109 329 1109 c 2,88,-1
 340 1109 l 2,89,90
 391 1109 391 1109 411.5 1129 c 128,-1,91
 432 1149 432 1149 432 1187 c 0,92,93
 432 1216 432 1216 409.5 1236 c 128,-1,94
 387 1256 387 1256 341 1256 c 2,82,-1
EndSplineSet
EndChar

StartChar: copyright
Encoding: 169 169 139
Width: 1496
Flags: W
LayerCount: 2
Fore
SplineSet
1068 412 m 1,0,1
 1015 355 1015 355 969.5 320 c 128,-1,2
 924 285 924 285 882.5 266 c 128,-1,3
 841 247 841 247 802.5 240.5 c 128,-1,4
 764 234 764 234 725 234 c 0,5,6
 655 234 655 234 589.5 262 c 128,-1,7
 524 290 524 290 473 342.5 c 128,-1,8
 422 395 422 395 391.5 470 c 128,-1,9
 361 545 361 545 361 639 c 256,10,11
 361 733 361 733 396 815 c 128,-1,12
 431 897 431 897 493 958.5 c 128,-1,13
 555 1020 555 1020 639.5 1055.5 c 128,-1,14
 724 1091 724 1091 824 1091 c 0,15,16
 857 1091 857 1091 891.5 1085 c 128,-1,17
 926 1079 926 1079 957 1068.5 c 128,-1,18
 988 1058 988 1058 1014 1045 c 128,-1,19
 1040 1032 1040 1032 1055 1017 c 1,20,21
 1057 1008 1057 1008 1049.5 978 c 128,-1,22
 1042 948 1042 948 1030 913 c 128,-1,23
 1018 878 1018 878 1005 847 c 128,-1,24
 992 816 992 816 983 805 c 1,25,-1
 929 813 l 1,26,27
 919 847 919 847 905.5 878.5 c 128,-1,28
 892 910 892 910 873 934.5 c 128,-1,29
 854 959 854 959 828 973.5 c 128,-1,30
 802 988 802 988 766 988 c 0,31,32
 725 988 725 988 687.5 970 c 128,-1,33
 650 952 650 952 621.5 913.5 c 128,-1,34
 593 875 593 875 576.5 814.5 c 128,-1,35
 560 754 560 754 560 670 c 0,36,37
 560 601 560 601 581.5 545.5 c 128,-1,38
 603 490 603 490 637.5 451.5 c 128,-1,39
 672 413 672 413 715.5 392.5 c 128,-1,40
 759 372 759 372 803 372 c 0,41,42
 826 372 826 372 847.5 375 c 128,-1,43
 869 378 869 378 893.5 388 c 128,-1,44
 918 398 918 398 949.5 416.5 c 128,-1,45
 981 435 981 435 1023 465 c 0,46,47
 1024 465 1024 465 1031 456.5 c 128,-1,48
 1038 448 1038 448 1046 438.5 c 128,-1,49
 1054 429 1054 429 1060.5 420.5 c 128,-1,50
 1067 412 1067 412 1068 412 c 1,0,1
1292 666 m 0,51,52
 1292 784 1292 784 1251.5 888.5 c 128,-1,53
 1211 993 1211 993 1138.5 1071 c 128,-1,54
 1066 1149 1066 1149 966 1194 c 128,-1,55
 866 1239 866 1239 747 1239 c 0,56,57
 629 1239 629 1239 529.5 1194 c 128,-1,58
 430 1149 430 1149 357.5 1071 c 128,-1,59
 285 993 285 993 244.5 888.5 c 128,-1,60
 204 784 204 784 204 666 c 0,61,62
 204 547 204 547 244.5 442 c 128,-1,63
 285 337 285 337 357.5 259 c 128,-1,64
 430 181 430 181 529.5 136 c 128,-1,65
 629 91 629 91 747 91 c 0,66,67
 866 91 866 91 966 136 c 128,-1,68
 1066 181 1066 181 1138.5 259 c 128,-1,69
 1211 337 1211 337 1251.5 442 c 128,-1,70
 1292 547 1292 547 1292 666 c 0,51,52
1411 666 m 256,71,72
 1411 570 1411 570 1388.5 481 c 128,-1,73
 1366 392 1366 392 1324 315 c 128,-1,74
 1282 238 1282 238 1223 174 c 128,-1,75
 1164 110 1164 110 1090 65 c 128,-1,76
 1016 20 1016 20 929.5 -5 c 128,-1,77
 843 -30 843 -30 747 -30 c 256,78,79
 651 -30 651 -30 565 -5 c 128,-1,80
 479 20 479 20 405.5 65 c 128,-1,81
 332 110 332 110 272.5 174 c 128,-1,82
 213 238 213 238 171.5 315 c 128,-1,83
 130 392 130 392 107.5 481 c 128,-1,84
 85 570 85 570 85 666 c 0,85,86
 85 810 85 810 134.5 936 c 128,-1,87
 184 1062 184 1062 272.5 1156 c 128,-1,88
 361 1250 361 1250 482 1304.5 c 128,-1,89
 603 1359 603 1359 747 1359 c 0,90,91
 843 1359 843 1359 929.5 1334.5 c 128,-1,92
 1016 1310 1016 1310 1090 1264.5 c 128,-1,93
 1164 1219 1164 1219 1223 1156 c 128,-1,94
 1282 1093 1282 1093 1324 1016 c 128,-1,95
 1366 939 1366 939 1388.5 850.5 c 128,-1,96
 1411 762 1411 762 1411 666 c 256,71,72
EndSplineSet
EndChar

StartChar: trademark
Encoding: 8482 8482 140
Width: 1234
Flags: W
LayerCount: 2
Fore
SplineSet
167 807 m 1,0,-1
 167 843 l 1,1,2
 205 851 205 851 217.5 857.5 c 128,-1,3
 230 864 230 864 230 869 c 2,4,-1
 230 1208 l 1,5,-1
 128 1208 l 2,6,7
 115 1208 115 1208 104.5 1191.5 c 128,-1,8
 94 1175 94 1175 76 1133 c 1,9,-1
 45 1142 l 1,10,11
 46 1152 46 1152 48 1168.5 c 128,-1,12
 50 1185 50 1185 52 1202.5 c 128,-1,13
 54 1220 54 1220 57 1236 c 128,-1,14
 60 1252 60 1252 62 1261 c 1,15,-1
 503 1261 l 1,16,-1
 519 1249 l 1,17,18
 518 1240 518 1240 516.5 1225 c 128,-1,19
 515 1210 515 1210 513 1193.5 c 128,-1,20
 511 1177 511 1177 508.5 1161 c 128,-1,21
 506 1145 506 1145 503 1135 c 1,22,-1
 472 1135 l 1,23,24
 464 1168 464 1168 459 1188 c 128,-1,25
 454 1208 454 1208 436 1208 c 2,26,-1
 337 1208 l 1,27,-1
 337 869 l 2,28,29
 337 864 337 864 349.5 857.5 c 128,-1,30
 362 851 362 851 400 843 c 1,31,-1
 400 807 l 1,32,-1
 167 807 l 1,0,-1
1177 1225 m 1,33,34
 1167 1225 1167 1225 1153.5 1223 c 128,-1,35
 1140 1221 1140 1221 1126 1216 c 1,36,-1
 1130 865 l 2,37,38
 1130 860 1130 860 1144.5 854 c 128,-1,39
 1159 848 1159 848 1189 843 c 1,40,-1
 1189 807 l 1,41,-1
 974 807 l 1,42,-1
 974 843 l 1,43,44
 1002 848 1002 848 1017.5 854 c 128,-1,45
 1033 860 1033 860 1033 865 c 2,46,-1
 1029 1137 l 1,47,-1
 857 807 l 1,48,-1
 816 807 l 1,49,-1
 646 1137 l 1,50,-1
 643 865 l 2,51,52
 643 860 643 860 656 854 c 128,-1,53
 669 848 669 848 698 843 c 1,54,-1
 698 807 l 1,55,-1
 526 807 l 1,56,-1
 526 843 l 1,57,58
 554 848 554 848 568 854 c 128,-1,59
 582 860 582 860 582 865 c 2,60,-1
 586 1213 l 1,61,62
 571 1220 571 1220 556.5 1222.5 c 128,-1,63
 542 1225 542 1225 530 1225 c 1,64,-1
 530 1261 l 1,65,-1
 674 1261 l 2,66,67
 682 1261 682 1261 688 1255.5 c 128,-1,68
 694 1250 694 1250 704 1230 c 2,69,-1
 854 939 l 1,70,-1
 1007 1230 l 2,71,72
 1018 1252 1018 1252 1023.5 1256.5 c 128,-1,73
 1029 1261 1029 1261 1037 1261 c 2,74,-1
 1177 1261 l 1,75,-1
 1177 1225 l 1,33,34
EndSplineSet
EndChar

StartChar: acute
Encoding: 180 180 141
Width: 653
Flags: W
LayerCount: 2
Fore
SplineSet
289 1040 m 1,0,1
 280 1041 280 1041 267.5 1046.5 c 128,-1,2
 255 1052 255 1052 242 1058.5 c 128,-1,3
 229 1065 229 1065 218.5 1071.5 c 128,-1,4
 208 1078 208 1078 202 1083 c 1,5,-1
 414 1512 l 1,6,7
 426 1511 426 1511 458.5 1506 c 128,-1,8
 491 1501 491 1501 528 1495 c 128,-1,9
 565 1489 565 1489 597.5 1483 c 128,-1,10
 630 1477 630 1477 641 1474 c 1,11,-1
 672 1420 l 1,12,-1
 289 1040 l 1,0,1
EndSplineSet
EndChar

StartChar: dieresis
Encoding: 168 168 142
Width: 801
Flags: W
LayerCount: 2
Fore
SplineSet
749 1268 m 0,0,1
 749 1231 749 1231 736.5 1199 c 128,-1,2
 724 1167 724 1167 702.5 1143 c 128,-1,3
 681 1119 681 1119 652.5 1105 c 128,-1,4
 624 1091 624 1091 592 1091 c 0,5,6
 534 1091 534 1091 504 1122 c 128,-1,7
 474 1153 474 1153 474 1213 c 0,8,9
 474 1250 474 1250 487 1282 c 128,-1,10
 500 1314 500 1314 521.5 1338 c 128,-1,11
 543 1362 543 1362 571 1375.5 c 128,-1,12
 599 1389 599 1389 630 1389 c 0,13,14
 686 1389 686 1389 717.5 1359 c 128,-1,15
 749 1329 749 1329 749 1268 c 0,0,1
326 1268 m 0,16,17
 326 1231 326 1231 313.5 1199 c 128,-1,18
 301 1167 301 1167 280 1143 c 128,-1,19
 259 1119 259 1119 230.5 1105 c 128,-1,20
 202 1091 202 1091 170 1091 c 0,21,22
 112 1091 112 1091 81.5 1122 c 128,-1,23
 51 1153 51 1153 51 1213 c 0,24,25
 51 1250 51 1250 64 1282 c 128,-1,26
 77 1314 77 1314 98.5 1338 c 128,-1,27
 120 1362 120 1362 148.5 1375.5 c 128,-1,28
 177 1389 177 1389 208 1389 c 0,29,30
 264 1389 264 1389 295 1359 c 128,-1,31
 326 1329 326 1329 326 1268 c 0,16,17
EndSplineSet
EndChar

StartChar: notequal
Encoding: 8800 8800 143
Width: 930
Flags: W
LayerCount: 2
Fore
SplineSet
697 784 m 1,0,-1
 845 784 l 1,1,-1
 877 752 l 1,2,3
 874 741 874 741 868 725.5 c 128,-1,4
 862 710 862 710 855 693.5 c 128,-1,5
 848 677 848 677 841.5 662.5 c 128,-1,6
 835 648 835 648 832 640 c 1,7,-1
 606 640 l 1,8,-1
 507 484 l 1,9,-1
 845 484 l 1,10,-1
 877 452 l 1,11,12
 874 441 874 441 868 425.5 c 128,-1,13
 862 410 862 410 855 394 c 128,-1,14
 848 378 848 378 841.5 363.5 c 128,-1,15
 835 349 835 349 832 340 c 1,16,-1
 415 340 l 1,17,-1
 295 150 l 1,18,19
 286 143 286 143 265 135.5 c 128,-1,20
 244 128 244 128 220 121.5 c 128,-1,21
 196 115 196 115 173 109 c 128,-1,22
 150 103 150 103 138 99 c 1,23,-1
 106 142 l 1,24,-1
 231 340 l 1,25,-1
 85 340 l 1,26,-1
 53 372 l 1,27,28
 56 383 56 383 61.5 398 c 128,-1,29
 67 413 67 413 74 429 c 128,-1,30
 81 445 81 445 87.5 459.5 c 128,-1,31
 94 474 94 474 99 484 c 1,32,-1
 322 484 l 1,33,-1
 421 640 l 1,34,-1
 85 640 l 1,35,-1
 53 672 l 1,36,37
 56 682 56 682 61.5 697.5 c 128,-1,38
 67 713 67 713 74 729 c 128,-1,39
 81 745 81 745 87.5 759.5 c 128,-1,40
 94 774 94 774 99 784 c 1,41,-1
 512 784 l 1,42,-1
 631 972 l 1,43,44
 645 980 645 980 665.5 987.5 c 128,-1,45
 686 995 686 995 707.5 1001 c 128,-1,46
 729 1007 729 1007 750.5 1012 c 128,-1,47
 772 1017 772 1017 787 1021 c 1,48,-1
 823 981 l 1,49,-1
 697 784 l 1,0,-1
EndSplineSet
EndChar

StartChar: AE
Encoding: 198 198 144
Width: 1655
GlyphClass: 2
Flags: W
AnchorPoint: "Anchor-4" 1655 900 basechar 0
AnchorPoint: "Anchor-3" 894 -100 basechar 0
AnchorPoint: "Anchor-2" 894 -100 basechar 0
AnchorPoint: "Anchor-1" 894 -100 basechar 0
AnchorPoint: "Anchor-0" 968 1370 basechar 0
LayerCount: 2
Fore
SplineSet
759 1118 m 2,0,1
 759 1129 759 1129 752 1134 c 128,-1,2
 745 1139 745 1139 735 1137.5 c 128,-1,3
 725 1136 725 1136 714 1127 c 128,-1,4
 703 1118 703 1118 696 1101 c 2,5,-1
 547 735 l 1,6,-1
 759 735 l 1,7,-1
 759 1118 l 2,0,1
1609 304 m 1,8,9
 1604 261 1604 261 1598.5 213.5 c 128,-1,10
 1593 166 1593 166 1587.5 123.5 c 128,-1,11
 1582 81 1582 81 1577 48 c 128,-1,12
 1572 15 1572 15 1568 0 c 1,13,-1
 624 0 l 1,14,-1
 624 73 l 1,15,16
 692 87 692 87 725.5 103.5 c 128,-1,17
 759 120 759 120 759 134 c 2,18,-1
 759 624 l 1,19,-1
 504 624 l 1,20,-1
 308 141 l 1,21,22
 295 112 295 112 318.5 97 c 128,-1,23
 342 82 342 82 416 73 c 1,24,-1
 416 0 l 1,25,-1
 0 0 l 1,26,-1
 0 73 l 1,27,28
 62 82 62 82 97 97 c 128,-1,29
 132 112 132 112 145 141 c 1,30,-1
 534 1103 l 2,31,32
 541 1120 541 1120 536.5 1131.5 c 128,-1,33
 532 1143 532 1143 514 1152.5 c 128,-1,34
 496 1162 496 1162 463 1170 c 128,-1,35
 430 1178 430 1178 381 1187 c 1,36,-1
 381 1260 l 1,37,-1
 1506 1260 l 1,38,-1
 1543 1228 l 1,39,40
 1541 1202 1541 1202 1537.5 1163 c 128,-1,41
 1534 1124 1534 1124 1528.5 1083 c 128,-1,42
 1523 1042 1523 1042 1516 1005.5 c 128,-1,43
 1509 969 1509 969 1502 950 c 1,44,-1
 1427 950 l 1,45,46
 1422 1043 1422 1043 1403 1091.5 c 128,-1,47
 1384 1140 1384 1140 1345 1140 c 2,48,-1
 1009 1140 l 1,49,-1
 1009 735 l 1,50,-1
 1407 735 l 1,51,-1
 1441 700 l 1,52,53
 1432 686 1432 686 1420.5 667 c 128,-1,54
 1409 648 1409 648 1396 629 c 128,-1,55
 1383 610 1383 610 1371 594 c 128,-1,56
 1359 578 1359 578 1349 569 c 1,57,58
 1334 584 1334 584 1314 594 c 128,-1,59
 1294 604 1294 604 1275 611 c 128,-1,60
 1256 618 1256 618 1242 621 c 128,-1,61
 1228 624 1228 624 1225 624 c 2,62,-1
 1009 624 l 1,63,-1
 1009 184 l 2,64,65
 1009 169 1009 169 1016.5 157.5 c 128,-1,66
 1024 146 1024 146 1046.5 137.5 c 128,-1,67
 1069 129 1069 129 1109.5 124.5 c 128,-1,68
 1150 120 1150 120 1216 120 c 2,69,-1
 1311 120 l 2,70,71
 1357 120 1357 120 1390 131 c 128,-1,72
 1423 142 1423 142 1448.5 166.5 c 128,-1,73
 1474 191 1474 191 1494.5 231 c 128,-1,74
 1515 271 1515 271 1536 330 c 1,75,-1
 1609 304 l 1,8,9
EndSplineSet
EndChar

StartChar: Oslash
Encoding: 216 216 145
Width: 1274
GlyphClass: 2
Flags: W
AnchorPoint: "Anchor-4" 1274 900 basechar 0
AnchorPoint: "Anchor-3" 627 -100 basechar 0
AnchorPoint: "Anchor-2" 627 -100 basechar 0
AnchorPoint: "Anchor-1" 627 -100 basechar 0
AnchorPoint: "Anchor-0" 627 1370 basechar 0
LayerCount: 2
Fore
SplineSet
946 629 m 0,0,1
 946 697 946 697 935 761.5 c 128,-1,2
 924 826 924 826 904 885 c 1,3,-1
 427 230 l 1,4,5
 471 171 471 171 525.5 138 c 128,-1,6
 580 105 580 105 642 105 c 0,7,8
 708 105 708 105 763.5 137 c 128,-1,9
 819 169 819 169 859.5 234.5 c 128,-1,10
 900 300 900 300 923 398.5 c 128,-1,11
 946 497 946 497 946 629 c 0,0,1
308 641 m 0,12,13
 308 569 308 569 319.5 502.5 c 128,-1,14
 331 436 331 436 351 378 c 1,15,-1
 828 1033 l 1,16,17
 784 1092 784 1092 727.5 1126 c 128,-1,18
 671 1160 671 1160 604 1160 c 0,19,20
 532 1160 532 1160 476.5 1124.5 c 128,-1,21
 421 1089 421 1089 383.5 1022.5 c 128,-1,22
 346 956 346 956 327 859.5 c 128,-1,23
 308 763 308 763 308 641 c 0,12,13
1056 1094 m 1,24,25
 1126 1003 1126 1003 1162 887 c 128,-1,26
 1198 771 1198 771 1198 647 c 0,27,28
 1198 556 1198 556 1176 471 c 128,-1,29
 1154 386 1154 386 1114.5 310.5 c 128,-1,30
 1075 235 1075 235 1020 172.5 c 128,-1,31
 965 110 965 110 898 65 c 128,-1,32
 831 20 831 20 755 -5 c 128,-1,33
 679 -30 679 -30 598 -30 c 0,34,35
 513 -30 513 -30 439.5 -6 c 128,-1,36
 366 18 366 18 306 63 c 1,37,-1
 259 -2 l 1,38,39
 250 -10 250 -10 228 -18 c 128,-1,40
 206 -26 206 -26 181 -33.5 c 128,-1,41
 156 -41 156 -41 132 -46 c 128,-1,42
 108 -51 108 -51 96 -53 c 1,43,-1
 64 -16 l 1,44,-1
 198 168 l 1,45,46
 129 257 129 257 92 371.5 c 128,-1,47
 55 486 55 486 55 612 c 0,48,49
 55 748 55 748 99.5 871 c 128,-1,50
 144 994 144 994 223.5 1087 c 128,-1,51
 303 1180 303 1180 413.5 1235 c 128,-1,52
 524 1290 524 1290 656 1290 c 0,53,54
 743 1290 743 1290 815.5 1266 c 128,-1,55
 888 1242 888 1242 948 1199 c 1,56,-1
 996 1264 l 1,57,58
 1010 1272 1010 1272 1031 1280 c 128,-1,59
 1052 1288 1052 1288 1075 1295 c 128,-1,60
 1098 1302 1098 1302 1120 1306.5 c 128,-1,61
 1142 1311 1142 1311 1157 1313 c 1,62,-1
 1189 1276 l 1,63,-1
 1056 1094 l 1,24,25
EndSplineSet
EndChar

StartChar: infinity
Encoding: 8734 8734 146
Width: 1386
Flags: W
LayerCount: 2
Fore
SplineSet
367 441 m 0,0,1
 390 441 390 441 411.5 445 c 128,-1,2
 433 449 433 449 456.5 460.5 c 128,-1,3
 480 472 480 472 508 492.5 c 128,-1,4
 536 513 536 513 574 545 c 1,5,6
 551 573 551 573 524 601.5 c 128,-1,7
 497 630 497 630 467.5 653 c 128,-1,8
 438 676 438 676 407.5 691 c 128,-1,9
 377 706 377 706 347 706 c 0,10,11
 314 706 314 706 291 694.5 c 128,-1,12
 268 683 268 683 254.5 665 c 128,-1,13
 241 647 241 647 235 625.5 c 128,-1,14
 229 604 229 604 229 585 c 0,15,16
 229 562 229 562 238.5 536.5 c 128,-1,17
 248 511 248 511 265.5 490 c 128,-1,18
 283 469 283 469 308.5 455 c 128,-1,19
 334 441 334 441 367 441 c 0,0,1
1018 715 m 0,20,21
 995 715 995 715 972.5 709 c 128,-1,22
 950 703 950 703 925 690.5 c 128,-1,23
 900 678 900 678 871 657.5 c 128,-1,24
 842 637 842 637 807 608 c 1,25,26
 830 581 830 581 858 552.5 c 128,-1,27
 886 524 886 524 916 501.5 c 128,-1,28
 946 479 946 479 977 464.5 c 128,-1,29
 1008 450 1008 450 1038 450 c 0,30,31
 1071 450 1071 450 1093.5 461.5 c 128,-1,32
 1116 473 1116 473 1130 491 c 128,-1,33
 1144 509 1144 509 1150 530.5 c 128,-1,34
 1156 552 1156 552 1156 571 c 0,35,36
 1156 593 1156 593 1146.5 618.5 c 128,-1,37
 1137 644 1137 644 1119.5 665.5 c 128,-1,38
 1102 687 1102 687 1076.5 701 c 128,-1,39
 1051 715 1051 715 1018 715 c 0,20,21
426 875 m 0,40,41
 476 875 476 875 521 859 c 128,-1,42
 566 843 566 843 605 817.5 c 128,-1,43
 644 792 644 792 677.5 760 c 128,-1,44
 711 728 711 728 738 695 c 1,45,46
 793 744 793 744 839 778.5 c 128,-1,47
 885 813 885 813 925.5 834.5 c 128,-1,48
 966 856 966 856 1003.5 865.5 c 128,-1,49
 1041 875 1041 875 1080 875 c 0,50,51
 1130 875 1130 875 1174 857 c 128,-1,52
 1218 839 1218 839 1250.5 806 c 128,-1,53
 1283 773 1283 773 1301.5 725.5 c 128,-1,54
 1320 678 1320 678 1320 619 c 0,55,56
 1320 557 1320 557 1290 496.5 c 128,-1,57
 1260 436 1260 436 1210 388 c 128,-1,58
 1160 340 1160 340 1094.5 310 c 128,-1,59
 1029 280 1029 280 958 280 c 0,60,61
 907 280 907 280 861.5 296 c 128,-1,62
 816 312 816 312 776 337.5 c 128,-1,63
 736 363 736 363 701.5 395 c 128,-1,64
 667 427 667 427 640 460 c 1,65,66
 579 406 579 406 533.5 371 c 128,-1,67
 488 336 488 336 450 315.5 c 128,-1,68
 412 295 412 295 377.5 287.5 c 128,-1,69
 343 280 343 280 304 280 c 0,70,71
 254 280 254 280 210.5 298 c 128,-1,72
 167 316 167 316 134.5 349 c 128,-1,73
 102 382 102 382 83.5 429.5 c 128,-1,74
 65 477 65 477 65 536 c 0,75,76
 65 599 65 599 94.5 659.5 c 128,-1,77
 124 720 124 720 174 768 c 128,-1,78
 224 816 224 816 289.5 845.5 c 128,-1,79
 355 875 355 875 426 875 c 0,40,41
EndSplineSet
EndChar

StartChar: plusminus
Encoding: 177 177 147
Width: 840
Flags: W
LayerCount: 2
Fore
SplineSet
506 355 m 1,0,1
 496 350 496 350 481.5 344 c 128,-1,2
 467 338 467 338 451 332.5 c 128,-1,3
 435 327 435 327 419.5 322.5 c 128,-1,4
 404 318 404 318 393 316 c 1,5,-1
 361 346 l 1,6,-1
 361 621 l 1,7,-1
 85 621 l 1,8,-1
 53 652 l 1,9,10
 56 663 56 663 61.5 678 c 128,-1,11
 67 693 67 693 74 709 c 128,-1,12
 81 725 81 725 87.5 739.5 c 128,-1,13
 94 754 94 754 99 764 c 1,14,-1
 361 764 l 1,15,-1
 361 1032 l 1,16,-1
 385 1040 l 2,17,18
 400 1045 400 1045 416 1050.5 c 128,-1,19
 432 1056 432 1056 447.5 1061 c 128,-1,20
 463 1066 463 1066 474 1069 c 1,21,-1
 506 1038 l 1,22,-1
 506 764 l 1,23,-1
 777 764 l 1,24,-1
 810 733 l 1,25,26
 807 722 807 722 801 706.5 c 128,-1,27
 795 691 795 691 788 674.5 c 128,-1,28
 781 658 781 658 774.5 643.5 c 128,-1,29
 768 629 768 629 764 621 c 1,30,-1
 506 621 l 1,31,-1
 506 355 l 1,0,1
810 224 m 1,32,33
 807 213 807 213 801 197 c 128,-1,34
 795 181 795 181 788 164.5 c 128,-1,35
 781 148 781 148 774.5 133.5 c 128,-1,36
 768 119 768 119 764 111 c 1,37,-1
 85 111 l 1,38,-1
 53 143 l 1,39,40
 56 153 56 153 61.5 168.5 c 128,-1,41
 67 184 67 184 74 200 c 128,-1,42
 81 216 81 216 87.5 230.5 c 128,-1,43
 94 245 94 245 99 255 c 1,44,-1
 777 255 l 1,45,-1
 810 224 l 1,32,33
EndSplineSet
EndChar

StartChar: lessequal
Encoding: 8804 8804 148
Width: 930
Flags: W
LayerCount: 2
Fore
SplineSet
877 271 m 1,0,1
 874 260 874 260 868 244.5 c 128,-1,2
 862 229 862 229 855 213 c 128,-1,3
 848 197 848 197 841.5 182.5 c 128,-1,4
 835 168 835 168 832 159 c 1,5,-1
 85 159 l 1,6,-1
 53 191 l 1,7,8
 56 202 56 202 61.5 217 c 128,-1,9
 67 232 67 232 74 247.5 c 128,-1,10
 81 263 81 263 87.5 278 c 128,-1,11
 94 293 94 293 99 303 c 1,12,-1
 845 303 l 1,13,-1
 877 271 l 1,0,1
877 445 m 1,14,15
 855 425 855 425 828.5 399 c 128,-1,16
 802 373 802 373 771 354 c 1,17,-1
 85 599 l 1,18,19
 83 601 83 601 77.5 608 c 128,-1,20
 72 615 72 615 67 622 c 2,21,-1
 53 640 l 1,22,23
 59 669 59 669 70 701.5 c 128,-1,24
 81 734 81 734 91 760 c 1,25,-1
 845 1033 l 1,26,-1
 877 1000 l 1,27,28
 874 989 874 989 869.5 971.5 c 128,-1,29
 865 954 865 954 859.5 935 c 128,-1,30
 854 916 854 916 849 898.5 c 128,-1,31
 844 881 844 881 841 872 c 1,32,-1
 313 681 l 1,33,-1
 853 489 l 1,34,-1
 877 445 l 1,14,15
EndSplineSet
EndChar

StartChar: greaterequal
Encoding: 8805 8805 149
Width: 930
Flags: W
LayerCount: 2
Fore
SplineSet
877 271 m 1,0,1
 874 260 874 260 868 244.5 c 128,-1,2
 862 229 862 229 855 213 c 128,-1,3
 848 197 848 197 841.5 182.5 c 128,-1,4
 835 168 835 168 832 159 c 1,5,-1
 85 159 l 1,6,-1
 53 191 l 1,7,8
 56 202 56 202 61.5 217 c 128,-1,9
 67 232 67 232 74 247.5 c 128,-1,10
 81 263 81 263 87.5 278 c 128,-1,11
 94 293 94 293 99 303 c 1,12,-1
 845 303 l 1,13,-1
 877 271 l 1,0,1
53 941 m 1,14,15
 75 961 75 961 103.5 988 c 128,-1,16
 132 1015 132 1015 159 1033 c 1,17,-1
 845 787 l 1,18,-1
 877 747 l 1,19,20
 871 719 871 719 861.5 686.5 c 128,-1,21
 852 654 852 654 839 625 c 1,22,-1
 85 354 l 1,23,-1
 53 386 l 1,24,25
 56 396 56 396 60.5 414 c 128,-1,26
 65 432 65 432 70.5 451.5 c 128,-1,27
 76 471 76 471 81.5 488 c 128,-1,28
 87 505 87 505 90 514 c 1,29,-1
 616 704 l 1,30,-1
 77 897 l 1,31,-1
 53 941 l 1,14,15
EndSplineSet
EndChar

StartChar: yen
Encoding: 165 165 150
Width: 1036
Flags: W
LayerCount: 2
Fore
SplineSet
229 0 m 1,0,-1
 229 73 l 1,1,2
 274 82 274 82 304 92 c 128,-1,3
 334 102 334 102 352 111.5 c 128,-1,4
 370 121 370 121 377.5 129.5 c 128,-1,5
 385 138 385 138 385 145 c 2,6,-1
 385 388 l 1,7,-1
 97 388 l 1,8,-1
 75 412 l 1,9,10
 77 419 77 419 81.5 432 c 128,-1,11
 86 445 86 445 91 459.5 c 128,-1,12
 96 474 96 474 101 487 c 128,-1,13
 106 500 106 500 109 508 c 1,14,-1
 385 508 l 1,15,-1
 385 529 l 1,16,17
 350 606 350 606 311 682.5 c 128,-1,18
 272 759 272 759 232 828.5 c 128,-1,19
 192 898 192 898 153 958.5 c 128,-1,20
 114 1019 114 1019 79 1065 c 0,21,22
 70 1076 70 1076 60.5 1085 c 128,-1,23
 51 1094 51 1094 34 1100 c 128,-1,24
 17 1106 17 1106 -9 1109.5 c 128,-1,25
 -35 1113 -35 1113 -77 1113 c 1,26,-1
 -81 1186 l 1,27,28
 -52 1190 -52 1190 -13.5 1195 c 128,-1,29
 25 1200 25 1200 63 1204 c 128,-1,30
 101 1208 101 1208 135 1211 c 128,-1,31
 169 1214 169 1214 190 1214 c 0,32,33
 218 1214 218 1214 246 1202 c 128,-1,34
 274 1190 274 1190 291 1168 c 0,35,36
 328 1118 328 1118 362.5 1066 c 128,-1,37
 397 1014 397 1014 431 956 c 128,-1,38
 465 898 465 898 498.5 834.5 c 128,-1,39
 532 771 532 771 567 699 c 1,40,-1
 760 1065 l 1,41,42
 775 1091 775 1091 750.5 1106 c 128,-1,43
 726 1121 726 1121 649 1131 c 1,44,-1
 649 1204 l 1,45,-1
 1067 1204 l 1,46,-1
 1067 1131 l 1,47,48
 999 1118 999 1118 966 1104 c 128,-1,49
 933 1090 933 1090 919 1065 c 2,50,-1
 635 526 l 1,51,-1
 635 508 l 1,52,-1
 902 508 l 1,53,-1
 927 485 l 1,54,-1
 890 388 l 1,55,-1
 635 388 l 1,56,-1
 635 145 l 2,57,58
 635 139 635 139 642.5 130.5 c 128,-1,59
 650 122 650 122 668 112 c 128,-1,60
 686 102 686 102 716.5 92 c 128,-1,61
 747 82 747 82 794 73 c 1,62,-1
 794 0 l 1,63,-1
 229 0 l 1,0,-1
EndSplineSet
EndChar

StartChar: mu
Encoding: 181 181 151
Width: 1165
Flags: W
LayerCount: 2
Fore
SplineSet
1160 97 m 1,0,1
 1131 76 1131 76 1092.5 53 c 128,-1,2
 1054 30 1054 30 1015 11.5 c 128,-1,3
 976 -7 976 -7 939.5 -19 c 128,-1,4
 903 -31 903 -31 878 -31 c 0,5,6
 852 -31 852 -31 831.5 -16 c 128,-1,7
 811 -1 811 -1 796.5 24.5 c 128,-1,8
 782 50 782 50 773 85 c 128,-1,9
 764 120 764 120 760 159 c 1,10,11
 685 58 685 58 622.5 13.5 c 128,-1,12
 560 -31 560 -31 498 -31 c 0,13,14
 454 -31 454 -31 400 6 c 128,-1,15
 346 43 346 43 296 106 c 1,16,-1
 296 86 l 2,17,18
 296 -6 296 -6 311 -81 c 128,-1,19
 326 -156 326 -156 350 -216.5 c 128,-1,20
 374 -277 374 -277 404 -322.5 c 128,-1,21
 434 -368 434 -368 464 -399 c 1,22,23
 449 -404 449 -404 413 -418 c 128,-1,24
 377 -432 377 -432 336.5 -448.5 c 128,-1,25
 296 -465 296 -465 261 -479.5 c 128,-1,26
 226 -494 226 -494 214 -500 c 1,27,-1
 168 -464 l 1,28,-1
 168 694 l 2,29,30
 168 733 168 733 166.5 756 c 128,-1,31
 165 779 165 779 154 792.5 c 128,-1,32
 143 806 143 806 118 812.5 c 128,-1,33
 93 819 93 819 46 824 c 1,34,-1
 46 894 l 1,35,36
 136 902 136 902 211.5 917.5 c 128,-1,37
 287 933 287 933 362 960 c 1,38,-1
 368 954 l 2,39,40
 374 948 374 948 381.5 940 c 128,-1,41
 389 932 389 932 396.5 923.5 c 128,-1,42
 404 915 404 915 408 910 c 1,43,-1
 408 381 l 2,44,45
 408 337 408 337 423 298 c 128,-1,46
 438 259 438 259 461 230.5 c 128,-1,47
 484 202 484 202 511 185.5 c 128,-1,48
 538 169 538 169 561 169 c 0,49,50
 580 169 580 169 600 173.5 c 128,-1,51
 620 178 620 178 643 192.5 c 128,-1,52
 666 207 666 207 694.5 234 c 128,-1,53
 723 261 723 261 758 306 c 1,54,-1
 758 748 l 2,55,56
 758 764 758 764 754.5 786.5 c 128,-1,57
 751 809 751 809 745.5 831 c 128,-1,58
 740 853 740 853 733.5 872 c 128,-1,59
 727 891 727 891 720 900 c 1,60,61
 747 905 747 905 780.5 911.5 c 128,-1,62
 814 918 814 918 848.5 926 c 128,-1,63
 883 934 883 934 916.5 942.5 c 128,-1,64
 950 951 950 951 978 960 c 1,65,-1
 1014 914 l 1,66,67
 1012 901 1012 901 1009.5 887 c 128,-1,68
 1007 873 1007 873 1005 855 c 128,-1,69
 1003 837 1003 837 1001 813.5 c 128,-1,70
 999 790 999 790 998 759 c 1,71,-1
 998 298 l 2,72,73
 998 251 998 251 1000 221.5 c 128,-1,74
 1002 192 1002 192 1007 174.5 c 128,-1,75
 1012 157 1012 157 1019 150.5 c 128,-1,76
 1026 144 1026 144 1037 144 c 0,77,78
 1059 144 1059 144 1080.5 150 c 128,-1,79
 1102 156 1102 156 1135 172 c 1,80,-1
 1160 97 l 1,0,1
EndSplineSet
EndChar

